<?xml version="1.0" standalone="no"?>
<!DOCTYPE svg PUBLIC "-//W3C//DTD SVG 1.1//EN" "http://www.w3.org/Graphics/SVG/1.1/DTD/svg11.dtd" >
<svg>
<metadata>
Created by FontForge 20090914 at Fri Feb 24 02:37:26 2012
 By root
Copyright (c) Typographer Mediengestaltung, 2000. All rights reserved. Adapted by Walter Kafton-Minkel 1991 from the "Ben Franklin font" in Rob Roy Kelly s Wood Type Alphabets. Full character set added by Dieter Steffmann, Kreuztal.
</metadata>
<defs>
<font id="BenjaminFranklin" horiz-adv-x="530" >
  <font-face 
    font-family="Benjamin Franklin"
    font-weight="400"
    font-stretch="normal"
    units-per-em="1000"
    panose-1="2 0 5 5 2 0 0 2 0 3"
    ascent="800"
    descent="-200"
    x-height="481"
    cap-height="726"
    bbox="-128.571 -317 1415 996"
    underline-thickness="20"
    underline-position="-123"
    unicode-range="U+000D-U+E002"
  />
<missing-glyph horiz-adv-x="500" 
 />
    <glyph glyph-name=".notdef" horiz-adv-x="500" 
 />
    <glyph glyph-name="dotlessi" unicode="&#xd;" horiz-adv-x="312" 
d="M301 34q0 22 -20 30q-29 11 -37 23q-19 25 -16 92v243q0 10 -4.5 21.5t-11.5 21.5t-16 16t-18 6q-4 0 -10 -2l-15 -9.5t-14 -9.5q-13 -8 -25 -14.5t-23 -10.5l-27.5 -10l-27.5 -10q-27 -11 -27 -31q0 -21 17 -26q31 -11 33 -12q17 -12 17 -50v-95q0 -3 1 -11t3 -22
q5 -28 5 -43q0 -38 -17 -55q-5 -5 -32 -18q-17 -9 -17 -28q0 -37 42 -37q7 0 22 4.5t50 4.5q13 0 27.5 -2l28 -4t25 -4t17.5 -2q70 0 70 44z" />
    <glyph glyph-name="fi" horiz-adv-x="640" 
d="M551 639q0 40 -31 67q-32 27 -70 27q-35 0 -63 -40q-23 -34 -23 -54q0 -23 22 -51q26 -32 54 -32q51 0 81 23.5t30 59.5zM624 35q0 22 -20 30q-29 11 -37 23q-19 25 -16 92v243q0 10 -4.5 21.5t-11.5 21.5t-16 16t-18 6q-4 0 -10 -2l-15 -9.5t-14 -9.5
q-26 -17 -47.5 -24.5t-41.5 -13.5q-23 -8 -32 -17q-5 21 -40 33l-31.5 10l-31.5 10q-32 14 -32 44q0 7 -1.5 18l-3 22.5l-3 22.5t-1.5 18q0 18 12 18q8 0 21 -25q13 -24 47 -24q65 0 65 67q0 48 -25 78t-67 30q-78 0 -112 -39q-40 -43 -40 -151v-56q0 -31 -22 -44
q-12 -9 -40 -13q-22 -4 -22 -12v-33q0 -32 24 -39l45 -9q24 -9 24 -45q0 -12 -4.5 -25t-4.5 -18v-102q0 -69 -20 -91q-6 -8 -37 -15q-20 -5 -20 -36q0 -15 25 -27l95 18h139q25 0 25 34q0 19 -17 22q-26 5 -33 10q-17 15 -17 66v173q0 32 20 44q6 4 42 10q27 4 35 19
q3 -4 9.5 -7t14.5 -5.5t15.5 -5.5t11.5 -7q13 -13 13 -47v-95q0 -3 1 -11t3 -22q5 -28 5 -43q0 -38 -17 -55q-5 -5 -32 -18q-17 -9 -17 -28q0 -37 42 -37q7 0 22 4.5t50 4.5q13 0 27.5 -2l28 -4t25 -4t17.5 -2q70 0 70 44z" />
    <glyph glyph-name="fl" horiz-adv-x="604" 
d="M589 26q0 12 -12 23q-17 15 -24 26q-12 23 -10 67q2 46 3 73.5t1 38.5q0 -5 -1.5 4t-3.5 32q-2 21 -2.5 45t0.5 52q1 22 0.5 36.5t-2.5 22.5l-2 4l-2 4l7 204q1 18 0.5 29.5t-1.5 16.5q-5 26 -27 26q-19 0 -83 -21q-72 -23 -94 -41q-21 66 -86 66q-78 0 -112 -39
q-40 -43 -40 -151v-56q0 -31 -22 -44q-12 -9 -40 -13q-22 -4 -22 -12v-33q0 -32 24 -39l45 -9q24 -9 24 -45q0 -12 -4.5 -25t-4.5 -18v-102q0 -69 -20 -91q-6 -8 -37 -15q-20 -5 -20 -36q0 -15 25 -27l95 18h139q25 0 25 34q0 19 -17 22q-26 5 -33 10q-17 15 -17 66v173
q0 36 27 47q25 4 51 12t26 43q0 25 -35 39l-33 10l-33 10q-35 15 -35 46q0 7 -1.5 18l-3 22.5l-3 22.5t-1.5 18q0 18 12 18q8 0 21 -25q13 -24 47 -24q65 0 65 67v8q33 -4 42 -17q25 -34 25 -147q0 -30 -5 -49.5t-4 -30.5l-4 -130l11 -122q-2 -37 -20 -57q-2 -2 -10 -8.5
t-23 -17.5q-19 -13 -19 -32q-1 -19 10 -24q7 -4 30 -4q19 0 42 3.5t35 3.5q23 0 50 -8t44 -8q19 0 33 17q10 13 10 23z" />
    <glyph glyph-name="Lslash" horiz-adv-x="755" 
d="M434 388q0 21 -15 37.5t-37 16.5q-23 0 -52 -16l-22.5 -14t-15.5 -11l-1 13q-10 125 -18 185q-2 43 27 54t29 37q0 35 -40 35q-41 0 -61 -10q-3 0 -12.5 1.5l-22 3.5t-27.5 3.5t-29 1.5q-82 0 -82 -51q0 -11 33 -30q33 -20 33 -40l6 -302q-13 -2 -25 -5t-24 -5
q-29 -8 -57 -39q-21 -24 -21 -46t16.5 -35.5t39.5 -13.5q14 0 28 6q11 5 20 10t16 10q7 -18 13 -31q7 -18 7 -44q0 -34 -32 -48q-31 -12 -31 -31q0 -42 70 -42q27 0 63 3.5t81 10.5h218q34 0 55 -18q20 -19 49 -19q26 0 44 31q5 10 13 30t18 51q6 19 34 62q23 37 23 58
q0 35 -29 38q-14 1 -58 -37q-31 -28 -53.5 -46t-36.5 -28q-59 -40 -116 -40h-79q-38 0 -62 46q-20 38 -20 80q0 3 2 22.5t2 48.5q8 2 56 18q32 9 48 28q35 38 35 61z" />
    <glyph glyph-name="lslash" horiz-adv-x="436" 
d="M434 388q0 21 -15 37.5t-37 16.5q-23 0 -52 -16l-31 -19.5t-21 -15.5q1 39 -2 55l-2 4l-2 4l7 204q1 18 0.5 29.5t-1.5 16.5q-5 26 -27 26q-25 0 -103 -27q-86 -30 -84 -48q2 -21 23 -22q27 -2 39 -22q21 -38 21 -141q0 -30 -5 -49.5t-4 -30.5l-3 -85l-26 -6l-27 -6
q-30 -7 -61 -40q-21 -24 -21 -46t16.5 -35.5t39.5 -13.5q14 0 28 6q39 19 55 37l6 -63q-2 -37 -20 -57q-2 -2 -10 -8.5t-23 -17.5q-19 -13 -19 -32q-1 -19 10 -24q7 -4 30 -4q19 0 42 3.5t35 3.5q23 0 50 -8t44 -8q19 0 33 17q10 13 10 23q0 12 -12 23q-17 15 -24 26
q-12 23 -10 67q2 46 3 73.5t1 38.5l-0.5 5t-2.5 15l20.5 8t41.5 14q40 14 55 31q35 38 35 61z" />
    <glyph glyph-name="Zcaron" horiz-adv-x="628" 
d="M623 190q0 36 -39 36q-32 0 -69 -33l-50 -43.5t-23 -19.5q-51 -33 -113 -33q-20 0 -37 7q-23 11 -23 26t38 62q46 56 51 67q34 67 156 240q97 136 97 175q0 50 -66 55l-270 -21q-41 3 -69 19q-29 17 -30 17q-26 0 -44 -32q-1 -2 -7.5 -17t-17.5 -44q-1 -5 -35 -60
q-33 -53 -33 -59q0 -11 8.5 -20.5t20.5 -9.5q32 0 67 32l46.5 41.5t19.5 16.5q47 32 107 32q17 0 33 -12.5t16 -31.5q0 -34 -46 -80l-42 -43l-14 -14l-145 -259l-26 -32l-26 -33q-47 -62 -47 -88q0 -38 63 -38q16 0 32.5 5.5t21.5 5.5h90q9 0 21 -1t27 -3l23.5 -3t6.5 -1
q77 0 122 -13q50 -14 40 -14q64 0 111 140l14 13.5l14 13.5q26 29 26 54zM194 963q-20 0 -20 -21q0 -11 16 -23q25 -23 30 -27q3 -3 27 -38l17.5 -24t14.5 -15q3 -10 13.5 -19t20.5 -9q12 0 29 7q9 2 13 5l7 3q16 7 38 38q14 22 22 33t10 13t9 8.5t21 17.5q15 12 15 23
q0 21 -20 21q-17 0 -68 -27q-39 -30 -61 -52q-12 8 -34 32q-23 23 -32 27q-51 27 -68 27z" />
    <glyph glyph-name="zcaron" horiz-adv-x="520" 
d="M515 115q0 10 -9.5 18.5t-15.5 8.5q-21 0 -72 -39q-52 -38 -93 -38q-66 0 -66 27q0 13 68 79q23 23 53 59.5t65 88.5q67 95 67 109q0 26 -17 32q-10 2 -42 2h-113q-65 1 -105 12q-13 4 -24.5 8.5t-22.5 11.5q-17 11 -24 11q-22 0 -66 -71q-40 -67 -40 -84q0 -30 21 -30
l74 39q73 40 112 40q50 0 50 -20q0 -11 -11 -22q-29 -29 -45 -51q-92 -117 -162 -186l-34.5 -31l-34.5 -31q-14 -14 -14 -42q0 -29 31 -29q44 0 82 13h191q22 0 52 -14q30 -15 49 -15q37 0 96 144zM180 707q-20 0 -20 -21q0 -11 16 -23q25 -23 30 -27q3 -3 27 -38l17.5 -24
t14.5 -15q3 -10 13.5 -19t20.5 -9q12 0 29 7q9 2 13 5l7 3q16 7 38 38q14 22 22 33t10 13t9 8.5t21 17.5q15 12 15 23q0 21 -20 21q-17 0 -68 -27q-39 -30 -61 -52q-12 8 -34 32q-23 23 -32 27q-51 27 -68 27z" />
    <glyph glyph-name="space" unicode=" " horiz-adv-x="536" 
 />
    <glyph glyph-name="exclam" unicode="!" horiz-adv-x="244" 
d="M212 568q1 8 1.5 15t0.5 15q0 51 -20 85q-25 40 -74 41q-83 2 -83 -100q0 -22 3 -52q10 -78 15.5 -131t7.5 -81q2 -38 4 -59t3 -26q9 -49 41 -57q3 -1 10 -1q24 0 41 44q1 3 7.5 28.5l19.5 74.5q7 72 12.5 122.5t10.5 81.5zM209 70q0 18 -7 33.5t-20 27t-29 18t-34 6.5
q-32 0 -57 -37q-21 -29 -21 -48q-2 -21 21 -50q22 -31 49 -31q43 0 70 23.5t28 57.5z" />
    <glyph glyph-name="quotedbl" unicode="&#x22;" horiz-adv-x="341" 
d="M308 680q-21 32 -52 32q-12 0 -24 -6t-21 -16t-14.5 -22.5t-5.5 -24.5t8 -34t10 -37q11 -86 47 -92q22 -3 33 27l15 60q15 39 15 70q0 26 -11 43zM140 684q-21 32 -52 32q-12 0 -24 -6t-21 -16t-14.5 -22.5t-5.5 -24.5t8 -34t10 -37q11 -86 47 -92q22 -3 33 27l15 60
q15 39 15 70q0 26 -11 43z" />
    <glyph glyph-name="numbersign" unicode="#" horiz-adv-x="602" 
d="M598 526q0 27 -39 32q-11 2 -67 0q8 46 14.5 78l10.5 52q4 18 -9.5 31.5t-32.5 13.5q-38 0 -45 -19l-27 -87l-18 -62l-111 -7q33 110 36 136q2 19 -26 26q-8 3 -16 3q-35 0 -42 -19q-32 -105 -36 -139q-23 2 -44 -3q-12 -2 -22 -3t-18 -1q-28 0 -35 -22q-2 -8 -2 -13
q0 -28 14 -30q37 -3 60 0q18 3 31 0l-42 -197q-21 1 -39 0q-23 -3 -36 -3q-40 0 -42 -26t36 -33q8 -2 15.5 -2.5t14.5 -1.5q16 -1 26 -1t15 -1q-1 -2 -4 -14.5t-9 -35.5q-9 -38 -9 -63q0 -14 10.5 -25t24.5 -11q15 0 30.5 11t18.5 22q12 38 19.5 67t9.5 49l93 6
q-14 -56 -18 -106q-2 -16 10 -30.5t28 -14.5t32.5 14.5t19.5 27.5l17.5 68t8.5 39q16 -2 31 -3t31 -3q26 -2 58 6q24 3 24 33q0 6 -1 9q-9 17 -26 19q-79 1 -104 0l61 200q31 1 50.5 2t28.5 2q41 5 41 29zM375 497l-55 -201l-101 -6l43 201z" />
    <glyph glyph-name="dollar" unicode="$" horiz-adv-x="448" 
d="M456 192q3 31 -26 86q-6 19 -56 75q-46 52 -46 73q0 7 11 38q10 30 19 30q4 0 21 -11t18 -11q21 0 21 25q0 26 -24 58q-24 31 -24 48q0 1 1.5 6t3.5 11t3.5 12.5t1.5 9.5q0 28 -25 28q-20 0 -34 -26q-12 -26 -20 -26q-19 0 -19 16q0 13 -0.5 20.5t-1.5 11.5q-5 17 -23 17
q-15 0 -32 -23t-31 -26q-81 -16 -122 -45q-54 -41 -54 -120q0 -37 32 -72q4 -4 19 -16l42 -34q32 -26 32 -45q0 -17 -22 -83q-21 -66 -25 -66q-9 0 -18 28t-32 28q-36 0 -36 -47q0 -40 27 -82q28 -41 28 -63q0 -17 -4 -31t-4 -18q0 -12 19 -22q14 -7 25 -7q26 0 34 32t18 32
q16 0 16 -32q0 -33 4 -42q4 -15 24 -15q24 0 28 34q6 38 37 48q73 22 113 53q28 22 37 46l6 24q35 44 38 73zM298 518q0 -11 -8 -45q-11 -38 -21 -38q-3 0 -9 2t-12 5.5t-10 7.5t-4 8q23 82 35 93q10 -7 19.5 -14.5t9.5 -18.5zM206 552q0 -12 -8 -42q-10 -34 -20 -34
q-4 0 -21 14q-19 15 -19 25q0 6 15 23q16 16 33 19q2 -8 12 -7l6 1.5zM325 148q0 -15 -19 -38q-18 -24 -32 -24q-5 0 -14 5t-9 8q0 -3 9 35q10 36 10 58q0 3 5 10.5t3 11.5h20q1 -3 4 -10.5t10 -20.5q13 -23 13 -35zM226 258q-26 -168 -46 -168q-8 0 -17 6.5t-9 16.5
q37 166 52 185q20 -20 20 -40z" />
    <glyph glyph-name="percent" unicode="%" horiz-adv-x="696" 
d="M342 536v42q0 40 -51 81q-47 36 -87 38q-56 1 -54 0q-39 3 -84 -40q-54 -51 -54 -127q0 -63 49 -99t128 -38q40 -1 92 37q61 45 61 106zM584 660q6 10 6 17q0 13 -34 31q-13 7 -96 -56q-16 -40 -32.5 -75t-34.5 -66q-11 -20 -31.5 -53l-49.5 -78q-34 -52 -86 -115
l-53.5 -65t-36.5 -48q-8 -12 -54 -49q-34 -28 -34 -46q0 -10 8 -21q-2 -4 -2 -7q0 -17 30 -29q10 -2 15 -2q25 0 45 26l24 32l136.5 184.5l95.5 135.5l62 87l63 88q67 94 59 109zM652 146v41q0 40 -51 81q-47 36 -87 38q-54 1 -53 0q-39 3 -84 -40q-54 -50 -54 -126
q0 -62 50 -100q48 -36 126 -37q40 -1 92 37q61 43 61 106zM248 481q0 -9 -15 -24t-25 -15q-20 0 -64 50q-49 55 -49 103q0 58 63 58q42 0 71 -75q19 -51 19 -78v-19zM559 90q0 -9 -16 -24q-16 -14 -25 -14q-20 0 -64 50q-49 55 -49 103q0 57 64 57q42 0 71 -75
q19 -50 19 -78v-19z" />
    <glyph glyph-name="ampersand" unicode="&#x26;" horiz-adv-x="756" 
d="M762 438q0 80 -91 80q-27 0 -44 -24.5t-17 -55.5q0 -28 25 -28h10q5 1 10 1q22 0 22 -23q0 -20 -17 -20q-108 37 -137 37q-40 0 -72 -29q-35 -32 -35 -75q0 -30 3 -39q10 -34 53 -34q22 0 40.5 16t18.5 32q0 36 31 36q27 0 56 -39q29 -38 29 -59q0 -33 -35 -53
q-14 -5 -27 -11l-26 -12q-84 -51 -143 -51q-118 0 -184 82q-49 61 -49 118t37 84q21 15 39 15q21 0 36 -18q17 -17 20 -17q42 19 42 48q0 24 -28 64t-28 60q0 12 6 23.5t16 20.5t22.5 14.5t25.5 5.5q37 0 48 -27q4 -13 7 -25l6 -25q10 -27 43 -27q31 0 48 32q14 28 14 67
q0 59 -55 102q-44 33 -71 33q-100 0 -164 -46q-64 -45 -64 -109q0 -7 2 -16.5t5 -18.5t5 -17t2 -12q0 -26 -18 -39q-11 -8 -38 -17q-26 -9 -34 -17l-33 -30l-32 -30q-39 -47 -39 -126q0 -96 95 -173q95 -76 222 -76h93q44 0 83 16l16 8t16 9q101 30 142 74q49 52 49 156
q0 20 -4 39t-7.5 29t-4.5 11q0 21 29 47q30 27 30 59z" />
    <glyph glyph-name="quotesingle" unicode="'" horiz-adv-x="176" 
d="M140 684q-21 32 -52 32q-12 0 -24 -6t-21 -16t-14.5 -22.5t-5.5 -24.5t8 -34t10 -37q11 -86 47 -92q22 -3 33 27l15 60q15 39 15 70q0 26 -11 43z" />
    <glyph glyph-name="parenleft" unicode="(" horiz-adv-x="328" 
d="M332 740q5 8 5 13q0 12 -25 11q-41 -2 -111 -79q-28 -32 -50.5 -62.5t-39.5 -58.5t-28 -51t-17 -39q-14 -38 -18 -102q-1 -8 -1 -16v-16q0 -96 37 -191q38 -95 96 -149q16 -14 40 -47q21 -27 36 -36q6 -2 10 -2q30 0 34 22q1 13 -18 35q-35 37 -42 48q-40 56 -70 144
q-32 94 -32 169q0 132 94 283q8 14 21.5 30l30.5 35l29 34.5t19 24.5z" />
    <glyph glyph-name="parenright" unicode=")" horiz-adv-x="328" 
d="M310 368q-5 64 -18 102q-6 16 -17 39t-28 51t-39.5 58.5t-50.5 62.5q-70 77 -111 79q-28 1 -28 -13q0 -6 4 -11q7 -10 19 -24.5l29 -34.5l30.5 -35t21.5 -30q58 -95 78 -174q16 -60 16 -109q0 -75 -32 -169q-30 -88 -70 -144q-1 -2 -11 -13.5l-29 -34.5q-18 -21 -16 -35
q4 -22 34 -22q4 0 10 2q15 9 36 36q26 36 40 48q29 26 52.5 63t42.5 85q38 97 38 191v16t-1 16z" />
    <glyph glyph-name="asterisk" unicode="*" horiz-adv-x="316" 
d="M254 641q13 30 4 41q-11 14 -21 14q-12 0 -27 -15l-15.5 -19.5l-11.5 -14.5l1 1q2 6 2.5 10.5t1.5 7.5q4 15 -1 27q-12 30 -26 32q-33 4 -33 -35q0 1 1.5 -8.5t3.5 -29.5q-16 25 -28 31q-29 12 -41 3q-13 -10 -13 -21q0 -12 15 -27l18 -14l13 -10h-2q-8 2 -11 3
q-19 4 -31 0q-30 -12 -32 -26q-5 -33 35 -33q9 0 25 2.5t24 2.5q-8 -4 -14 -6.5t-10 -4.5q-13 -7 -23 -29q-7 -18 0.5 -28.5t21.5 -10.5q9 0 17 6q12 10 18 19q1 1 2.5 5t5.5 12q5 8 16 18q-1 -11 -5 -22q-6 -14 -6 -15q-4 -13 5 -36q8 -19 20 -20q11 -2 20.5 5.5t9.5 18.5
q1 8 0.5 14.5t-1.5 11.5q0 2 -6 19q-3 8 -1 25q14 -21 19 -34q7 -15 30 -24q18 -8 29 0q10 7 10 21q0 11 -6 17q-16 18 -30 23.5t-26 20.5q13 -3 22 -5.5t14 -4.5q16 -6 38 3q19 7 21 21q1 11 -6.5 20.5t-18.5 9.5q-24 1 -36.5 -4.5t-26.5 -4.5l27.5 17.5t18.5 19.5z" />
    <glyph glyph-name="plus" unicode="+" horiz-adv-x="464" 
d="M440 288q9 68 -68 68q-6 0 -16 -1.5l-20.5 -3t-19.5 -2.5t-14 -1q-10 0 -19 3l2.5 15t4.5 21q6 21 6 33q0 13 -5 26q-21 52 -52 56q-68 9 -68 -68q0 -6 1 -16t2.5 -20.5t2.5 -19.5t1 -14q0 -12 -3 -22l-1 -2q-13 2 -33 10t-34 8q-19 0 -43 -10q-35 -15 -40 -44
q-3 -24 13 -43.5t39 -20.5q35 -2 54 5.5t27 7.5q13 0 30 -4v-3q0 -9 -3 -19.5l-6 -21t-6 -20t-3 -16.5q0 -20 10 -43q14 -35 44 -40q23 -3 42.5 13t21.5 39q2 36 -5.5 54.5t-7.5 27.5t3 24h7q7 0 17.5 -2.5t21 -4.5t20 -4t15.5 -2q11 0 26 5q52 21 56 52z" />
    <glyph glyph-name="comma" unicode="," horiz-adv-x="224" 
d="M202 74q0 18 -7.5 33.5t-20.5 27t-29 18t-34 6.5q-31 0 -56 -36q-21 -30 -21 -49q0 -22 20 -48q23 -30 48 -26q8 2 8 -2q0 -6 -26 -41q-25 -34 -25 -47t20 -11q63 4 96 93q27 72 27 82z" />
    <glyph glyph-name="hyphen" unicode="-" horiz-adv-x="464" 
d="M440 288q9 68 -68 68q-6 0 -16 -1.5l-20.5 -3t-19.5 -2.5t-14 -1q-9 0 -24 4.5t-23 4.5q-6 0 -15.5 -2.5t-19.5 -6t-19.5 -6t-16.5 -2.5q-9 0 -19.5 3l-21 6t-20 6t-16.5 3q-19 0 -43 -10q-35 -15 -40 -44q-3 -24 13 -43.5t39 -20.5q35 -2 54 5.5t27 7.5q7 0 15.5 -1.5
l19.5 -3.5q32 -3 55 -4t37 0q7 0 17.5 -2.5t21 -4.5t20 -4t15.5 -2q11 0 26 5q52 21 56 52z" />
    <glyph glyph-name="period" unicode="." horiz-adv-x="236" 
d="M202 70q0 18 -7.5 33.5t-20.5 27t-29 18t-34 6.5q-31 0 -56 -36q-21 -30 -21 -49q0 -20 21 -47q21 -26 47 -26q45 0 72.5 20.5t27.5 52.5z" />
    <glyph glyph-name="slash" unicode="/" horiz-adv-x="588" 
d="M560 660q6 10 6 17q0 13 -34 31q-13 7 -96 -56q-16 -40 -32.5 -75t-34.5 -66q-11 -20 -31.5 -53l-49.5 -78q-34 -52 -86 -115l-53.5 -65t-36.5 -48q-8 -12 -54 -49q-34 -28 -34 -46q0 -10 8 -21q-2 -4 -2 -7q0 -17 30 -29q10 -2 15 -2q25 0 45 26l24 32l136.5 184.5
l95.5 135.5l62 87l63 88q67 94 59 109z" />
    <glyph glyph-name="zero" unicode="0" horiz-adv-x="552" 
d="M530 213v155q0 27 -24 74q-29 59 -80 98q-64 49 -149 49q-131 0 -208 -83q-58 -64 -57 -127q1 -77 1 -117t1 -44q6 -60 33 -90l21 -20l21 -20q39 -58 77.5 -81t90.5 -23q98 0 183 65q90 70 90 164zM373 214q0 -47 -18 -87q-23 -54 -67 -54q-58 0 -86 46q-20 34 -20 82
q0 14 1.5 29.5t3.5 33.5q6 36 6 51q0 3 -0.5 10.5t-1.5 16t-1.5 16.5t-0.5 13q0 80 11 110q15 38 64 38q41 0 70 -45q29 -46 29 -110q0 -32 2.5 -69.5t7.5 -80.5z" />
    <glyph glyph-name="one" unicode="1" horiz-adv-x="368" 
d="M343 587q0 56 -59 56q-13 0 -25 -3l-66 -24q-15 -5 -45 -2q-23 2 -36 3t-15 1q-28 0 -50 -15t-22 -33q0 -24 27 -31q47 -11 52 -14q27 -15 27 -59q0 -60 -17 -126t-17 -54q0 -7 2 -22t6 -38q9 -47 9 -75q0 -41 -25 -63q-4 -2 -15.5 -8.5l-31.5 -17.5q-25 -13 -25 -32
q0 -43 37 -43q14 0 39 6.5t46 6.5q28 0 46 -6q17 -7 50 -7q102 0 102 43q0 16 -41 46q-41 32 -41 69q0 10 7 23q7 14 7 72v84q0 2 1.5 7.5t3.5 15.5q5 22 5 21q0 8 -3 13l-4 4v111q0 32 18 49q5 5 35 19q18 9 18 23z" />
    <glyph glyph-name="two" unicode="2" horiz-adv-x="488" 
d="M445 553q1 51 -59 104q-64 53 -134 53q-81 0 -139 -46q-57 -47 -60 -102q-1 -11 6.5 -26t17.5 -21q28 -18 50 -18q31 0 54 54q22 55 41 55q33 0 56 -33q20 -29 20 -52q0 -70 -36 -95q-72 -51 -158 -204q-76 -133 -76 -172q0 -65 64 -61q45 15 98 15q11 0 23 -1t23 -3
q5 0 59 -12q39 -9 63 -9q45 0 70 25q17 17 16 64q10 40 10 74q0 33 -14 30q-60 -14 -126 -49q-56 -30 -110 -31q-18 0 -32 8.5t-14 20.5q0 17 32 29q24 9 60 58q22 31 40.5 53t34.5 35q50 42 83 110q35 72 37 147z" />
    <glyph glyph-name="three" unicode="3" horiz-adv-x="488" 
d="M477 79q0 42 -24 107q-21 57 -33 66l-23 14l-24 14q-27 18 -27 38q0 23 22 39q34 25 39 33q22 26 22 75q0 53 -50 106q-54 55 -123 55q-78 0 -138 -57q-53 -51 -53 -99q0 -27 24 -27q28 0 63 27q35 28 62 28q33 0 59 -24q25 -24 25 -45q0 -40 -39 -71l-36 -22l-36 -22
q-39 -26 -39 -52q0 -22 79 -79q79 -55 79 -92q0 -34 -42 -62q-42 -27 -82 -27q-38 0 -73 31t-53 31q-36 0 -36 -21q0 -30 51 -84q55 -61 101 -61h93q46 0 100 45q36 30 58 59l36 51z" />
    <glyph glyph-name="four" unicode="4" horiz-adv-x="520" 
d="M529 49q0 32 -21 37l-19.5 4l-19.5 4q-21 7 -21 40q0 27 14 66l-18 190v117q0 7 1 25.5t1 28.5q0 66 -40 66q-26 0 -47 -30q-14 -21 -42 -79q-16 -35 -30 -62.5t-26 -47.5q-17 -29 -42.5 -69l-59.5 -91q-47 -71 -47 -79q0 -4 -48 -56q-47 -52 -47 -84q0 -30 35 -30h101
q16 0 32 1t32 3q17 2 23.5 3.5t4.5 1.5q41 0 52 -35l9 -69q5 -35 36 -35q67 0 93 20q18 13 18 46v5t-1 8v12q0 24 9 34.5t44 17.5q24 6 24 37zM311 286v-11q0 -9 1 -26t1.5 -31.5t0.5 -26.5q0 -99 -25 -99h-6t-11 -1h-21q-57 0 -57 33q0 4 3 9.5t7 11.5l7.5 11.5t3.5 8.5v26
q29 18 50 66q23 50 32 54q14 -12 14 -25z" />
    <glyph glyph-name="five" unicode="5" horiz-adv-x="496" 
d="M491 94q0 29 -6 43q-6 13 -6 45v16q0 29 -53 84q-51 54 -90 65q-22 4 -44 7t-44 7q-45 13 -45 72q0 41 65 56l61 12l60 12q65 21 65 78v16q-8 0 -27.5 -6.5t-48.5 -6.5q-39 0 -111 28l-111 -4q-23 -2 -35 -28q-10 -20 -10 -49q0 -19 4 -23l-4 -278q5 -56 26 -56
q12 0 25 13q14 14 67 14q47 0 83 -27q27 -21 27 -33v-76q0 -32 -33 -65q-34 -32 -77 -32q-42 0 -78 27q-5 4 -18 17l-35 36q-27 28 -47 28q-38 0 -38 -28q0 -45 60 -106q69 -72 150 -72h63q78 0 146 86q59 74 59 128z" />
    <glyph glyph-name="six" unicode="6" horiz-adv-x="512" 
d="M503 190v104q0 29 -39 76q-46 57 -115 82l-31 8l-31 8q-38 11 -38 22q0 13 33 69q39 65 73 74l37.5 4l37.5 4q38 5 38 37q0 17 -14 32t-31 15q-75 0 -157 -38q-135 -62 -182 -206q0 -2 -4.5 -8t-10.5 -15l-12.5 -19.5t-10.5 -21.5q-15 -40 -18 -79q-3 -42 -6 -48
q-2 -3 -8 -9q-7 -10 -7 -42q0 -90 72 -169q79 -88 189 -88q109 0 180 83q52 64 55 125zM352 226q0 -148 -71 -148q-35 0 -75 60q-41 62 -41 111q0 5 5 23t5 38q0 21 15 47q19 33 49 33q32 0 74 -39q39 -36 39 -54v-71z" />
    <glyph glyph-name="seven" unicode="7" horiz-adv-x="509" 
d="M516 536q0 18 -15.5 32t-33.5 14q-9 0 -50 -16q-41 -15 -105 -15q-79 0 -125 12q-30 7 -50 23q-17 12 -21 12q-34 0 -46 -44q-2 -13 -3.5 -26t-3.5 -26q-4 -20 -26 -64q-20 -38 -20 -47q0 -24 28 -24q18 0 65 44q47 41 63 38q57 -12 81 -12q9 0 15 2t7 2q42 0 42 -16
q0 -38 -66 -141l-123 -186q-66 -107 -66 -155q0 -62 84 -62q70 0 91 57q7 26 13 51t13 50q8 20 22 45.5t33 55.5q28 44 28 63q0 15 84 158q85 143 85 175z" />
    <glyph glyph-name="eight" unicode="8" horiz-adv-x="492" 
d="M477 193q0 64 -27 114q-7 13 -19.5 29.5t-29.5 36.5q-27 28 -27 46q0 13 28 53q29 41 29 77q0 70 -45 118q-50 51 -129 51q-90 0 -160 -57q-64 -52 -64 -103q0 -44 19 -82q4 -9 12.5 -22.5t21.5 -32.5q19 -26 19 -41q0 -29 -48 -62q-48 -32 -48 -71v-63q0 -95 74 -157
q58 -48 113 -48h69q88 0 150 62q62 64 62 152zM317 542q0 -17 -15.5 -32.5t-32.5 -15.5q-29 0 -63 31t-34 63q0 13 14 29q19 22 55 22q25 0 47 -22q29 -29 29 -75zM313 145q0 -42 -24.5 -63.5t-62.5 -21.5q-64 0 -95 37q-28 31 -28 84q0 40 32 84q33 45 70 45q33 0 71 -63
q37 -61 37 -102z" />
    <glyph glyph-name="nine" unicode="9" horiz-adv-x="512" 
d="M507 333q0 89 -72 170q-79 88 -189 88t-180 -84q-52 -64 -55 -125v-104q0 -30 39 -76q46 -57 115 -82l31 -8l31 -8q38 -11 38 -22q0 -15 -33 -67q-39 -62 -73 -71l-38 -4l-38 -4q-37 -4 -37 -37q0 -17 14 -32t31 -15q77 0 157 36q136 61 182 203q0 2 4.5 8t10.5 15
l12.5 19.5t10.5 21.5q15 40 18 79q3 43 6 47q2 4 8 10q7 10 7 42zM349 323q0 -4 -5 -24q-5 -17 -5 -38q0 -20 -15 -46q-20 -33 -49 -33q-32 0 -74 39q-39 36 -39 54v71q0 148 71 148q35 0 75 -61q41 -61 41 -110z" />
    <glyph glyph-name="colon" unicode=":" horiz-adv-x="236" 
d="M202 306q0 18 -7.5 33.5t-20.5 27t-29 18t-34 6.5q-31 0 -56 -36q-21 -30 -21 -49q0 -20 21 -47t47 -27q45 0 72.5 21t27.5 53zM202 70q0 18 -7.5 33.5t-20.5 27t-29 18t-34 6.5q-31 0 -56 -36q-21 -30 -21 -49q0 -20 21 -47q21 -26 47 -26q45 0 72.5 20.5t27.5 52.5z
" />
    <glyph glyph-name="semicolon" unicode=";" horiz-adv-x="236" 
d="M202 310q0 18 -7.5 33.5t-20.5 27t-29 18t-34 6.5q-31 0 -56 -36q-21 -30 -21 -49q0 -20 21 -47t47 -27q45 0 72.5 21t27.5 53zM202 74q0 18 -7.5 33.5t-20.5 27t-29 18t-34 6.5q-31 0 -56 -36q-21 -30 -21 -49q0 -22 20 -48q23 -30 48 -26q8 2 8 -2q0 -6 -26 -41
q-25 -34 -25 -47t20 -11q63 4 96 93q27 72 27 82z" />
    <glyph glyph-name="less" unicode="&#x3c;" horiz-adv-x="1038" 
d="M445 449q0 23 -2 29q-4 10 -27 10q-21 0 -36 -8.5t-28 -8.5l-9 1.5t-28 3.5t-31 3.5t-19 1.5q-128 0 -205 -104q-58 -80 -58 -162q0 -90 74 -164q74 -73 177 -73q16 0 30 4t26 8.5t21.5 8.5t15.5 4q7 0 27 -11q22 -11 24 -11q18 0 30 13t12 31v81q0 19 -6.5 32t-12.5 13
q-30 1 -57 -51q-26 -53 -56 -53q-56 0 -99 69q-39 61 -39 125q0 50 9 103q14 80 101 80q35 0 62 -24q6 -5 15 -17l22 -29q16 -24 29 -24q38 0 38 119zM1028 14q0 21 -20 36q-23 16 -31 35q-14 37 -14 192q0 121 -75 171q-41 27 -78 27q-51 0 -105 -24q-53 -24 -45 -24
q-18 0 -30 62q-9 46 -9 77v89q0 27 -8 53q-9 30 -26 30q-7 0 -85 -38q-79 -39 -79 -48q0 -12 5 -18t12.5 -9t16 -4.5t16.5 -2.5q18 -8 18 -40q0 -4 -1 -12.5t-3 -21.5q-5 -26 -3 -42l14 -193v-77l10 -134q-11 -37 -23 -45q-9 -2 -17.5 -5t-9.5 -24q-1 -34 43 -34q16 0 36 4
q12 2 21 3t14 1q23 0 43 -2t39 -6q8 -2 11 -2q20 0 20 33q0 8 -13 25q-16 24 -23 55q-13 51 -13 144q0 134 111 134q82 0 82 -169v-132q0 -15 -20 -33q-19 -17 -17 -27q4 -22 21 -22q6 0 11 3q16 -6 31 -6q6 0 15.5 1.5t20 3l21 3t18.5 1.5q61 -4 76 -9q22 0 22 21z" />
    <glyph glyph-name="equal" unicode="=" horiz-adv-x="464" 
d="M440 198q9 68 -68 68q-6 0 -16 -1.5l-20.5 -3t-19.5 -2.5t-14 -1q-9 0 -24 4.5t-23 4.5q-6 0 -15.5 -2.5t-19.5 -6t-19.5 -6t-16.5 -2.5q-9 0 -19.5 3l-21 6t-20 6t-16.5 3q-19 0 -43 -10q-35 -15 -40 -44q-3 -24 13 -43.5t39 -20.5q35 -2 54 5.5t27 7.5q7 0 15.5 -1.5
l19.5 -3.5q32 -3 55 -4t37 0q7 0 17.5 -2.5t21 -4.5t20 -4t15.5 -2q11 0 26 5q52 21 56 52zM440 378q9 68 -68 68q-6 0 -16 -1.5l-20.5 -3t-19.5 -2.5t-14 -1q-9 0 -24 4.5t-23 4.5q-6 0 -15.5 -2.5t-19.5 -6t-19.5 -6t-16.5 -2.5q-9 0 -19.5 3l-21 6t-20 6t-16.5 3
q-19 0 -43 -10q-35 -15 -40 -44q-3 -24 13 -43.5t39 -20.5q35 -2 54 5.5t27 7.5q7 0 15.5 -1.5l19.5 -3.5q32 -3 55 -4t37 0q7 0 17.5 -2.5t21 -4.5t20 -4t15.5 -2q11 0 26 5q52 21 56 52z" />
    <glyph glyph-name="greater" unicode="&#x3e;" horiz-adv-x="1041" 
d="M445 449q0 23 -2 29q-4 10 -27 10q-21 0 -36 -8.5t-28 -8.5l-9 1.5t-28 3.5t-31 3.5t-19 1.5q-128 0 -205 -104q-58 -80 -58 -162q0 -90 74 -164q74 -73 177 -73q16 0 30 4t26 8.5t21.5 8.5t15.5 4q7 0 27 -11q22 -11 24 -11q18 0 30 13t12 31v81q0 19 -6.5 32t-12.5 13
q-30 1 -57 -51q-26 -53 -56 -53q-56 0 -99 69q-39 61 -39 125q0 50 9 103q14 80 101 80q35 0 62 -24q6 -5 15 -17l22 -29q16 -24 29 -24q38 0 38 119zM1033 28q1 21 -28 44q-4 2 -16 9.5t-33 18.5q-23 13 -57 56q-7 9 -14 19l-14 21l-26 25l-26 25q-20 16 -18 42q1 36 85 91
q85 55 86 77q1 13 -14 28q-13 16 -21 13q-31 -16 -109 -36q-55 -15 -56 -28q0 -4 1.5 -10.5t3.5 -13l3.5 -11.5t1.5 -6q0 -9 -49 -54q-50 -44 -59 -44q-32 0 -26 63q-13 61 -13 167v44v43q0 68 -8 98q-11 39 -39 39q-18 0 -83 -28q-69 -29 -69 -42q-1 -25 34 -39
q36 -14 34 -40l-3 -70q-2 -24 9 -29q-3 -106 -4 -108q-1 -27 -1.5 -51.5t-0.5 -47.5q0 -35 1.5 -64.5t3.5 -54.5l3 -35t1 -14q-2 -38 -19 -57q-3 -3 -34 -23q-17 -12 -18 -31q-2 -27 31 -27q22 0 36 7q16 6 56 6q36 0 59 -5t33 -5q54 0 55 31q1 18 -14 38l-18.5 24t-9.5 15
q-15 30 -13 79q1 19 11 19q21 0 67 -55t45 -82q-1 -10 -1 -17v-11q0 -38 46 -38h163q20 0 32 10.5t13 24.5z" />
    <glyph glyph-name="question" unicode="?" horiz-adv-x="440" 
d="M420 573q1 52 -54 105q-61 55 -134 56q-92 3 -160 -56q-56 -49 -58 -100q0 -2 -1.5 -10.5t-1.5 -13.5q0 -30 44 -47q24 -8 43 -8q54 0 65 50l2 27t3 27q4 28 29 35q8 2 13 2q29 0 50 -33q18 -29 17 -50q-1 -25 -19.5 -40.5l-36.5 -30.5q-36 -36 -47 -91q-6 -33 -6 -100
q0 -71 43 -81q3 -1 8 -1q16 0 23 25q4 14 7 29t7 29q13 37 42 60q117 91 122 217zM305 70q0 18 -7 33.5t-20 27t-29 18t-34 6.5q-32 0 -57 -37q-21 -29 -21 -48q-1 -20 19 -50q21 -31 47 -31q45 0 73 24t29 57z" />
    <glyph glyph-name="at" unicode="@" horiz-adv-x="800" 
d="M155 279l1 8q-3 16 -3 27q3 26 5 45t3 32q2 13 4.5 26.5t12.5 18.5q23 23 18 55q-1 3 -1 7t4 10.5l8.5 13.5l9 13.5t5.5 11.5q7 15 16 23l4 3q7 6 9 14l31 31q21 11 57 16q34 4 47 17q38 8 68 8q45 0 52 -19q34 -4 46 -9q6 -8 22 -15q4 -10 19 -17q6 -2 6.5 -3.5
t1.5 -9.5q9 -1 13 -4.5t7 -9l6.5 -12t10.5 -12.5l3 -3q4 -3 5.5 -8t4.5 -24q3 -16 10 -24q0 -5 5 -13l2 -4q5 -8 6 -13q-1 -3 -1 -8q0 -7 6 -18.5t6 -19.5q0 -7 -1 -10q4 -5 2.5 -11.5t1.5 -11.5q-5 -17 -9 -32.5t-8 -28.5q-10 -28 -20 -44q0 -4 -7 -14.5t-8 -13.5
q-18 -28 -40 -24h1q-5 2 -2 6q-9 25 -9 37q-3 32 -2 46q10 19 10 41q0 7 11 37q8 47 6 70l3 3l3 5q4 4 8.5 9.5t4.5 12.5q0 -3 -7 24q-9 9 -21 9h-21q-19 3 -36 -26l-2 -3q-15 12 -19 12q-7 9 -20 13.5l-25 8.5q-5 -1 -16 -1t-30 -1q-27 -2 -45 -9q-5 -8 -8 -9l-4 -3
q-5 -4 -9.5 -7t-7.5 -7q-52 -23 -84 -101q0 -9 -6 -22q-4 -8 -6 -14t-3 -8q-7 -11 -8 -36q-1 -12 -3.5 -22t-6.5 -18q5 -8 5 -10q1 -4 0 -13t0 -14q1 -7 6 -13q8 -17 11 -28.5t15 -18.5q18 -10 20 -12q16 -13 43 -13q36 -2 45 -3q10 -5 23.5 1.5t23.5 7.5q8 9 14 14.5t9 7.5
l5 2q6 6 8 9q6 2 11 12l2 2q1 -6 16 -12q4 -1 4 -7q23 -34 78 -38q6 -2 15 1t16 6q5 9 26 14t31 19q0 3 8.5 6.5t10.5 12.5q21 27 28 50q9 9 16 26q2 4 4 12t6 19q7 22 9 35q7 34 9 53q-4 7 -3 22t-4 24q0 8 -3 16l-2 5q-5 13 -4 29q-12 7 -13 16q-4 15 -8.5 20t-4.5 14
q0 19 -6 30q-6 2 -10 13t-11 15q-3 8 -11 15q-4 9 -13 13l-5 3q-8 5 -8 18q-15 2 -20 8l-3 3q-7 6 -14 11q-28 22 -47 23q-7 8 -18 11q-1 0 -22 3q-8 1 -21.5 8t-22.5 7q-6 0 -13 -3q-16 4 -53 -2q-14 -2 -47 -9q-16 -4 -28.5 -6t-21.5 -1q-7 -6 -32 -12q-19 -4 -30 -17
l-18 -7q-3 -5 -9 -7.5t-13 -5t-13.5 -5.5t-9.5 -7q-52 -24 -82 -75q-1 -4 -5 -10l-8.5 -12.5t-8.5 -13.5t-5 -13q-2 -11 -16 -33q-15 -21 -15 -37q0 -3 0.5 -6t1.5 -7q-5 -17 -9.5 -30t-7.5 -23q7 -3 6 -6l-4 -12t-3 -18q5 -19 4 -26q0 -18 4 -25q1 -3 1 -19q1 -9 6 -20
q4 -4 4 -9q2 -27 7 -38q2 -9 5 -13l3 -4q3 -4 1 -13q7 -4 8 -8q4 -19 16 -26q7 -5 13 -26q6 -19 20 -27q2 -6 8.5 -10.5t6.5 -7.5q3 -9 9 -12.5t16 -6.5l3 -1q22 -19 35 -25l17 -8.5t12 -13.5q6 -1 49 -15q28 -10 49 -12q6 0 14.5 -1.5t18 -3.5t19 -3.5t15.5 -1.5q4 4 11 3
q17 -6 27 1q45 6 56 2q26 -2 53 12q36 17 48 20q4 4 20 12q13 6 20 21q-2 4 0 12t-1 15q-17 12 -31 12q-23 -17 -24 -18q-45 -16 -64 -25q-39 0 -68.5 -1t-49.5 -3q-28 1 -58.5 8t-62.5 21q-1 3 -8 10.5t-8 14.5q-10 5 -12 8l-2 4q-8 11 -16 15q-7 12 -12.5 20.5t-10.5 13.5
q0 8 -9 17t-11 15q1 10 -10 23q-11 15 -10 29q-10 5 -11 16t-1 22l-4 6zM491 448q21 -29 21 -38q0 -6 -4.5 -18t-4.5 -21q0 -25 -17 -42q-4 -9 -6 -29q-1 -19 -7 -23q-6 -3 -10.5 -11t-9.5 -10q-8 -16 -22.5 -26t-29.5 -19q-15 -3 -24 6q-19 0 -23 4q-2 1 -3.5 10.5
t-7.5 14.5q-2 11 -3 18t-2 11v39q0 24 16 34q0 16 8.5 31l16.5 29l17 22.5t11 16.5q5 4 9.5 6.5t6.5 4.5q11 8 22 8q17 0 46 -18z" />
    <glyph glyph-name="A" unicode="A" horiz-adv-x="761" 
d="M785 9q0 25 -34 43q-40 22 -56 52l-115 306l-29 120l-29 120q-21 74 -61 74h-83q-22 0 -42 -32q-11 -20 -35 -74.5t-59 -142.5q-4 -5 -8 -11t-8 -11q-16 -24 -25 -52l-65 -160t-48 -110q-11 -25 -48 -44q-32 -17 -32 -45q0 -43 50 -43q42 0 71 8q-1 0 14 -4t42 -4
q32 0 52 15.5t20 36.5q0 22 -27 42q-27 19 -27 47q0 41 18 85q28 69 89 69h95q27 1 44.5 -18t34.5 -71l24 -61.5t16 -36.5q3 -8 3 -15q0 -16 -27 -35q-27 -18 -27 -36q0 -31 36 -31q20 0 59 9l139 -18q31 0 54.5 9t23.5 19zM420 401q-3 -21 -83 -21q-42 0 -42 15q0 13 22 72
q24 67 40 77q6 -6 34 -60q32 -62 29 -83z" />
    <glyph glyph-name="B" unicode="B" horiz-adv-x="656" 
d="M647 205q0 48 -30 84q-10 12 -55 49q-30 24 -30 44q0 12 25 53q26 44 26 86q0 95 -78 148q-71 47 -174 47h-100q-88 0 -127.5 4.5t-37.5 4.5q-21 0 -38 -15t-17 -27q0 -20 30 -35q31 -15 31 -39v-88q0 -1 -9 -53q-9 -51 -9 -56l10 -149v-158q0 -22 -28 -44
q-27 -21 -27 -38q0 -20 20 -31q16 -10 40 -10l113 15q85 -6 134 -6q27 0 63.5 1t84.5 3q81 1 132 62t51 148zM395 525q0 -61 -18 -89q-23 -33 -73 -33q-63 0 -63 49q0 4 0.5 7t1.5 7q9 37 6 126q0 10 13 24q16 18 42 18q91 -31 91 -109zM443 181q1 -5 1.5 -10t0.5 -10
q0 -45 -46 -72q-37 -21 -66 -19q-79 6 -82 7q-23 11 -23 64q0 110 7 131q13 43 72 45q53 1 96 -55q31 -40 40 -81z" />
    <glyph glyph-name="C" unicode="C" horiz-adv-x="742" 
d="M729 546q0 14 -38 58q-14 16 -25.5 27.5t-19.5 18.5l-9 10l-27 30q-24 27 -37 27t-28 -7.5t-20 -7.5q-9 0 -74 16q-68 17 -111 17q-17 0 -41 -6t-22 -6q-28 0 -68 -30q-11 -8 -21.5 -17t-21.5 -17q-160 -85 -160 -338q0 -148 129 -251q124 -99 290 -99q112 0 190 54
q57 40 88 102q22 41 22 57t-11 28t-22 12q-34 0 -62 -37q-45 -60 -57 -70q-43 -37 -114 -37q-117 0 -187 76q-69 77 -65 207q5 126 35 183q48 86 171 86q56 0 109 -30q5 -2 83 -57q43 -30 75 -30q49 0 49 31z" />
    <glyph glyph-name="D" unicode="D" horiz-adv-x="744" 
d="M734 334v84q0 35 -29 88q-11 20 -22.5 37t-23.5 31q-45 53 -112 93q-91 55 -187 55q-87 -21 -109 -21q-21 0 -79 9q-56 10 -70 10q-33 0 -57.5 -11.5t-24.5 -22.5q0 -17 18 -27q14 -10 22.5 -15.5t10.5 -7.5q18 -20 18 -53q0 -57 -18 -97q2 -84 0 -218q0 -13 -1.5 -36.5
t-5.5 -58.5q-7 -73 -12 -79q-8 -11 -32 -18q-18 -6 -18 -26q0 -23 22 -36t50 -13h65q15 0 32 -4.5t21 -4.5h72q11 0 25 -1t31 -3q18 -2 29.5 -3.5t16.5 -1.5q133 0 243 91q125 104 125 260zM519 452q0 -9 -6 -43q-6 -35 -6 -41q0 -1 1 -9t3 -22t3.5 -28t1.5 -28v-66
q0 -79 -55 -121q-46 -37 -120 -37q-41 0 -67 35q-23 32 -23 77q0 30 4.5 55t4.5 26v118q0 3 1.5 8.5t3.5 11.5t3.5 11t1.5 7q1 48 -3.5 89.5t-4.5 62.5q0 40 13 53q23 23 94 23q63 0 107 -56q43 -55 43 -126z" />
    <glyph glyph-name="E" unicode="E" horiz-adv-x="716" 
d="M726 157q0 25 -30 25q-29 0 -70 -31q-60 -43 -90 -56q-66 -31 -158 -31q-75 0 -103 24q-31 25 -31 100q0 9 2 19.5t2 23.5v68q4 30 24 30q24 0 29 -24l6 -23.5t5 -22.5q10 -25 43 -25q9 0 18 5.5t16 14t11.5 19t4.5 20.5q0 9 -10 36v71q0 18 6 50q6 31 6 42q0 33 -40 33
q-39 0 -39 -58v-18q0 -8 -8.5 -21t-16.5 -13q-55 0 -55 126q0 42 20.5 58t71.5 16q82 0 149 -32q17 -8 39.5 -22.5t50.5 -36.5q43 -32 65 -32q14 0 23.5 12t9.5 28q0 20 -30 58q-22 26 -34 42.5t-16 21.5l-30 57q-20 35 -34 35t-42 -24q-27 -24 -72 -21l-168 13l-95 -4
q1 0 -27 6q-27 6 -44 6q-70 0 -70 -43q0 -28 18 -41q31 -21 34 -24q18 -23 18 -70v-86q-1 -25 -3.5 -51t-7.5 -55q-10 -53 -10 -63l15 -160q0 -32 -19 -51q-2 -2 -10.5 -8.5t-24.5 -17.5q-19 -12 -19 -29q0 -32 49 -31l235 4q48 1 90 -1.5t80 -9.5q52 -9 94 -24l28 -10.5
l9 -3.5q27 0 38 30q16 45 24 55q73 83 73 125z" />
    <glyph glyph-name="F" unicode="F" horiz-adv-x="744" 
d="M755 526q0 23 -24 47q-38 36 -63 81q-38 69 -51 84q-9 12 -22 12q3 0 -37 -14q-38 -14 -94 -12q-8 0 -19.5 -8.5t-22.5 -9.5l-278 25q-17 -2 -35 -3.5t-36 -3.5q-41 -11 -41 -47q0 -28 19 -32l19.5 -4l19.5 -4q24 -10 34 -50l-22 -128q0 -8 8 -51t8 -48l-16 -106l13 -131
q0 -41 -21 -57q-2 -1 -11.5 -5l-26.5 -11q-21 -8 -21 -29q0 -23 12 -27q8 -4 45 -4h68q12 0 27 -2t31 -4.5t30.5 -4.5t26.5 -2q105 0 105 47q0 16 -24 30q-16 8 -26.5 17.5t-17.5 19.5q-24 37 -24 112q0 122 32 122q24 0 30 -20q7 -20 12 -39q10 -21 41 -21q30 0 38 14
q3 6 3 31v99q0 23 6.5 48.5t6.5 44.5q0 41 -35 41q-33 0 -44 -29q-2 -14 -4.5 -27.5t-4.5 -27.5q-4 -28 -24 -28q-44 0 -51 135q0 44 67 72q52 20 96 20q46 0 96 -37l41 -35l41 -35q44 -37 75 -37q45 0 45 32z" />
    <glyph glyph-name="G" unicode="G" horiz-adv-x="772" 
d="M790 292q0 47 -54 47q-10 0 -77 -9h-65l-125 12q-44 0 -44 -25q0 -32 48 -56q49 -22 49 -59q0 -58 -14 -86q-26 -48 -99 -48q-94 0 -146 91q-43 73 -43 174v90q0 60 55 127q69 85 172 85q55 0 108 -29q21 -11 77 -54q40 -29 61 -29q37 0 37 25q0 19 -45 88q-49 76 -80 76
q-18 0 -34 -13q-17 -12 -24 -12q-16 0 -64 20q-47 21 -89 21q-136 0 -252 -85q-41 -29 -69 -81q-68 -119 -68 -235q0 -110 71 -198q59 -71 152 -114q79 -36 138 -36h84q43 0 99 35q58 35 78 35q6 0 13.5 -2.5l15.5 -5t15 -5t10 -2.5q35 0 35 22q0 5 -2 14.5t-2 13.5v71
q0 61 20 83q6 6 38 18q20 8 20 36z" />
    <glyph glyph-name="H" unicode="H" horiz-adv-x="767" 
d="M751 27q2 29 -17 38q-30 14 -37 24q-20 28 -25 102l10 108l4 114q2 15 -6 59q-3 23 -4.5 44.5t-0.5 42.5q1 40 21 60l35 23q18 13 20 36q2 47 -64 47q-16 0 -35.5 -6.5t-35.5 -6.5l-133 13q-28 0 -44 -18q-11 -13 -13 -29q-1 -34 21 -47q11 -7 21.5 -13l21.5 -12
q22 -21 21 -72q-1 -40 -48 -40h-55q-23 0 -48.5 -6t-60.5 -6q-38 0 -54 33q-12 25 -11 50q1 45 27 69t26 38q1 19 -14 32.5t-40 13.5q-10 0 -26 -4.5t-30 -4.5q-15 0 -30 2t-29 4.5l-25.5 4.5t-17.5 2q-63 0 -65 -35q-2 -23 36 -58t36 -67l-5 -142l10 -269q0 -1 -1.5 -8
t-3.5 -21q-5 -23 -13 -33q-8 -5 -15 -10.5l-14 -10.5q-18 -13 -20 -41q-2 -36 55 -36q10 0 23 1.5t25 4t21.5 4t14.5 1.5q16 0 43 -7t34 -7q86 0 88 42q1 28 -20 36q-30 11 -38 23q-20 29 -17 108q2 35 0 70q0 12 -0.5 24t-1.5 22t-1.5 15.5t-0.5 4.5q0 53 54 53h102
q3 0 10 1t16 2.5t19 3t18 1.5q48 0 47 -45q-2 -45 -2.5 -76t-1.5 -51q-1 -11 1 -25t6 -31t6 -30.5t1 -24.5q-1 -31 -38 -50q-36 -20 -36 -34q-1 -18 10 -31.5t29 -13.5q11 0 38 10q29 10 55 10q16 0 58 -14h69q7 0 15 4.5t15 10.5t11 12.5t4 11.5z" />
    <glyph glyph-name="I" unicode="I" horiz-adv-x="364" 
d="M347 18q1 33 -34 44q-38 12 -46 35l-16 115l8 110l-16 251q12 44 31 60q-1 0 29 14q12 7 13 29q0 9 -5.5 17.5t-14.5 15t-20 10.5t-23 4q-20 -4 -41.5 -6t-45.5 -2q-53 0 -99 10q-4 1 -12 1q-15 0 -28 -11t-14 -26q-2 -20 36 -45q38 -26 37 -43l-4 -108q0 -3 4 -18.5
t3 -38.5q-3 -96 -4.5 -150t-2.5 -68q7 -50 15 -94q-1 -39 -38 -52t-38 -44q-2 -41 37 -42q12 0 41.5 7.5t75.5 6.5q85 -11 114 -18q32 -1 49 17q9 9 9 19z" />
    <glyph glyph-name="J" unicode="J" horiz-adv-x="432" 
d="M400 686q0 49 -36 49q-28 0 -112 -22q-11 0 -39 9q-27 10 -46 10t-33.5 -12t-14.5 -30q0 -26 31 -36q35 -14 42 -26q8 -18 10 -43q-1 20 -1 10v-49q0 -5 -0.5 -19t-1.5 -38q-1 -14 -0.5 -51.5t2.5 -99.5q5 -76 10 -130t9 -88q-5 -23 -5 -40q0 -11 2.5 -29.5t2.5 -27.5
q0 -75 -32 -75q-14 0 -25.5 11t-11.5 19q0 9 7 27q8 21 8 26q0 26 -21.5 46.5t-56.5 20.5q-19 0 -35 -8.5t-27.5 -23t-18 -33.5t-6.5 -40q0 -48 49 -91q37 -33 51 -33h109q60 0 119 80q52 73 52 133q0 22 -6 60q-2 19 -3.5 30.5t-1.5 16.5v173l-2 25t-3 25q-2 25 -3 42.5
t-1 28.5q0 60 -7.5 89.5t-7.5 28.5q0 33 27 50q27 18 27 35z" />
    <glyph glyph-name="K" unicode="K" horiz-adv-x="848" 
d="M831 9q1 24 -39 49q-30 19 -51.5 36t-35.5 31q-4 4 -10 14l-16 27l-46 80l-63 106l-24 28.5l-23 28.5q-36 44 -35 66q2 21 76 91l35 30.5l41 35.5q12 4 24 7.5l25 7.5q41 17 42 43q1 34 -30 34q-12 0 -23 -4q-30 1 -99 0q-19 0 -32.5 1.5t-23.5 3.5q-4 1 -7 1.5t-7 0.5
q-18 0 -29.5 -11.5t-11.5 -25.5q0 -6 3 -13.5t7 -15.5t6.5 -17t2.5 -18q-2 -39 -101 -112q-41 -32 -99 -66q-11 1 -21 75q-5 31 -9 75q2 23 36 47q36 25 37 46q1 31 -30 33q-1 0 -40 -11q-36 -11 -59 -9q-36 2 -70 10q-35 9 -50 9q-12 0 -23.5 -3t-20.5 -8.5t-15 -13
t-6 -16.5q-1 -21 23 -32q37 -15 45 -25q24 -26 23 -82q-1 -106 -6 -247q2 -102 6 -112l-3 -79q-2 -26 -37 -48q-35 -23 -36 -42q-1 -30 43 -32q8 0 20 3l26.5 6.5t31 6t34.5 2.5q6 -1 19.5 -2.5t35.5 -5.5q43 -8 78 -9q37 -1 39 35q1 28 -18 38t-38 19q-20 14 -19 48
q1 26 -1.5 66t-9.5 96q1 22 18 39t25 17q32 -2 72 -52l48 -69l31 -37l29 -36q29 -36 28 -68q-2 -26 -18 -36t-17 -26t13.5 -25t32.5 -10q10 0 51 6q20 3 36 4.5t28 0.5q43 -1 61 -8q7 -3 9 -6q61 -3 73 -3q37 0 39 32z" />
    <glyph glyph-name="L" unicode="L" horiz-adv-x="700" 
d="M690 197q0 35 -29 38q-14 1 -58 -37q-31 -28 -53.5 -46t-36.5 -28q-59 -40 -116 -40h-79q-38 0 -62 46q-20 38 -20 80q0 2 2 23.5t2 54.5q0 24 -1 55.5t-3 70.5q-10 125 -18 185q-2 43 27 54t29 37q0 35 -40 35q-41 0 -61 -10q-3 0 -12.5 1.5l-22 3.5t-27.5 3.5t-29 1.5
q-82 0 -82 -51q0 -11 33 -30q33 -20 33 -40q6 -324 6 -330q0 -5 -6 -27q-6 -21 -6 -24q0 -15 4 -29.5t8.5 -28.5t8.5 -28t4 -28q0 -34 -32 -48q-31 -12 -31 -31q0 -42 70 -42q27 0 63 3.5t81 10.5h218q34 0 55 -18q20 -19 49 -19q26 0 44 31q5 10 13 30t18 51q6 19 34 62
q23 37 23 58z" />
    <glyph glyph-name="M" unicode="M" horiz-adv-x="1008" 
d="M1012 20q0 27 -21 39l-19.5 12t-19.5 11q-21 18 -21 54l13 122q0 14 -4.5 50.5t-14.5 96.5q0 32 -10 38v122q0 37 42 69q43 31 43 54q0 30 -31 34l-110 -12l-60 12q-67 0 -113 -138l-56.5 -115.5l-52.5 -103.5q-4 -12 -7 -24t-7 -24q-10 -34 -24 -34q-20 0 -60 82
l-94.5 185.5t-33.5 65.5l-12 36t-13 35q-12 35 -54 35q-60 -8 -69 -9l-116 9q-12 1 -24.5 -3t-22.5 -11t-16 -16.5t-6 -19.5q0 -12 38 -36q38 -23 38 -42v-123q0 -8 -5 -33q-2 -11 -3.5 -18t-1.5 -11v-129l10 -53v-119q0 -22 -36 -41q-36 -18 -36 -47q0 -23 6.5 -28.5
t30.5 -5.5h188q12 0 23.5 11t11.5 26q0 26 -24 40q-45 27 -46 28q-24 22 -24 67q0 38 4 43q5 54 7.5 96t2.5 72q0 31 -3 55t-3 31q0 40 17 40q18 0 31 -52q8 -34 13 -52t6 -20l141 -257q29 -131 79 -131q23 0 52 65q10 22 17 43.5t12 41.5q12 50 73 156l27.5 47.5t31.5 50.5
q27 99 45 99q20 0 19 -222l6 -71.5t2 -28.5q0 -71 -19 -97q-7 -11 -34 -22q-19 -7 -19 -28q0 -18 14 -24q9 -4 39 -4h220q43 0 43 31z" />
    <glyph glyph-name="N" unicode="N" horiz-adv-x="780" 
d="M780 665q0 54 -46 54q-15 0 -36.5 -4t-40.5 -4q-18 0 -33 4t-33 4q-74 0 -74 -59q0 -32 19 -39q10 -4 19.5 -7l18.5 -6q20 -11 20 -48t-6 -91t-6 -48q0 -24 6 -52q6 -29 6 -25q0 -6 -12 -19q-9 4 -128 150l-117 144q-10 17 -19 34.5t-19 34.5q-20 27 -48 27
q-9 0 -23.5 -4t-36.5 -4q-43 0 -101 15q-22 0 -42 -13t-20 -34q0 -18 31 -43t31 -53v-443q0 -44 -21 -57l-20 -8l-20 -8q-20 -8 -20 -35q0 -40 50 -40q5 0 25.5 6t45.5 6q13 0 27 -2.5l27 -5t23 -5t16 -2.5q21 0 46 17q25 16 25 44q0 22 -21 25q-30 3 -39 12q-21 19 -21 87
v81q0 12 -1.5 25l-3 25t-3 21.5t-1.5 14.5q0 20 8 50t8 43q0 2 -0.5 6t-1.5 11q-1 10 0 14q1 6 11 6q8 0 22 -15l33 -42l32 -42q55 -72 84 -127q10 -20 44.5 -63.5t94.5 -112.5l25.5 -30l25.5 -31q31 -31 54 -31q30 0 44 27q9 16 18 68l-10 68q7 43 10 46v155q0 1 -5 28.5
t-5 61.5v161q0 29 42 41t42 36z" />
    <glyph glyph-name="O" unicode="O" horiz-adv-x="717" 
d="M718 392q0 134 -104 235q-109 104 -260 104q-135 0 -220 -75q-69 -60 -99 -162l-8 -19.5l-8 -19.5q-12 -35 -12 -60v-113q0 -36 30 -91q33 -59 77 -93q13 -11 25.5 -23t25.5 -23q18 -16 37.5 -27.5t39.5 -19.5q58 -21 140 -21q77 0 169 54q43 25 72.5 51.5t46.5 54.5
q10 16 10 41q2 33 7 52q31 102 31 155zM566 231q0 -158 -158 -158q-35 0 -70 32q-33 32 -100 126q-13 17 -44 104q-38 105 -38 151q0 65 51 113q48 45 107 45q43 0 96 -53q55 -57 105 -156q26 -51 36 -94q7 -29 15 -36v-74z" />
    <glyph glyph-name="P" unicode="P" horiz-adv-x="640" 
d="M644 434q6 123 -104 210q-104 83 -242 83l-84 -9q-84 -9 -97 -9q-12 0 -24.5 2t-22 4t-15 4t-3.5 2q-46 0 -46 -27q0 -17 18 -32q14 -11 22.5 -19t12.5 -13q18 -24 18 -65v-225q0 -39 9 -70v-142q0 -36 -19 -59q-5 -6 -13.5 -13.5t-21.5 -16.5q-19 -13 -19 -21
q0 -33 52 -33q9 0 22.5 2.5t30 5t35.5 5t37 2.5t47 -7q16 -4 25 -6t12 -2q43 0 43 39q0 19 -19 32q-26 19 -37 36q-19 34 -19 98q0 14 17 33q18 19 36 19q16 0 33 -15q18 -14 26 -13q65 4 105 29l77 57l75 55q30 29 33 79zM439 438q0 -54 -35 -86q-32 -27 -75 -27
q-68 0 -78 64q-1 26 -1 51t-1 50q-1 3 -2.5 10.5t-4.5 19.5q-5 22 -5 45q0 70 58 70q72 0 111 -61q33 -53 33 -136z" />
    <glyph glyph-name="Q" unicode="Q" horiz-adv-x="732" 
d="M767 -58q0 50 -42 50q-23 0 -57 -18q-34 -19 -58 -19q-47 0 -101 51q0 4 42 31q44 29 51 41q58 92 69 119q26 58 26 126v59q0 92 -44 153l-44 47l-44 47q-86 99 -237 99q-81 0 -135 -36l-28 -23l-28 -23q-42 -23 -74 -64q-35 -44 -35 -82q0 -9 -15 -78q-15 -68 -15 -96
q0 -81 53 -167q36 -60 69 -83q102 -74 102 -76q0 -6 -17 -20q-17 -15 -17 -38q0 -19 2 -25q4 -9 23 -9q23 0 51 17t53 17q50 0 114 -52t94 -54l111 -4q52 -2 94 40q37 37 37 70zM548 233q0 -53 -40 -100q-42 -52 -95 -52q-44 0 -96 45q-84 73 -157 245q-4 8 -5.5 16t-2.5 16
q-3 34 -4 35v68q0 43 25 77q38 53 122 50q42 -2 76 -42q2 -2 15 -22l38 -58q17 -26 28 -31q9 -4 16 -18l17 -41.5t29 -77.5l21 -51q13 -30 13 -59z" />
    <glyph glyph-name="R" unicode="R" horiz-adv-x="760" 
d="M764 50q1 28 -23 33l-65 14q-33 13 -94 74q-59 62 -59 83q0 28 32 51q51 37 58 45q32 35 32 93q0 125 -110 211q-104 78 -237 78q-6 0 -40 -9q-17 -4 -30 -6t-23 -2q-17 0 -33.5 -1t-30.5 -1.5t-23.5 -1.5t-12.5 -1q-25 0 -38.5 4.5t-27.5 4.5q-37 0 -37 -25
q0 -21 18 -33q27 -17 35 -29q18 -29 18 -91v-238q0 -3 3.5 -8t3.5 -8v-137q0 -46 -19 -74q-10 -16 -34 -32q-19 -12 -19 -20q0 -34 51 -34q21 0 53.5 7t67.5 7q13 0 27.5 -2t26.5 -5t21 -5t12 -2q21 0 32.5 11.5t11.5 26.5q0 18 -18 29q-24 13 -33 29q-18 30 -18 95
q0 66 50 64q38 -2 95 -74l74 -93t35 -41q73 -71 146 -71q47 0 87 32q33 26 35 52zM436 412q0 -23 -25 -49q-33 -38 -88 -38q-84 0 -84 87q6 52 6 57q0 10 -8 47q-8 38 -8 56q0 25 18 45t45 20q66 0 108 -56q36 -48 36 -100v-69z" />
    <glyph glyph-name="S" unicode="S" horiz-adv-x="652" 
d="M636 228q0 139 -289 224q-145 43 -145 106q0 37 37 59q34 21 75 21q56 0 138 -55q83 -55 107 -55q26 0 26 27q0 23 -28 54q-9 10 -18 19t-18 19q-51 79 -59 79t-27 -15q-20 -14 -33 -14q-16 0 -56 10t-64 10q-113 0 -182 -73q-57 -60 -57 -121q0 -51 47 -113
q55 -73 142 -105l45 -15l45 -14q64 -23 99 -48q47 -35 47 -80q0 -16 -8 -29t-21.5 -22t-30.5 -14t-35 -5h-64q-51 0 -111 39q-26 16 -92 72q-47 39 -66 39q-35 0 -35 -27q0 -25 29 -69q8 -13 17 -25.5l18 -25.5l10.5 -30t10.5 -31q13 -36 36 -36q13 0 30 20q16 21 43 21
q15 0 59 -18q45 -18 98 -18h14t15 1q99 7 143 41l39 38l39 38q30 22 30 121z" />
    <glyph glyph-name="T" unicode="T" horiz-adv-x="740" 
d="M747 557q0 21 -78 105l-20 30l-20 30q-15 21 -30 21q5 0 -55 -17q-59 -17 -100 -17q-98 0 -218 -3q-36 0 -52 12q-17 12 -29 12q-33 0 -45 -33l-11.5 -32l-10.5 -32q-10 -23 -40 -69q-23 -38 -23 -51q0 -20 22 -27q20 0 91 72q70 72 104 72q17 0 37 -20t20 -34v-63
q0 -58 9 -94l-16 -169q5 -51 9 -85.5t6 -54.5q0 -29 -17 -43q-4 -4 -31 -17q-17 -8 -17 -23q0 -24 8.5 -33t32.5 -9q11 0 24 0.5t29 1.5t25 1.5t13 0.5h90q4 0 12 -1t16.5 -1.5t16.5 -1.5t12 -1q36 0 36 31q0 27 -21 35q-10 5 -19.5 8.5l-19.5 7.5q-21 15 -21 54
q0 91 -7.5 139l-7.5 48q0 -2 2.5 12.5t5.5 42.5t5.5 69t2.5 93q0 7 -1 23t-1 25q0 60 50 60q26 0 105 -53t97 -53q14 0 22 10t8 21z" />
    <glyph glyph-name="U" unicode="U" horiz-adv-x="752" 
d="M748 698q0 24 -10 30t-36 6q-13 0 -41 -7.5t-81 -7.5q-8 0 -17.5 0.5t-18.5 1.5t-16 1.5t-10 0.5q-45 0 -45 -40q0 -27 17 -41q7 -6 36 -17q23 -7 31 -18q15 -20 15 -46q0 -7 -1 -19.5t-1 -18.5v-148q0 -13 1.5 -32t5.5 -44t6 -40.5t2 -22.5q0 -69 -36 -109
q-41 -45 -119 -45q-138 0 -175 178q-10 46 -10 340q-2 29 37 40q39 12 39 43q0 39 -49 39q-16 0 -47 -9q-34 -8 -54 -8q-4 0 -13.5 1t-25.5 3t-29 3t-23 1q-69 0 -69 -36q0 -12 5.5 -21.5t14 -17.5t19 -15.5l19.5 -14.5q20 -22 20 -58v-326q0 -92 94 -174q88 -76 163 -76
q9 0 25 2t29 2q126 0 203 52q91 61 91 182v94q0 79 -19 123v136q0 44 19 66q1 1 9.5 7.5l25.5 20.5q19 15 19 39z" />
    <glyph glyph-name="V" unicode="V" horiz-adv-x="800" 
d="M794 705q0 33 -38 33q-19 0 -41 -8q-11 -4 -16 -6l-5 -2h-95q-18 0 -30.5 -12t-12.5 -23q0 -16 27 -38q27 -23 27 -45q0 -26 -17 -63l-51.5 -107l-35.5 -77l-10.5 -36t-10.5 -37q-17 -57 -29 -57q-13 0 -22 28q-15 53 -46 102q-105 182 -125 226v30q0 20 19 36t19 29
q0 40 -29 38q-31 -2 -55 -3t-41 -1q-16 0 -37.5 1t-48.5 3q-41 2 -55 -3q-28 -7 -28 -41q0 -22 33 -35q40 -17 54 -48l73.5 -166l41.5 -92q31 -92 84 -191l22.5 -39t24.5 -38l18.5 -36.5t12.5 -21.5q19 -27 40 -27q26 0 43 27q8 14 22 58l51 118l48 108q28 63 49 117t37 99
q7 19 11.5 35.5l8.5 30.5q10 17 66 70q47 44 47 64z" />
    <glyph glyph-name="W" unicode="W" horiz-adv-x="1128" 
d="M1129 688q0 19 -15.5 31t-36.5 12t-45 -5t-47 -5q-2 0 -14 1t-21 1q-58 0 -58 -32q0 -22 33 -46q33 -23 33 -50t-22 -96q-13 -40 -19.5 -65t-8.5 -35l-6.5 -38t-4.5 -22q-11 -32 -26 -32q-19 0 -39 35q-4 10 -8 19t-8 19l-51 105.5l-53 114.5q-36 80 -47 97
q-15 21 -40 21q-33 0 -42 -22l-8 -34.5l-8 -34.5q-10 -37 -25.5 -79t-36.5 -91l-18.5 -41t-20.5 -42q-5 -14 -9.5 -28.5t-9.5 -28.5q-8 -20 -24 -20q-20 0 -36 37l-16 37l-16 37l-58.5 130.5t-29.5 69.5q0 20 26 40t26 34q0 29 -10 36q-8 5 -33 5q-45 0 -76 -4.5t-35 -4.5
q-17 0 -48 9q-13 4 -29 3q-17 -1 -24.5 -1.5t-5.5 -0.5q-23 0 -37.5 -11t-14.5 -22q0 -29 41 -43q49 -16 60 -37q4 -7 12 -28.5t19 -57.5q24 -71 24 -74l31.5 -83.5t15.5 -39.5q24 -91 42 -152t31 -93q41 -104 83 -104q22 0 35 22q2 4 7 15l13 30l77.5 184.5t34.5 79.5
q38 77 69 77q7 0 20 -22q8 -14 15 -33t14 -43l48 -112.5l45 -99.5l12 -27.5l12 -27.5q28 -46 64 -46q49 0 72 95l27 135q125 357 125 371q10 31 45 66q29 29 29 45z" />
    <glyph glyph-name="X" unicode="X" horiz-adv-x="824" 
d="M818 24q0 22 -25 35q-23 11 -40 21.5t-28 20.5q-205 242 -205 273q0 30 30 59q11 8 21.5 17t21.5 17q106 126 114 139q13 13 50 27q24 9 24 28q0 23 -16.5 37.5t-35.5 14.5q-1 0 -38 -8q-32 -7 -36 -7l-83 15q-11 0 -21 -6q-13 -7 -13 -21q0 -23 24 -48q25 -24 25 -36
q0 -14 -28 -41l-38 -37.5l-14 -13.5l-13 -21t-13 -20q-23 -36 -32 -36q-15 0 -71 77l-21 21.5l-21 21.5q-32 38 -32 55q0 23 40 35t40 39q0 37 -71 37q-23 0 -51 -6q-29 -6 -41 -6q-36 0 -67 7q-34 8 -41 8q-80 0 -80 -36q0 -33 53 -54q56 -24 62 -42q4 -13 27.5 -45
t66.5 -86l38 -47l46 -54q-5 -46 -108 -134q-45 -39 -83 -88q-30 -39 -46 -50l-48 -15q-36 -14 -36 -41q0 -36 72 -36h48q18 0 45 -7l30 -8q28 0 47.5 13.5t19.5 34.5q0 24 -19 27q-18 3 -18 25q0 27 38 65l21 18l21 19l13 15t12 15q22 25 40 25q21 0 78 -66q57 -65 57 -84
q0 -21 -20 -41t-20 -31q0 -39 74 -39q24 0 63 14q36 13 48 13q3 0 49 -8q45 -9 53 -9q61 0 61 39z" />
    <glyph glyph-name="Y" unicode="Y" horiz-adv-x="784" 
d="M779 678q0 46 -70 46q-29 0 -45 -4.5t-22 -4.5q-24 0 -27 4q-3 5 -32 5q-23 0 -40 -10t-17 -24q0 -23 22 -39q23 -15 23 -21t-56 -67q-56 -59 -66 -59q-20 0 -78 54q-59 54 -59 72q0 10 19 20q20 11 20 28q0 18 -23 32q-20 11 -35 11q-11 0 -43 -2t-68 -2q-5 0 -15.5 0.5
t-27.5 1.5t-31 1.5t-26 0.5q-44 0 -71 -43q0 -23 33 -41q14 -7 28 -13t28 -13l153 -178q62 -47 62 -73v-65q0 -24 11 -46v-131q-8 -18 -45 -34q-31 -13 -31 -37q0 -57 76 -57q15 0 30 1.5t28.5 4t24 4t15.5 1.5q9 0 34 -5.5t62 -5.5q76 0 76 45q0 32 -41 53q-48 24 -54 36
l-3 62v149q0 68 184 273l26 10l26 10q45 19 45 50z" />
    <glyph glyph-name="Z" unicode="Z" horiz-adv-x="628" 
d="M623 190q0 36 -39 36q-32 0 -69 -33l-50 -43.5t-23 -19.5q-51 -33 -113 -33q-20 0 -37 7q-23 11 -23 26t38 62q46 56 51 67q34 67 156 240q97 136 97 175q0 50 -66 55l-270 -21q-41 3 -69 19q-29 17 -30 17q-26 0 -44 -32q-1 -2 -7.5 -17t-17.5 -44q-1 -5 -35 -60
q-33 -53 -33 -59q0 -11 8.5 -20.5t20.5 -9.5q32 0 67 32l46.5 41.5t19.5 16.5q47 32 107 32q17 0 33 -12.5t16 -31.5q0 -34 -46 -80l-42 -43l-14 -14l-145 -259l-26 -32l-26 -33q-47 -62 -47 -88q0 -38 63 -38q16 0 32.5 5.5t21.5 5.5h90q9 0 21 -1t27 -3l23.5 -3t6.5 -1
q77 0 122 -13q50 -14 40 -14q64 0 111 140l14 13.5l14 13.5q26 29 26 54z" />
    <glyph glyph-name="bracketleft" unicode="[" horiz-adv-x="328" 
d="M300 -28q1 28 -31 28q-4 0 -11.5 -1t-15.5 -1.5t-16 -1.5t-12 -1q-29 0 -35 19l-11 192l-9 452q14 50 61 50q5 0 13 -1t18 -3q21 -3 28 -3q20 0 21 19q0 5 2 19t2 21q0 25 -20 25q-56 -12 -117 -12q-44 0 -87 8q-26 5 -26 -48q0 -18 3 -42q3 -23 3 -22q-1 -24 3 -73
l8 -94q0 -2 -0.5 -8.5t-1.5 -16.5q-1 -23 -3 -46q2 -61 3.5 -113.5t3.5 -98.5q1 -40 1.5 -77t1.5 -72l-1 -71q0 -9 -6 -31q-5 -25 -5 -32q0 -18 14 -18h7l-7.5 1.5t-1.5 0.5h10q10 0 27 -1q51 2 87.5 4.5t58.5 6.5q42 -2 42 31q0 6 -1 11z" />
    <glyph glyph-name="backslash" unicode="\" horiz-adv-x="335" 
d="M330 626q0 48 -25 78t-67 30q-78 0 -112 -39q-40 -43 -40 -151v-396q0 -69 -20 -91q-6 -8 -37 -15q-20 -5 -20 -36q0 -15 25 -27l95 18h139q25 0 25 34q0 19 -17 22q-26 5 -33 10q-17 15 -17 66q0 260 -32 380q0 7 -1.5 18l-3 22.5l-3 22.5t-1.5 18q0 18 12 18
q8 0 21 -25q13 -24 47 -24q65 0 65 67z" />
    <glyph glyph-name="bracketright" unicode="]" horiz-adv-x="328" 
d="M298 669q0 -1 3 22q3 24 3 42q0 53 -26 48q-43 -8 -88 -8q-61 0 -116 12q-20 0 -20 -25q0 -7 1.5 -21t2.5 -19q0 -19 20 -19q3 0 10.5 1t16.5 2.5t18 2.5t15 1q46 0 61 -50l-9 -345v-107l-11 -192q-6 -19 -35 -19q-9 0 -28 2.5t-28 2.5q-31 0 -30 -28q-2 -10 -2 -11
q0 -32 43 -31q5 0 58 -6q27 -3 49 -4.5t39 -0.5t26 1h11l-2.5 -0.5l-7.5 -1.5h8q14 0 14 18q0 9 -6 32q-2 11 -3.5 18.5t-1.5 12.5q-2 70 -1 71q1 38 1.5 75t1.5 74q1 61 3 113.5t4 98.5q-1 11 -1.5 22t-2.5 24q-1 10 -1.5 16.5t0.5 8.5l8 94q4 49 3 73z" />
    <glyph glyph-name="asciicircum" unicode="^" horiz-adv-x="600" 
d="M487 254q16 0 21 11q5 12 7.5 19.5t2.5 17.5q0 28 -16 38q-13 28 -18 44q-17 26 -26 30q-1 5 -5 12l-9 15t-9 15.5t-5 13.5q-8 5 -11 9q-3 13 -7.5 27t-15.5 20q0 6 -4 12.5t-8 14t-7 16t-2 18.5q-16 4 -21 22q-2 12 -4 21t-4 15q-2 12 -16 20t-25 8q-12 0 -28.5 -17.5
t-26.5 -38.5q-4 -24 -20 -60q-4 -5 -9.5 -15.5t-12.5 -27.5q-14 -29 -26 -40q-2 -11 -7 -16l-4 -4q-9 -7 -12 -19q-3 -10 -15.5 -22.5t-15.5 -22.5q-4 -4 -9 -12l-10 -16.5t-10.5 -16.5t-9.5 -12q-12 -35 -8 -65q13 -18 37 -18q31 0 38 31q4 4 9 11.5t12 20.5q11 22 24 26
q1 8 6.5 15t12 13.5l12 12t7.5 11.5q12 5 26 29q13 24 25 28q6 17 13 17q8 0 8 -13q4 -4 9 -11.5l10.5 -15.5t10 -15.5t9.5 -10.5q1 -9 6 -15.5t10.5 -11.5t10 -8.5t5.5 -5.5q3 -19 18 -34l6 -5q9 -8 12 -18q2 -2 6.5 -5.5t12.5 -7.5q11 -7 16 -15q3 -14 13 -18q3 -1 21 -1z
" />
    <glyph glyph-name="grave" unicode="`" 
d="M225 526q20 0 20 21q0 10 -15 24q-14 11 -21.5 17.5t-9.5 8.5q-1 1 -9 12t-22 33q-23 33 -38 38q-36 16 -49 16t-23 -11.5t-11 -18.5q-2 -9 3 -30q4 -21 43 -47q20 -13 64 -36q51 -27 68 -27z" />
    <glyph glyph-name="a" unicode="a" 
d="M529 31q0 19 -18 30l-23.5 16.5t-13.5 10.5q-23 25 -32 76q-2 8 -2.5 29t-1.5 56t-2 56.5t-3 29.5q-10 42 -64 91q-62 57 -122 57q-139 0 -164 -43q0 -8 -8 -19.5t-8 -27.5q0 -21 23 -42q23 -20 52 -20q39 0 54 21q4 10 7.5 20.5t9 19.5t12.5 14.5t19 5.5q27 0 47.5 -13
t20.5 -37q0 -26 -56 -38l-29 -4l-29 -4q-83 -26 -109 -40q-77 -44 -77 -112q0 -74 42 -123q48 -56 134 -56q57 0 95 20t48 20q20 0 58 -23q37 -22 75 -22q27 0 46 13.5t19 37.5zM327 121q0 -18 -15 -34q-19 -22 -53 -22q-41 0 -72 30q-30 27 -30 57q0 47 49 75q36 21 63 21
t44 -41q14 -37 14 -86z" />
    <glyph glyph-name="b" unicode="b" horiz-adv-x="488" 
d="M486 273q0 41 -39 103l-19.5 27.5l-19.5 27.5q-7 12 -45 26q-36 11 -54 11q-34 0 -57 -9l-23 -9q-33 0 -40 72q-2 34 -3 67t-3 67q-6 72 -35 72q-37 0 -90 -34q-49 -31 -49 -40q0 -11 23 -25q24 -14 24 -40v-149l-16 -90v-64q0 -6 1.5 -32t5.5 -73q-2 -32 -3 -64.5
t-1 -65.5q0 -56 43 -56q9 0 18 4t17.5 8.5l16.5 8.5t14 4q21 0 58 -19t94 -19q87 0 137 89q45 81 45 202zM356 234q0 -65 -22 -109q-27 -55 -77 -55q-33 0 -52.5 21t-19.5 53q0 12 2 25.5t2 24.5q-3 25 -3 53q0 128 65 128q45 0 77 -47q28 -43 28 -94z" />
    <glyph glyph-name="c" unicode="c" horiz-adv-x="452" 
d="M445 449q0 23 -2 29q-4 10 -27 10q-21 0 -36 -8.5t-28 -8.5l-9 1.5t-28 3.5t-31 3.5t-19 1.5q-128 0 -205 -104q-58 -80 -58 -162q0 -90 74 -164q74 -73 177 -73q16 0 30 4t26 8.5t21.5 8.5t15.5 4q7 0 27 -11q22 -11 24 -11q18 0 30 13t12 31v81q0 19 -6.5 32t-12.5 13
q-30 1 -57 -51q-26 -53 -56 -53q-56 0 -99 69q-39 61 -39 125q0 50 9 103q14 80 101 80q35 0 62 -24q6 -5 15 -17l22 -29q16 -24 29 -24q38 0 38 119z" />
    <glyph glyph-name="d" unicode="d" horiz-adv-x="556" 
d="M544 41q0 21 -30 44q-29 24 -29 52v65q14 99 21 161t7 89v210q0 80 -49 80q-24 0 -90 -28q-77 -32 -77 -55q0 -18 21 -28q32 -16 38 -22q21 -20 21 -55v-34q0 -90 -21 -90q-1 0 -37 18t-84 18q-94 0 -161 -81q-65 -77 -65 -165q0 -68 54 -144q65 -89 153 -89q49 0 83 17
q34 18 35 18q10 0 30 -15q20 -14 32 -14q37 0 88 13q60 16 60 35zM352 282q0 -89 -9 -128q-16 -67 -65 -67q-44 0 -74 38q-28 34 -28 73q22 189 105 189q23 0 44 -23q27 -30 27 -82z" />
    <glyph glyph-name="e" unicode="e" horiz-adv-x="536" 
d="M527 308q0 98 -177 163q-7 10 -31 10q-19 0 -43 -6l-75 -21q-78 -26 -128 -72q-68 -62 -68 -149q0 -111 92 -183q88 -68 208 -68q66 0 122 35q42 28 73 70q24 34 24 46q0 15 -13 25t-22 10q-21 0 -40 -27q-15 -20 -26 -33t-18 -19q-35 -27 -90 -27q-40 0 -80 34
q-46 40 -46 95q0 44 45 64h142q14 0 67 -9q84 0 84 62zM389 333q0 -12 -15 -19t-27 -7h-110q-11 0 -25 11q-18 13 -18 35q0 17 39 35q38 19 69 19q39 0 66 -33q21 -26 21 -41z" />
    <glyph glyph-name="f" unicode="f" horiz-adv-x="347" 
d="M342 404q0 25 -35 39l-33 10l-33 10q-35 15 -35 46q0 7 -1.5 18l-3 22.5l-3 22.5t-1.5 18q0 18 12 18q8 0 21 -25q13 -24 47 -24q65 0 65 67q0 48 -25 78t-67 30q-78 0 -112 -39q-40 -43 -40 -151v-56q0 -31 -22 -44q-12 -9 -40 -13q-22 -4 -22 -12v-33q0 -32 24 -39
l45 -9q24 -9 24 -45q0 -12 -4.5 -25t-4.5 -18v-102q0 -69 -20 -91q-6 -8 -37 -15q-20 -5 -20 -36q0 -15 25 -27l95 18h139q25 0 25 34q0 19 -17 22q-26 5 -33 10q-17 15 -17 66v173q0 36 27 47q25 4 51 12t26 43z" />
    <glyph glyph-name="g" unicode="g" horiz-adv-x="502" 
d="M464 577q0 70 -50 70q-15 0 -49 -70q-31 -63 -31 -73q0 -22 25 -22q22 0 63 35q42 36 42 60zM492 6q0 54 -65 83q-54 23 -121 23q-65 0 -81 3q-40 6 -40 32q0 12 12 20t22 8h83q39 0 77 47q35 44 35 80q0 42 -14.5 76.5t-41.5 58.5t-65 37.5t-84 13.5q-99 0 -155 -62
q-42 -48 -42 -103q0 -48 23 -80q13 -17 43 -39q23 -17 23 -29q0 -7 -10 -26q-9 -18 -9 -20q0 -8 6 -19.5t6 -15.5q0 -6 -49 -34q-48 -29 -48 -59q0 -36 54 -87q51 -48 84 -50q18 -7 44 -7q19 0 37 5q39 5 68.5 8t49.5 3q158 51 158 133zM322 264q0 -24 -38 -24
q-43 0 -101 47q-60 48 -57 90q1 18 19 28q15 9 34 9q21 0 32 -14q19 -28 26 -33q51 -43 63 -58q22 -23 22 -45zM302 -20q0 -25 -28 -38q-24 -12 -55 -12q-19 0 -41 21q-22 19 -22 44q0 16 21.5 31t54.5 15q70 0 70 -61z" />
    <glyph glyph-name="h" unicode="h" horiz-adv-x="625" 
d="M618 14q0 21 -20 36q-23 16 -31 35q-14 37 -14 192q0 121 -75 171q-41 27 -78 27q-51 0 -105 -24q-53 -24 -45 -24q-18 0 -30 62q-9 46 -9 77v89q0 27 -8 53q-9 30 -26 30q-7 0 -85 -38q-79 -39 -79 -48q0 -12 5 -18t12.5 -9t16 -4.5t16.5 -2.5q18 -8 18 -40
q0 -4 -1 -12.5t-3 -21.5q-5 -26 -3 -42l14 -193v-77l10 -134q-11 -37 -23 -45q-9 -2 -17.5 -5t-9.5 -24q-1 -34 43 -34q16 0 36 4q12 2 21 3t14 1q23 0 43 -2t39 -6q8 -2 11 -2q20 0 20 33q0 8 -13 25q-16 24 -23 55q-13 51 -13 144q0 134 111 134q82 0 82 -169v-132
q0 -15 -20 -33q-19 -17 -17 -27q4 -22 21 -22q6 0 11 3q16 -6 31 -6q6 0 15.5 1.5t20 3l21 3t18.5 1.5q61 -4 76 -9q22 0 22 21z" />
    <glyph glyph-name="i" unicode="i" horiz-adv-x="312" 
d="M228 638q0 40 -31 67q-32 27 -70 27q-35 0 -63 -40q-23 -34 -23 -54q0 -23 22 -51q26 -32 54 -32q51 0 81 23.5t30 59.5zM301 34q0 22 -20 30q-29 11 -37 23q-19 25 -16 92v243q0 10 -4.5 21.5t-11.5 21.5t-16 16t-18 6q-4 0 -10 -2l-15 -9.5t-14 -9.5q-13 -8 -25 -14.5
t-23 -10.5l-27.5 -10l-27.5 -10q-27 -11 -27 -31q0 -21 17 -26q31 -11 33 -12q17 -12 17 -50v-95q0 -3 1 -11t3 -22q5 -28 5 -43q0 -38 -17 -55q-5 -5 -32 -18q-17 -9 -17 -28q0 -37 42 -37q7 0 22 4.5t50 4.5q13 0 27.5 -2l28 -4t25 -4t17.5 -2q70 0 70 44z" />
    <glyph glyph-name="j" unicode="j" horiz-adv-x="292" 
d="M221 634q0 53 -31 81q-26 24 -56 24q-43 0 -67 -23t-24 -59q0 -39 19 -64q22 -30 68 -30q35 0 67 35q24 27 24 36zM298 -74q0 28 -14 61l-23 51q-4 9 -14 104q-6 51 -9 80t-2 39v168q0 52 -44 60q-17 2 -42.5 -12l-50.5 -29l-27 -9.5t-26 -9.5q-35 -14 -32 -35
q1 -15 21 -26q30 -16 35 -21q18 -17 17 -51l-4 -181q-1 -52 32 -89q2 -1 17.5 -13.5l45.5 -35.5q34 -25 34 -56q0 -11 -15 -24.5t-32 -13.5q-20 0 -40 17q-19 16 -19 30q0 8 4 21.5t4 22.5q0 14 -11 23.5t-25 9.5q-70 0 -70 -58q0 -56 52 -93q46 -32 92 -32q56 0 97 25
q49 28 49 77z" />
    <glyph glyph-name="k" unicode="k" horiz-adv-x="620" 
d="M608 21q1 21 -28 44q-4 2 -16.5 9.5t-32.5 18.5q-23 13 -57 56q-7 9 -14 19l-14 21l-26 25l-26 25q-20 16 -18 42q1 36 85 91q85 55 86 77q1 13 -14 28q-13 16 -21 13q-31 -16 -109 -36q-55 -15 -56 -28q0 -4 1.5 -10.5t3.5 -13l3.5 -11.5t1.5 -6q0 -9 -49 -54
q-50 -44 -59 -44q-32 0 -26 63q-13 61 -13 167v44v43q0 68 -8 98q-11 39 -39 39q-18 0 -83 -28q-69 -29 -69 -42q-1 -25 34 -39q36 -14 34 -40l-3 -70q-2 -24 9 -29q-3 -106 -4 -108q-1 -27 -1.5 -51.5t-0.5 -47.5q0 -35 1.5 -64.5t3.5 -54.5l3 -35t1 -14q-2 -38 -19 -57
q-3 -3 -34 -23q-17 -12 -18 -31q-2 -27 31 -27q22 0 36 7q16 6 56 6q36 0 59 -5t33 -5q54 0 55 31q1 18 -14 38l-18.5 24t-9.5 15q-15 30 -13 79q1 19 11 19q21 0 67 -55t45 -82q-1 -10 -1 -17v-11q0 -38 46 -38h163q20 0 32 10.5t13 24.5z" />
    <glyph glyph-name="l" unicode="l" horiz-adv-x="280" 
d="M272 26q0 12 -12 23q-17 15 -24 26q-12 23 -10 67q2 46 3 73.5t1 38.5q0 -5 -1.5 4t-3.5 32q-2 21 -2.5 45t0.5 52q1 22 0.5 36.5t-2.5 22.5l-2 4l-2 4l7 204q1 18 0.5 30t-1.5 17q-4 25 -27 25q-25 0 -103 -27q-86 -30 -84 -48q2 -21 23 -22q27 -2 39 -22
q21 -38 21 -141q0 -30 -5 -49.5t-4 -30.5l-4 -130l11 -122q-2 -37 -20 -57q-2 -2 -10 -8.5t-23 -17.5q-19 -13 -19 -32q-1 -19 10 -24q7 -4 30 -4q19 0 42 3.5t35 3.5q23 0 50 -8t44 -8q19 0 33 17q10 13 10 23z" />
    <glyph glyph-name="m" unicode="m" horiz-adv-x="924" 
d="M922 19q0 24 -35 45q-35 23 -35 63v103q0 8 0.5 21.5t1.5 32.5q1 20 1.5 34.5t0.5 24.5q0 141 -99 141q-59 0 -104 -13q-14 -4 -29 -9.5t-31 -13.5q-25 -13 -35 -13q-16 0 -51 23q-34 23 -81 23q-49 0 -94 -20q-41 -19 -52 -19q-20 0 -42 19q-23 20 -40 20q-11 0 -28 -13
q-23 -17 -65 -26l-54 -9q-42 -12 -42 -41q0 -17 26 -29q26 -10 34 -27l7.5 -85.5t2.5 -30.5v-76q0 -42 -16 -67q-8 -11 -31 -30q-16 -13 -16 -29q0 -29 46 -29q39 0 63 10q1 0 24.5 -5t61.5 -5q33 0 41 3q25 7 25 39q0 21 -30 50q-29 29 -29 66v146q0 32 31 57t68 25
q86 0 86 -128q0 -145 -17 -176q-8 -14 -36 -23q-24 -8 -24 -26q0 -7 1 -11q4 -25 34 -25q9 0 20 3h52q32 0 52.5 -5t30.5 -5q32 0 52 13.5t20 35.5q0 11 -27 37q-26 26 -26 56v175q0 43 42 73q38 26 77 26q59 0 59 -92q0 -10 -1 -21.5l-1 -11.5v-96q0 -83 -16 -111
q-11 -18 -32 -18h-5q-24 0 -24 -36q0 -28 32 -28q13 0 30 4q28 5 27 5q24 3 32 2q10 -1 17.5 -1.5t14.5 -0.5t19 -1.5t30 -3.5q19 -2 28 -3.5l9 -1.5q49 0 49 39z" />
    <glyph glyph-name="n" unicode="n" horiz-adv-x="580" 
d="M573 16q0 21 -28 46q-27 25 -27 41v93l10 48q0 6 1.5 20t3.5 36t3.5 35t1.5 17q0 80 -56 113q-31 19 -63 19q-51 0 -144 -39q-17 0 -38 15t-33 15q-19 0 -41 -13q-26 -16 -35 -17q-14 -2 -29 -3t-29 -3q-41 -11 -41 -42q0 -15 25 -28q26 -12 26 -26v-208q-5 -44 -23 -61
q-2 -2 -32 -19q-15 -9 -15 -32q0 -31 38 -31l83 12l100 -19q44 8 44 41q0 19 -17 33q-22 16 -33 40q-17 42 -17 129q0 64 14 95q22 46 82 46q32 0 57 -14q28 -16 28 -46q0 -12 -5 -27v-188q0 -26 -39 -45q-38 -18 -38 -39q0 -25 42 -25q23 0 46.5 6.5t39.5 6.5t38.5 -6.5
t41.5 -6.5q58 0 58 31z" />
    <glyph glyph-name="o" unicode="o" horiz-adv-x="567" 
d="M563 214v69q0 68 -85 134q-81 63 -145 64q-49 1 -51 -1t-38 1q-65 5 -140 -66q-90 -84 -90 -211q0 -105 83 -167q79 -58 211 -61q67 -2 153 60q102 75 102 178zM407 121q0 -15 -25 -40q-26 -24 -42 -24q-35 0 -108 84q-81 93 -81 171q0 48 32 74q28 22 74 22
q71 0 118 -125q32 -88 32 -130v-32z" />
    <glyph glyph-name="p" unicode="p" horiz-adv-x="508" 
d="M503 168v98q0 72 -48 135q-56 72 -139 72q-12 0 -22.5 -4t-19.5 -8.5t-17 -8t-14 -3.5q-16 0 -37 15q-20 16 -24 16q-28 0 -156 -71v-18q0 -5 4.5 -11.5l10.5 -14.5t11.5 -17t7.5 -18l-10 -92q12 -38 12 -60q0 -8 -2 -14q-8 -29 -11 -77t1 -117q-15 -36 -51 -46
q-30 -8 -30 -31q0 -30 42 -30q3 0 16.5 1.5t36.5 3.5l35 3t13 1q16 0 42 -9q24 -10 28 -10q20 0 36 12t16 31q0 17 -31 38q-30 21 -30 51q0 24 15 24q1 0 27 -12q25 -12 35 -12h76q65 0 125 73q52 64 52 110zM353 229q0 -90 -39 -127q-26 -26 -64 -26q-26 0 -45.5 18.5
t-19.5 42.5v131q0 39 21 71q22 36 56 36q91 0 91 -146z" />
    <glyph glyph-name="q" unicode="q" horiz-adv-x="492" 
d="M497 -122q4 26 -25 34q-29 6 -27 36q3 52 3 132q0 122 -6 272q0 10 7 33t7 50q0 42 -34 42q-16 0 -33.5 -11t-38.5 -11q-25 0 -55 14q-29 15 -56 15q-48 0 -106 -34q-66 -37 -95.5 -92.5t-29.5 -140.5q0 -30 3 -52q-8 -54 60 -114q68 -59 122 -59q26 0 47 2.5t35 5.5
t20.5 5.5t3.5 2.5q20 0 20 -44q0 -39 -37 -55q-37 -18 -37 -40q0 -18 13 -22q9 -3 36 -3h56q9 0 19.5 -2l21 -4t19.5 -4t15 -2q29 0 49 13.5t23 32.5zM317 180q0 -36 -17 -67q-20 -36 -53 -33q-100 10 -100 152q0 49 25 96q30 55 70 55q75 0 75 -120v-83z" />
    <glyph glyph-name="r" unicode="r" horiz-adv-x="384" 
d="M384 408q0 15 -7 29t-18 24.5t-26 17t-30 6.5q-37 0 -66 -22q-28 -22 -30 -22q-9 0 -19 21q-11 21 -36 21q-18 0 -34 -15q-17 -14 -26 -22t-11 -10q-14 -9 -36 -13q-21 -4 -30 -13q-13 -10 -11 -41q1 -13 20 -20q25 -9 36 -29q19 -32 19 -109v-102q0 -24 -15 -28
q-8 -2 -15 -4.5t-14 -4.5q-15 -9 -15 -43q0 -41 20 -41h191q13 0 26 16.5t13 32.5q0 27 -37 43t-37 40q0 8 3 19q7 22 7 45q0 6 -1.5 19l-3.5 29t-3.5 33.5t-1.5 32.5q0 26 3 56l2 20t12 10q9 0 21 -16q8 -10 15 -17t13 -11q22 -16 56 -16q27 0 48 32q18 27 18 52z" />
    <glyph glyph-name="s" unicode="s" horiz-adv-x="348" 
d="M342 115q0 101 -95 193q-95 68 -95 92q0 20 18 20q14 0 50 -39q38 -38 53 -38q7 0 17 6t10 16q-19 127 -47 127q-3 0 -9 -3.5l-12.5 -7l-13.5 -7t-13 -3.5q-8 0 -29 7.5t-48 7.5q-46 0 -78 -29q-31 -28 -31 -63q0 -58 49 -114l45.5 -46l45.5 -46q49 -52 49 -99
q0 -13 -11 -23t-21 -10q-26 0 -70 50q-44 51 -58 51q-26 0 -26 -27q27 -156 53 -156q18 0 30 12t32 12q11 0 40 -6l28 -6q51 0 94 37t43 92z" />
    <glyph glyph-name="t" unicode="t" horiz-adv-x="381" 
d="M380 80q0 30 -18 30q-12 0 -25 -13q-12 -12 -34 -11q-60 3 -60 101q0 14 1 28.5t3 30.5t3.5 23t1.5 5q0 8 -2 23t-2 18q0 52 34 62l21.5 4l21.5 4q7 13 30 80q0 16 -10 16q-7 0 -17 -7h-40q-34 0 -46 33q-9 22 -9 72v27q0 73 -28 73q-23 0 -44 -63q-16 -51 -25.5 -78.5
t-12.5 -33.5q-12 -25 -64 -46q-43 -18 -43 -48t25 -34q13 -2 25 -3.5t24 -3.5q26 -6 26 -33q0 -4 -0.5 -8.5t-1.5 -9.5q-7 -34 -7 -73q0 -8 1 -26.5t3 -47.5q2 -20 1.5 -35t-2.5 -26q-1 -4 -1 -13q0 -41 37 -81q37 -39 87 -39q30 0 81 23q66 33 66 80z" />
    <glyph glyph-name="u" unicode="u" horiz-adv-x="632" 
d="M608 453q0 26 -42 26q-19 0 -53 -6q-35 -6 -42 -6q-112 0 -112 -34q0 -23 27 -39q28 -16 28 -51q0 -197 -10 -218q-9 -23 -57 -36q-10 -3 -21 -5.5t-24 -4.5q-38 0 -55 56q-12 37 -12 89q0 48 9 131q9 82 9 76q0 65 -49 65q-33 0 -108 -39q-80 -42 -80 -71q0 -12 39 -27
q40 -15 40 -44q0 -7 -3 -21t-3 -22q0 -10 6 -23.5t6 -24.5q0 -10 -5 -38t-5 -39q0 -68 41 -117q43 -51 115 -51q38 0 120 29q6 0 28 -13q23 -14 37 -14q9 0 19 5q16 10 97 33q53 15 53 44q0 3 -13 19q-17 19 -24 42q-13 33 -13 81v94q0 81 15 110q7 16 27 21q15 4 15 23z
" />
    <glyph glyph-name="v" unicode="v" horiz-adv-x="668" 
d="M659 441q0 17 -9 22q-2 1 -28 1h-64q-11 0 -24.5 1.5t-26 4t-24 4t-17.5 1.5q-64 0 -64 -38q0 -21 27 -37q27 -17 27 -44q0 -19 -38 -93q-37 -73 -44 -73q-22 0 -71 90q-47 85 -47 101q0 23 22 44t22 31q0 27 -41 27q-18 0 -38.5 -7t-45.5 -7q-42 0 -77 8q-33 9 -31 9
q-55 0 -55 -57q0 -18 30 -28q37 -14 48 -27l46 -77.5l40 -69.5q26 -66 51 -115.5t50 -82.5q39 -53 67 -53q26 0 38 15q11 11 32 63q17 43 32.5 78.5t29.5 64.5l23 54l23 54q21 46 43 61q28 20 79 45q15 7 15 30z" />
    <glyph glyph-name="w" unicode="w" horiz-adv-x="804" 
d="M802 443q0 33 -37 33q-21 0 -46 -9q-26 -9 -27 -9q-17 9 -37 9q-25 0 -41.5 -11.5t-16.5 -28.5q0 -10 20 -30t20 -40q0 -15 -20 -67q-20 -51 -23 -51q-25 0 -58 64q-9 18 -54 120q-28 64 -39 64q-34 0 -50 -40l-60 -186q-15 -46 -24 -46q-12 0 -49 72q-37 68 -37 83
q0 30 26 53t26 36q0 34 -39 34q-3 0 -12 -2t-25 -6q-28 -7 -55 -7q-21 0 -42.5 4.5t-46.5 4.5q-29 0 -33 -3q-10 -6 -10 -31q0 -34 12 -47q3 -3 11 -7.5l16.5 -9t17 -10.5t13.5 -12l15 -44.5t12 -40.5l7.5 -9t7.5 -8q14 -18 31 -54l28.5 -71l28.5 -72q34 -82 66 -82
q15 0 71 120q57 121 60 121q12 0 15.5 -19t6.5 -37q13 -44 45 -108q40 -81 62 -81q30 0 62 83q8 26 16.5 51l16.5 50q2 5 10 15l21 26q10 13 16.5 23.5t8.5 19.5q2 10 6 27t9 43q5 27 12 37q15 26 56 41q30 10 30 45z" />
    <glyph glyph-name="x" unicode="x" horiz-adv-x="618" 
d="M610 20q0 30 -26 51l-27.5 18l-27.5 18q-11 8 -27.5 28t-38.5 51q-43 62 -43 78q0 41 47 74q1 1 87 48q47 26 47 49q0 14 -13.5 23t-28.5 9h-94q-8 0 -18 1t-19.5 2.5t-16.5 2.5t-10 1q-23 0 -23 -39q0 -6 3.5 -12t8 -11t8 -10t3.5 -9q0 -28 -48 -58q-13 0 -41 31
q-27 31 -27 43q0 8 8.5 22.5t7.5 26.5q-3 20 -40 20q-4 0 -14 -0.5t-27 -1.5q-26 -2 -40 0q-29 2 -50 4t-35 3q-21 2 -38 -9t-17 -30q0 -26 18 -35q11 -5 23 -9.5t24 -9.5q17 -9 73 -66q59 -62 59 -79t-74 -97q-34 -37 -53 -56t-24 -21q-11 -4 -21.5 -7t-21.5 -7
q-29 -12 -29 -37q0 -44 42 -44q12 0 55 13q45 12 74 12l5.5 -1l16.5 -3q25 -5 27 -5q15 0 25 8.5t10 19.5q0 18 -23 32q-22 15 -22 35q35 74 68 74q23 0 53 -39q27 -38 27 -57q0 -6 -3.5 -11t-8 -10.5t-8 -11.5t-3.5 -12q0 -18 19 -28q16 -10 33 -10h161q48 0 48 38z" />
    <glyph glyph-name="y" unicode="y" horiz-adv-x="646" 
d="M639 443q0 36 -48 36q-15 0 -34 -6.5t-30 -6.5q-19 0 -38.5 5t-27.5 5q-54 0 -54 -40q0 -7 15 -32q15 -24 15 -42q0 -26 -33 -72q-33 -47 -44 -47q-20 0 -56 69q-32 62 -32 71q0 17 13 34q14 20 14 29q0 33 -36 33q-17 0 -43 -4.5t-50 -4.5t-63 6q-20 4 -32 5.5t-17 1.5
q-28 0 -40 -21q-7 -11 -7 -23q0 -25 31 -41q44 -23 59 -47q8 -12 27.5 -44t48.5 -84q68 -124 68 -144q0 -33 -16 -59q-19 -31 -47 -31q-6 0 -15 3.5l-21 8t-27 8t-33 3.5q-87 0 -87 -99q0 -97 126 -97q54 0 89 35q13 13 31.5 40.5t42.5 72.5l65.5 116.5l52.5 87.5l45.5 74
l45.5 74q28 44 43 57q2 2 17 8.5l43 19.5q39 16 39 42z" />
    <glyph glyph-name="z" unicode="z" horiz-adv-x="520" 
d="M515 115q0 10 -9.5 18.5t-15.5 8.5q-21 0 -72 -39q-52 -38 -93 -38q-66 0 -66 27q0 13 68 79q23 23 53 59.5t65 88.5q67 95 67 109q0 26 -17 32q-10 2 -42 2h-113q-65 1 -105 12q-13 4 -24.5 8.5t-22.5 11.5q-17 11 -24 11q-22 0 -66 -71q-40 -67 -40 -84q0 -30 21 -30
l74 39q73 40 112 40q50 0 50 -20q0 -11 -11 -22q-29 -29 -45 -51q-92 -117 -162 -186l-34.5 -31l-34.5 -31q-14 -14 -14 -42q0 -29 31 -29q44 0 82 13h191q22 0 52 -14q30 -15 49 -15q37 0 96 144z" />
    <glyph glyph-name="braceleft" unicode="{" horiz-adv-x="333" 
d="M149 255q10 21 30 34q0 7 4 12l7 12q8 6 11 18l6 23q-3 7 -3 16t4.5 27t4.5 28t-3 18q-3 9 1 19q-3 14 -2 40q0 23 -5 38q1 26 1.5 45.5t0.5 32.5q20 37 47 38q8 12 25 20q19 9 25.5 17.5t1.5 19.5l-3 6q-14 9 -31 9q-2 -2 -25 -6q-16 -3 -23 -13q-31 -10 -64 -35
q-13 -10 -17 -25l-6.5 -19t-3.5 -9q-14 -24 -19 -39q-3 -6 -3 -11t2.5 -11.5t2.5 -9.5t-1 -4q-2 -14 3 -39q3 -29 3 -38q0 -8 -2 -18q-3 -23 -5 -40t-3 -30q14 -29 0 -59q-2 -2 -5.5 -6l-10.5 -12q-9 -12 -17 -14h-7q-12 -3 -25 -5.5t-19 -15.5q-3 -29 11 -41q8 -2 15.5 -3
l15.5 -2q20 -5 27 -13q1 -6 6 -12l3 -3q2 -6 1 -11q10 -9 10 -20q0 -2 -3 -27q4 -24 0 -96q4 -6 3 -21.5t1 -21.5q0 -25 1.5 -54t3.5 -63q9 -14 9 -19q3 -11 6 -19l5 -13q25 -27 31 -31q2 -6 7.5 -10l11.5 -8t11.5 -6.5t8.5 -5.5q2 -1 8 -2.5t16 -4.5q17 -5 24 -5
q15 0 26 12q8 6 8 16q0 -5 -6 24q-6 8 -14 9l-16 2q-20 13 -30 18q-2 7 -6 11l-3 4q-3 3 -5 14q-2 18 -5 21q-2 14 -4.5 26t-5.5 20q-1 4 0 19q1 11 -2 19q1 10 2 19l2 18q1 21 8 36l6 27l2 9q0 12 -7 20q-7 28 -7 48q0 12 -8 27t-10 31q-11 1 -13.5 7t-6.5 12q-1 12 -15 29
z" />
    <glyph glyph-name="bar" unicode="|" horiz-adv-x="222" 
d="M74 -259h74v1019h-74v-1019z" />
    <glyph glyph-name="braceright" unicode="}" horiz-adv-x="333" 
d="M181 237q-10 -21 -30 -34q0 -7 -4 -12l-7 -12q-8 -6 -11 -18l-6 -23q3 -8 3 -16q0 -9 -4.5 -27t-4.5 -28q0 -11 3 -18q3 -9 -1 -19q3 -14 2 -38q0 -24 5 -39q-1 -26 -1.5 -45.5t-0.5 -32.5q-20 -37 -47 -38q-8 -11 -24 -20q-20 -9 -27 -16q-6 -10 -1 -21l3 -6
q13 -9 31 -9q2 2 25 6q16 3 23 13q31 10 64 35q13 10 17 25l6.5 19t3.5 9q14 24 19 39q3 6 3 11t-2.5 11.5t-2.5 9.5t1 4q2 14 -3 40q-3 25 -3 36q0 8 2 18q3 23 5 40t3 30q-14 29 0 59q2 2 5.5 6l10.5 12q9 12 17 14h7q12 3 25 5.5t19 15.5q3 29 -11 41q-8 2 -15.5 3
l-15.5 2q-20 5 -27 13q-2 6 -6 12l-3 3q-2 6 -1 11q-10 9 -10 20q0 1 3 27q-5 24 0 96q-2 3 -2.5 9t-0.5 12v13q0 7 -1 10q0 25 -1.5 54t-3.5 63q-9 13 -9 19q-3 11 -6 19l-5 13q-25 27 -31 31q-2 6 -7.5 10l-11.5 8t-11.5 6.5t-8.5 5.5q-2 1 -8 2.5t-16 4.5q-17 5 -24 5
q-16 0 -26 -12q-8 -6 -8 -16q0 4 6 -24q6 -8 14 -9l16 -2q19 -14 30 -18q2 -7 6 -11l3 -4q3 -3 5 -14q2 -18 5 -21q2 -14 4.5 -26t5.5 -20q1 -4 0 -19q-1 -11 2 -19q-1 -10 -2 -19t-2 -19q-1 -21 -8 -36l-6 -27l-2 -9q0 -12 7 -20q7 -28 7 -48q0 -12 8 -27t10 -31
q11 -1 13.5 -7t6.5 -12q1 -12 15 -29z" />
    <glyph glyph-name="asciitilde" unicode="~" horiz-adv-x="600" 
d="M509 338q15 23 19 50q-14 14 -16 15q-5 2 -22 0q-8 -5 -13 -9.5t-8 -6.5l-22 -24t-29 -12q-20 0 -44 8q-62 10 -75 15q-5 4 -13.5 7.5t-20.5 5.5q-24 6 -36 15q-11 -4 -27 -4q-4 0 -11.5 1t-8.5 1q-6 0 -22 -3l-19 -13.5t-13 -9.5q-8 -11 -17 -21.5t-17 -21.5
q-19 -25 -22 -50q1 -22 34 -25q11 5 19.5 15t15.5 20q10 12 21 12q7 -1 20 1t19 2q17 0 28 -10q30 -8 52.5 -15t36.5 -13q6 -6 34 -14q24 -7 40 -7q38 0 84 52q25 28 33 39z" />
    <glyph glyph-name="quotesinglbase" unicode="&#x201a;" horiz-adv-x="208" 
d="M194 73q0 18 -7.5 33.5t-20.5 27t-29 18t-34 6.5q-31 0 -56 -36q-21 -30 -21 -49q0 -22 20 -48q22 -30 48 -25q8 2 8 -3q0 -6 -26 -41q-25 -34 -25 -47t20 -11q63 4 96 93q27 72 27 82z" />
    <glyph glyph-name="florin" unicode="&#x192;" horiz-adv-x="500" 
d="M243 90l4 3q4 26 7.5 44.5t6.5 30.5q4 11 4 37q5 13 9.5 27t2.5 26q2 9 9 29q5 18 5 28q0 9 -2.5 18t-0.5 23q7 7 21 7q8 0 34 -6l21 3.5t15 0.5q7 -2 15 0q10 3 15 3q8 0 16 8q13 13 13 27q0 6 -4 13.5t-14 8.5q-15 3 -16 4q-58 5 -85 6v2q3 10 -1 17l7 25t5 19
q-1 3 -1 9q0 2 5 24q4 14 1 28q-6 10 2 39q-6 6 -5 12q4 19 3 23q0 3 1 8t3 10.5l3.5 10t1.5 6.5q2 7 4 11.5t3 8.5q1 6 16 14q15 7 16 11q9 -11 7 -22q1 -1 15 -16q8 -10 18 -11h5q4 0 9 -1h15q58 1 51 78q-26 35 -43 36q-18 2 -40 15q-39 5 -54 -13l-23 -14l-18 -11
q-1 -1 -5.5 -6t-14.5 -13q-13 -10 -18 -22q-4 -17 -6 -29q-33 -23 -46 -90q-17 -81 -30 -100q-3 -9 -3 -20q0 -34 -4 -38l-21 -3q-5 0 -12 0.5t-15 1t-14.5 1.5t-9.5 1q-27 0 -43 -24v-5t-1 -8q-3 -32 66 -32q15 3 39 -2q3 -31 -8 -42q-2 -17 -6.5 -39t-9.5 -49
q-3 -7 -2 -16q4 43 6 87l-6 -75v-7q-4 -58 -11 -81q-10 -24 -10 -49q-2 -8 -3 -30q-2 -20 -6 -30q0 -4 -1.5 -15t-3.5 -29q-4 -28 -3 -46q0 -4 -5.5 -15.5t-6.5 -15.5q1 -5 -0.5 -13t-4 -17t-5 -17t-2.5 -13q-3 -3 -10 -25q-4 -15 -14 -22q-5 -17 -21 -15q-36 4 -49 -4
q-6 -7 -9 -18t-13 -20q5 -8 5 -10q1 -19 8 -22q4 -14 15 -19q8 -3 12.5 -4.5l4.5 -1.5q10 -6 21 -6q17 0 52 36l13.5 21.5t7.5 13.5q10 15 15 21q31 39 39 56q0 6 3 15t7 18t7 18t3 15q-1 6 4.5 21t5.5 23l10.5 35.5t6.5 26.5q11 17 15 40l2 21.5t3 21.5v1v0q0 1 1 3h-1z
" />
    <glyph glyph-name="quotedblbase" unicode="&#x201e;" horiz-adv-x="420" 
d="M406 73q0 18 -7.5 33.5t-20.5 27t-29 18t-34 6.5q-31 0 -56 -36q-21 -30 -21 -49q0 -22 20 -48q22 -30 48 -25q8 2 8 -3q0 -6 -26 -41q-25 -34 -25 -47t20 -11q63 4 96 93q27 72 27 82zM194 73q0 18 -7.5 33.5t-20.5 27t-29 18t-34 6.5q-31 0 -56 -36q-21 -30 -21 -49
q0 -22 20 -48q22 -30 48 -25q8 2 8 -3q0 -6 -26 -41q-25 -34 -25 -47t20 -11q63 4 96 93q27 72 27 82z" />
    <glyph glyph-name="ellipsis" unicode="&#x2026;" horiz-adv-x="712" 
d="M666 66q0 18 -7.5 33.5t-20.5 27t-29 18t-34 6.5q-31 0 -56 -36q-21 -30 -21 -49q0 -20 21 -47q21 -26 47 -26q45 0 72.5 20.5t27.5 52.5zM434 70q0 18 -7.5 33.5t-20.5 27t-29 18t-34 6.5q-31 0 -56 -36q-21 -30 -21 -49q0 -20 21 -47q21 -26 47 -26q45 0 72.5 20.5
t27.5 52.5zM202 70q0 18 -7.5 33.5t-20.5 27t-29 18t-34 6.5q-31 0 -56 -36q-21 -30 -21 -49q0 -20 21 -47q21 -26 47 -26q45 0 72.5 20.5t27.5 52.5z" />
    <glyph glyph-name="dagger" unicode="&#x2020;" horiz-adv-x="500" 
d="M283 501v10q3 6 1 22q-1 9 11 29l2 2q-10 -10 -10 -13l1 1l2 1q5 5 5 9q4 23 9 38q7 6 7 22q-3 3 -2 9l1.5 7.5t0.5 3.5q-5 14 -7 25v7q-5 27 -21 33l-1 2q-5 8 -14 11q-5 -1 -18 2t-18 3q-17 0 -24 -18q-9 -9 -11 -16q-14 -26 -8 -40v-16q0 -6 1 -11q16 -19 16 -57
q9 -13 10 -20q-2 -6 1 -13.5t3 -9.5q0 -4 -3 -7q4 -9 4 -19q0 -5 -1 -9q-11 -2 -30 0q-22 2 -31 -1q-32 11 -49 18.5t-27 8.5q-27 4 -37 -2q-11 -8 -17.5 -11.5t-7.5 -4.5q-1 -6 -5 -10l-2 -2q-5 -3 -6 -7q-7 -7 -8 -18.5t-2 -21.5q9 -12 21 -18.5t26 -10t28.5 -4.5l28.5 -2
q10 5 18 5q8 -1 16 -1t16 -1q19 1 29 14q4 1 21 6q14 5 22 3q2 -2 4 -2q0 2 -6 5h1q0 1 -0.5 -3t-1.5 -13q-2 -8 -5 -10q0 -11 -7 -32q-6 -23 -6 -35q-17 -20 -17 -36q0 -4 0.5 -8t1.5 -9q9 -6 9 -19q1 -1 1 -3v-6q0 -10 4 -14q2 -14 2.5 -22t-0.5 -12q-6 -11 -6 -25
q0 -8 2.5 -24.5t2.5 -23.5q8 -14 7 -19.5t1 -15.5q2 -8 -2 -13q2 -10 3 -17t2 -12q0 -6 3 -16q1 -8 -3 -18q7 -8 9 -18q1 -7 1 -12t1 -7q1 -6 1.5 -11t-0.5 -9q-11 -35 -6 -113q7 -4 7 -8v-15q-2 -8 -1 -13l1 -4q0 -4 -4 -8q2 -8 4 -14.5t3 -11.5q9 -20 27 -20q5 0 19 9l7 3
q10 10 10 40q-3 7 -1 21q3 15 0 23q-8 16 -6 42q-2 16 2 33q5 20 10 36l9 29q-2 -4 -4 -7.5t-4 -5.5q-3 7 -5 9v13q0 6 7 16q-8 5 -8 10q1 8 1.5 11.5t0.5 1.5q6 12 6 37q6 16 3 22l3.5 42t1.5 30q16 48 16 77q6 30 0 41q0 6 -3 12l-2 3q-4 5 -2 14q-11 16 -11 23t-4 15
q-3 7 0 17q-8 5 -8 9l-1 3q-1 11 -9 16q1 2 1 4q0 3 1 5q4 -2 7 -4q23 -2 41 -3t29 -1q5 1 15.5 -4t16.5 -5q7 0 13 3q15 8 44 3q26 13 34 21q15 16 10 41l-3 5l-9 15q-7 13 -20 15q-15 13 -37.5 14.5t-44.5 2.5q-21 3 -53 -9q-32 -11 -47 -9z" />
    <glyph glyph-name="daggerdbl" unicode="&#x2021;" horiz-adv-x="500" 
d="M295 66q-2 12 1 16q-2 29 -2.5 50.5t1.5 34.5q5 11 9.5 19.5t7.5 13.5q3 11 5 19t3 13q-1 4 4.5 15t3.5 21q1 10 -10 18q0 4 -3.5 8t-7.5 7q-3 2 2 10q-11 7 -9 9l-1 5q0 9 -4 13q-5 36 -18 55q-1 8 -1 13q0 6 -1 10q8 1 16 1t16 1q16 0 25 -15q15 -3 108 -3q21 10 33 12
q29 18 29 54q0 5 -2 13q-13 20 -40 25q-13 1 -49 0q-11 -8 -25 -6q-23 -6 -40.5 -9.5t-29.5 -4.5q-11 -9 -33 -9q-1 9 -1 15q0 7 -1 12q8 32 9 46q15 6 15.5 19.5t0.5 25.5q6 39 6 38q4 7 1 20v3q-1 3 4 13q-7 5 -8 12t-7 14q-11 3 -15 10q-11 15 -33 15q-10 0 -40 -6
l-15 -25t-9 -25q-8 -24 6 -42q2 -27 10 -37q0 -5 5 -13.5t4 -13.5q8 -24 4 -53q1 -8 0.5 -14.5t-1.5 -10.5q-5 1 -9 1.5t-6 0.5q-9 0 -14 -4q-11 -2 -27 5q-20 7 -29 9q-8 2 -25.5 1.5t-26.5 2.5q-7 -1 -14 -1t-14 -1q-18 -2 -27 -9q-17 -9 -17 -41q0 -4 -0.5 -7.5
t-1.5 -8.5q2 0 12 -19q6 -12 16 -16q15 -11 60 -4q6 10 22 9h34q12 -1 19.5 7t13.5 16q26 2 27 1q-5 -14 0 -32q-5 -23 -15 -42q-3 -18 -5 -31.5t-4 -23.5q-4 -5 -4 -18q0 -4 -6 -10q6 -8 6 -10q4 -20 11 -26q1 -2 2 -5t3 -6q4 -4 0 -11q11 -12 14 -19q1 -6 1.5 -12t1.5 -11
q10 -13 10 -19q-1 -5 -1.5 -11t-0.5 -13q1 -20 1.5 -27t0.5 -2q0 -18 -11 -24l-12 -2t-13 -2q-13 0 -22 10q-15 -2 -32 6q-20 7 -30 9q-22 12 -64 8q-41 -30 -42 -63q4 -5 6 -14.5t9 -14.5q2 -8 12 -12t12 -6q10 -3 21 -3q16 0 52 16q15 -4 28 -1q11 10 35 8q37 -3 44 -2
q-1 -18 -6 -35q2 -8 -5 -24l-8.5 -35t-5.5 -26q0 -1 -0.5 -6.5t-1.5 -15.5q-2 -13 2 -22q-1 -5 2 -13.5t1 -14.5q11 -20 11 -24q1 -1 6 -4t14 -9q10 -7 23 -7q3 3 9.5 4.5t13.5 2t14 1.5t11 3q17 11 17 32q0 31 1 32q8 20 1 56q0 7 -7 39q-10 6 -12.5 19l-4.5 23q0 3 8 14
q-7 6 -7 7v8q-3 -1 3 -1t20 -1q17 -5 46 -3q31 1 45 0l5 -3q17 -11 31 -5q3 3 31 14q18 7 26 24q6 10 1 23q0 8 -6 14.5l-12 12.5q-5 15 -17 16q-20 3 -21 4q-18 1 -45 -6q-16 -4 -27 -5.5t-17 -2.5q-20 -12 -48 -15q-9 -8 -15 -9z" />
    <glyph glyph-name="circumflex" unicode="&#x2c6;" 
d="M371 526q20 0 20 21q0 10 -15 24q-27 21 -32 26q-2 2 -8.5 11.5l-17.5 26.5l-17.5 24t-14.5 15q-3 11 -13.5 20t-20.5 9t-29 -8q-9 -2 -13 -5l-7 -3q-15 -6 -37 -38q-29 -42 -32 -45q-2 -2 -9.5 -8.5t-21.5 -17.5q-15 -14 -15 -24q0 -21 20 -21q17 0 68 27q39 30 61 52
q12 -9 33 -31q24 -24 33 -28q51 -27 68 -27z" />
    <glyph glyph-name="perthousand" unicode="&#x2030;" horiz-adv-x="1060" 
d="M342 536v42q0 40 -51 81q-47 36 -87 38q-56 1 -54 0q-39 3 -84 -40q-54 -51 -54 -127q0 -63 49 -99t128 -38q40 -1 92 37q61 45 61 106zM584 660q6 10 6 17q0 13 -34 31q-13 7 -96 -56q-16 -40 -32.5 -75t-34.5 -66q-11 -20 -31.5 -53l-49.5 -78q-34 -52 -86 -115
l-53.5 -65t-36.5 -48q-8 -12 -54 -49q-34 -28 -34 -46q0 -10 8 -21q-2 -4 -2 -7q0 -17 30 -29q10 -2 15 -2q25 0 45 26l24 32l136.5 184.5l95.5 135.5l62 87l63 88q67 94 59 109zM652 146v41q0 40 -51 81q-47 36 -87 38q-54 1 -53 0q-39 3 -84 -40q-54 -50 -54 -126
q0 -62 50 -100q48 -36 126 -37q40 -1 92 37q61 43 61 106zM248 481q0 -9 -15 -24t-25 -15q-20 0 -64 50q-49 55 -49 103q0 58 63 58q42 0 71 -75q19 -51 19 -78v-19zM559 90q0 -9 -16 -24q-16 -14 -25 -14q-20 0 -64 50q-49 55 -49 103q0 57 64 57q42 0 71 -75
q19 -50 19 -78v-19zM1023 145v41q0 40 -51 81q-47 36 -87 38q-54 1 -53 0q-39 3 -84 -40q-54 -50 -54 -126q0 -62 50 -100q48 -36 126 -37q40 -1 92 37q61 43 61 106zM930 89q0 -9 -16 -24q-16 -14 -25 -14q-20 0 -64 50q-49 55 -49 103q0 57 64 57q42 0 71 -75
q19 -50 19 -78v-19z" />
    <glyph glyph-name="Scaron" unicode="&#x160;" horiz-adv-x="652" 
d="M636 228q0 139 -289 224q-145 43 -145 106q0 37 37 59q34 21 75 21q56 0 138 -55q83 -55 107 -55q26 0 26 27q0 23 -28 54q-9 10 -18 19t-18 19q-51 79 -59 79t-27 -15q-20 -14 -33 -14q-16 0 -56 10t-64 10q-113 0 -182 -73q-57 -60 -57 -121q0 -51 47 -113
q55 -73 142 -105l45 -15l45 -14q64 -23 99 -48q47 -35 47 -80q0 -16 -8 -29t-21.5 -22t-30.5 -14t-35 -5h-64q-51 0 -111 39q-26 16 -92 72q-47 39 -66 39q-35 0 -35 -27q0 -25 29 -69q8 -13 17 -25.5l18 -25.5l10.5 -30t10.5 -31q13 -36 36 -36q13 0 30 20q16 21 43 21
q15 0 59 -18q45 -18 98 -18h14t15 1q99 7 143 41l39 38l39 38q30 22 30 121zM194 963q-20 0 -20 -21q0 -11 16 -23q25 -23 30 -27q3 -3 27 -38l17.5 -24t14.5 -15q3 -10 13.5 -19t20.5 -9q12 0 29 7q9 2 13 5l7 3q16 7 38 38q14 22 22 33t10 13t9 8.5t21 17.5q15 12 15 23
q0 21 -20 21q-17 0 -68 -27q-39 -30 -61 -52q-12 8 -34 32q-23 23 -32 27q-51 27 -68 27z" />
    <glyph glyph-name="guilsinglleft" unicode="&#x2039;" horiz-adv-x="278" 
d="M159 116l8 -11h-1l2 -2q2 -3 5 -5q2 -5 8 -8l3 -1q-1 1 -1 2l9 -7q-2 0 10 -12q19 -13 40 -8q8 8 9 13q1 4 0 10q-1 5 -1 8v5l-10.5 18.5t-13.5 13.5q-5 0 -7 5q-5 13 -10 19q-1 5 -7 11.5t-6 10.5q-3 4 -6 7.5t-6 5.5q-16 13 -19 26q-20 7 -25 24q-2 2 11 16
q23 26 23 27l17 13.5t11 10.5q14 24 23 32q24 24 32 36q9 18 -3 35q-18 13 -31 3l-3 -2q-6 -6 -10 -8l-3 -1q-8 -4 -13 -8.5t-9 -15.5q-5 -3 -8 -5t-5 -4q-15 -11 -17 -16q-20 -18 -22 -18q-32 -33 -50 -47q-36 -27 -52 -43q0 -6 -1 -7q-4 -5 -4 -12q0 -8 15 -24
q11 -2 20 -11.5l17 -18.5q3 -7 16.5 -15t16.5 -16q7 -3 21 -14.5t23 -12.5l4 -2v3z" />
    <glyph glyph-name="OE" unicode="&#x152;" horiz-adv-x="1162" 
d="M1179 157q0 25 -30 25q-29 0 -70 -31q-60 -43 -90 -56q-66 -31 -158 -31q-75 0 -103 24q-31 25 -31 100q0 9 2 19.5t2 23.5v25q-1 8 -1 13v10q8 25 12 46q4 4 13 4q24 0 29 -24l6 -23.5t5 -22.5q10 -25 43 -25q9 0 18 5.5t16 14t11.5 19t4.5 20.5q0 9 -10 36v71
q0 18 6 50q6 31 6 42q0 33 -40 33q-39 0 -39 -58v-18q0 -8 -8.5 -21t-16.5 -13q-55 0 -55 126q0 42 20.5 58t71.5 16q82 0 149 -32q17 -8 39.5 -22.5t50.5 -36.5q43 -32 65 -32q14 0 23.5 12t9.5 28q0 20 -30 58q-22 26 -34 42.5t-16 21.5l-30 57q-20 35 -34 35t-42 -24
q-27 -24 -72 -21l-168 13l-95 -4q1 0 -27 6q-27 6 -44 6q-34 0 -54 -14q-63 23 -130 23q-135 0 -220 -75q-69 -60 -99 -162l-8 -19.5l-8 -19.5q-12 -35 -12 -60v-113q0 -36 30 -91q33 -59 77 -93q13 -11 25.5 -23t25.5 -23q18 -16 37.5 -27.5t39.5 -19.5q58 -21 140 -21
q42 0 89 16q14 -8 37 -8l235 4q48 1 90 -1.5t80 -9.5q52 -9 94 -24l28 -10.5l9 -3.5q27 0 38 30q16 45 24 55q73 83 73 125zM566 231q0 -76 -33 -113l-2 -2q-37 -43 -123 -43q-35 0 -70 32q-33 32 -100 126q-13 17 -44 104q-38 105 -38 151q0 65 51 113q48 45 107 45
q43 0 96 -53q55 -57 105 -156l9.5 -21t8.5 -20q-2 -21 12 -33q2 -9 5 -18t5 -18q3 -14 11 -20v-74zM533 118l-2 -2z" />
    <glyph glyph-name="quoteleft" unicode="&#x2018;" horiz-adv-x="208" 
d="M192 562q0 22 -20 48q-22 31 -48 26q-8 -2 -8 3q0 7 25 41q26 35 26 47q0 13 -20 11q-63 -5 -96 -93q-27 -74 -27 -83q0 -18 7.5 -33.5t20.5 -27t29 -18t34 -6.5q32 0 57 37q20 29 20 48z" />
    <glyph glyph-name="quoteright" unicode="&#x2019;" horiz-adv-x="208" 
d="M194 646q0 18 -7.5 33.5t-20.5 27t-29 18t-34 6.5q-31 0 -56 -36q-21 -30 -21 -49q0 -22 20 -48q22 -31 48 -26q8 2 8 -3q0 -6 -26 -41q-25 -34 -25 -47t20 -11q63 4 96 93q27 73 27 83z" />
    <glyph glyph-name="quotedblleft" unicode="&#x201c;" horiz-adv-x="420" 
d="M404 554q0 22 -20 48q-22 31 -48 26q-8 -2 -8 3q0 7 25 41q26 35 26 47q0 13 -20 11q-63 -5 -96 -93q-27 -74 -27 -83q0 -18 7.5 -33.5t20.5 -27t29 -18t34 -6.5q32 0 57 37q20 29 20 48zM192 554q0 22 -20 48q-22 31 -48 26q-8 -2 -8 3q0 7 25 41q26 35 26 47
q0 13 -20 11q-63 -5 -96 -93q-27 -74 -27 -83q0 -18 7.5 -33.5t20.5 -27t29 -18t34 -6.5q32 0 57 37q20 29 20 48z" />
    <glyph glyph-name="quotedblright" unicode="&#x201d;" horiz-adv-x="420" 
d="M406 646q0 18 -7.5 33.5t-20.5 27t-29 18t-34 6.5q-31 0 -56 -36q-21 -30 -21 -49q0 -22 20 -48q22 -31 48 -26q8 2 8 -3q0 -6 -26 -41q-25 -34 -25 -47t20 -11q63 4 96 93q27 73 27 83zM194 646q0 18 -7.5 33.5t-20.5 27t-29 18t-34 6.5q-31 0 -56 -36q-21 -30 -21 -49
q0 -22 20 -48q22 -31 48 -26q8 2 8 -3q0 -6 -26 -41q-25 -34 -25 -47t20 -11q63 4 96 93q27 73 27 83z" />
    <glyph glyph-name="bullet" unicode="&#x2022;" horiz-adv-x="236" 
d="M198 318q0 18 -7.5 33.5t-20.5 27t-29 18t-34 6.5q-31 0 -56 -36q-21 -30 -21 -49q0 -20 21 -47t47 -27q45 0 72.5 21t27.5 53z" />
    <glyph glyph-name="endash" unicode="&#x2013;" horiz-adv-x="584" 
d="M556 292q9 68 -68 68q-6 0 -16 -1.5l-20.5 -3t-19.5 -2.5t-14 -1q-9 0 -24.5 4.5t-23.5 4.5q-6 0 -15.5 -2.5t-19.5 -5.5l-19.5 -6t-15.5 -3q-19 -2 -42.5 -0.5t-52.5 5.5q-65 9 -85 9q-33 0 -56 -10q-35 -15 -40 -44q-3 -24 13 -43.5t39 -20.5q36 -2 95 7q66 9 93 9
q12 0 23 -1t21 -3q32 -3 55 -4t37 0q7 0 17.5 -2.5t21 -4.5t20 -4t15.5 -2q11 0 26 5q52 21 56 52z" />
    <glyph glyph-name="emdash" unicode="&#x2014;" horiz-adv-x="712" 
d="M684 292q9 68 -68 68q-5 0 -23.5 -1t-52.5 -3t-58.5 -3t-41.5 -1q-8 0 -18 1.5l-20 3t-19 3t-13 1.5q-6 0 -15.5 -2.5t-19.5 -5.5l-19.5 -6t-15.5 -3q-19 -2 -42.5 -0.5t-52.5 5.5q-65 9 -85 9q-33 0 -56 -10q-35 -15 -40 -44q-3 -24 13 -43.5t39 -20.5q36 -2 95 7
q66 9 93 9q12 0 23 -1t21 -3q32 -3 55 -4t37 0h117q32 0 60 -2t51 -6q21 -3 37 12.5t19 39.5z" />
    <glyph glyph-name="tilde" unicode="&#x2dc;" horiz-adv-x="580" 
d="M495 556q29 0 29 18q0 25 -112 74q-21 10 -45 10q-32 0 -97 -31q-66 -32 -110 -27q-10 1 -27.5 7.5t-27.5 6.5q-25 0 -25 -12q0 -13 44 -37q19 -10 35.5 -17t32.5 -12q21 -6 40 -6q33 0 92 30q55 28 96 24q16 -2 38 -15q23 -13 37 -13z" />
    <glyph glyph-name="trademark" unicode="&#x2122;" horiz-adv-x="1150" 
d="M628 565q4 -7 11 -12q1 -4 3 -7.5t4 -7.5l10 -23t3 -25q7 -4 9 -9t3 -11q9 -3 13 -10l2 -4q2 -3 4 -5.5t4 -4.5q4 -12 10 -18l2 -9q15 -18 15 -36q6 -4 7 -7l1 -2q1 -8 6 -12q0 -5 2.5 -15t2.5 -17l18 -13q10 -7 19 -7q4 0 10 2q28 19 26 37q13 28 24 34q3 9 14.5 22
t15.5 22q4 3 9 14q4 7 14 12q2 9 4 11l2 3q8 11 8 19q0 1 3 4.5t6.5 8t7 9.5t3.5 8l17 27l12 19q0 -2 0.5 -5.5t1.5 -8.5v-2q0 -4 1 -6q-2 -16 -3 -27t-2 -19q1 -8 0 -24q-2 -16 1 -23q-2 -9 1 -18l1 -3q1 -3 -2 -9q3 -8 3 -15t-4 -22t-4 -24q-8 -4 -13.5 -6t-9.5 -4
q-5 -6 -16 -6q-28 -2 -35 -6q-10 -18 -5 -43q13 -9 27 -9q7 0 20 4t20 3q7 -3 15 -3t20 4.5t18 3.5q13 -7 41 -9l31.5 -1.5l10.5 -0.5q5 0 16.5 -1.5t16.5 -1.5q15 0 23 9q6 10 0 39q-14 7 -28 12t-28 7q-3 -3 -16 6q-1 2 -2 5.5t-3 7.5l-2 3q-1 1 1 8q-6 6 -4 12q3 12 3 15
q-1 4 -0.5 9.5t1.5 13.5q3 15 0 26v4q0 3 1 8v12q-2 9 -5 12v22q0 10 1 16v22q1 8 1 13v9v34q1 28 0 41q0 3 3.5 5.5t8 4.5t9 3.5t6.5 3.5q16 3 30.5 9t13.5 23q-2 5 -3 9t-2 9q-21 8 -31 8q-18 0 -43 -9q-8 -5 -33 -5q-24 1 -39 -7q-17 -20 -22 -29q-8 -11 -14.5 -18
t-10.5 -12q-6 -5 -9 -12l-1 -4q-2 -6 -8 -8q-3 -16 -13 -29.5l-20 -27.5q-2 -5 -7 -12.5l-10 -15.5l-10 -15.5t-7 -13.5q-13 -18 -17 -27l-3 -4.5t-8 -13.5q-7 -12 -13 -14q-4 6 -6 11q-5 3 -7.5 9t-5 13t-5.5 13.5t-7 9.5q0 5 -2.5 10.5t-1.5 13.5q-14 17 -16 26
q0 8 -12 20l1 8q-7 4 -8 12t-3 14q-1 7 -7 12.5t-6 11.5q0 5 1 8q-12 3 -13 6q-2 4 -3.5 7.5t-3.5 7.5q-8 8 -10 17q-10 21 -19 32q-35 5 -68.5 8t-67.5 2q-4 0 -12 1t-12 1q-11 -3 -17 -11l-2 -4.5t-7 -12.5q13 -28 45 -28h19q6 0 11 -0.5t10 -1.5l1 -4q4 -11 1 -23
q8 -5 8 -9q1 -5 1 -8q0 -2 1 -4q0 -11 -3 -27q-2 -11 -3 -17.5t-2 -8.5q-1 -11 -1.5 -19t0.5 -13q-1 -8 -1.5 -11.5t-0.5 -4.5q-1 -22 0 -32q1 -15 0 -22q-8 -26 -6 -38q0 -6 -4.5 -17t-4.5 -17q0 -9 6 -16q2 -5 -9 -13l-5 -4q-4 -4 -8 -6q-17 -5 -27 -6q-33 -8 -33 -31
q0 -8 6 -15l3 -2q1 -1 1.5 -2t1.5 -2q7 -6 15 -6q3 0 23 7l2 1q8 -4 25 -4q7 0 21.5 2.5t22.5 2.5q9 0 26 -1.5t24 -1.5q20 0 35 4q23 8 23 28q0 23 -34 23q-15 0 -24 6l-19 13v1q-1 8 -0.5 14.5t1.5 10.5q-5 5 -3 13q2 4 3 7t2 7q-1 5 0.5 16l3.5 27q3 8 0 16q-2 8 1 11
q-2 26 -2 46t1 33v1zM40 697l-14 -45t-8 -32q6 -17 13 -18q21 -7 37 9q0 -3 -2 -11q23 47 47 48q13 9 38 8q38 0 41 1v-13q0 -5 1 -10v-11v1q-6 -13 0 -20q1 -11 0.5 -18t-1.5 -10q5 -18 5 -23q-3 -23 -6 -30q6 -7 5 -11q-1 -7 -1 -10t0 -2q-2 -5 -1.5 -15t-2.5 -17
q7 -6 6 -12q0 -10 -0.5 -17t-1.5 -12q-6 -14 -2 -35q-9 -34 -8 -38q-6 -4 -7 -5q-21 -14 -33 -15q-24 -8 -24 -40q10 -16 35 -16q54 8 82 9q51 -9 88 -2q5 3 9 8l2 2l3 3q4 24 -1 35q-29 12 -44 10q-5 4 -9.5 7t-6.5 5q-2 11 2 23q-3 4 -3 10q0 3 3 15q3 8 1 16q1 4 1.5 17
t0.5 36l-3 -6q0 2 -1 3q-2 16 2 26t2 22q-1 13 0 19q-1 11 -1 20v14q-1 8 -1 14v11q5 26 -1 36q7 18 1 32q1 1 3 1q15 -5 41 -7h42q5 -1 8.5 -2t5.5 -2q5 -22 5 -24q3 -24 25 -24q7 0 17 5q4 5 7 12t5 14.5t3 13.5t3 9q4 21 12 30q-1 10 -1.5 16.5t-0.5 11.5q-9 15 -21 15
q-14 0 -36 -19q-11 -2 -18 3q-30 -7 -66 -4q-4 -2 -13 3.5t-17 5.5q-3 0 -9 -2q-20 -9 -49 -9h-55q-9 4 -41 1q-27 -2 -38 9q-5 1 -8.5 2t-5.5 2q-11 4 -22 1q-11 -4 -13 -17q-4 -4 -5 -11z" />
    <glyph glyph-name="scaron" unicode="&#x161;" horiz-adv-x="348" 
d="M342 115q0 101 -95 193q-95 68 -95 92q0 20 18 20q14 0 50 -39q38 -38 53 -38q7 0 17 6t10 16q-19 127 -47 127q-3 0 -9 -3.5l-12.5 -7l-13.5 -7t-13 -3.5q-8 0 -29 7.5t-48 7.5q-46 0 -78 -29q-31 -28 -31 -63q0 -58 49 -114l45.5 -46l45.5 -46q49 -52 49 -99
q0 -13 -11 -23t-21 -10q-26 0 -70 50q-44 51 -58 51q-26 0 -26 -27q27 -156 53 -156q18 0 30 12t32 12q11 0 40 -6l28 -6q51 0 94 37t43 92zM37 707q-20 0 -20 -21q0 -11 16 -23q25 -23 30 -27q3 -3 27 -38l17.5 -24t14.5 -15q3 -10 13.5 -19t20.5 -9q12 0 29 7q9 2 13 5
l7 3q16 7 38 38q14 22 22 33t10 13t9 8.5t21 17.5q15 12 15 23q0 21 -20 21q-17 0 -68 -27q-39 -30 -61 -52q-12 8 -34 32q-23 23 -32 27q-51 27 -68 27z" />
    <glyph glyph-name="guilsinglright" unicode="&#x203a;" horiz-adv-x="278" 
d="M127 362l-8 11h1l-2 2l-4.5 6.5t-8.5 6.5l-3 1q1 -1 1 -2l-9 7q2 0 -10 12q-19 13 -40 8q-8 -8 -9 -13q-1 -4 0 -10q1 -5 1 -8v-5l10.5 -18.5t13.5 -13.5q5 0 7 -5q4 -14 10 -19q1 -5 7 -11.5t6 -10.5q3 -4 6 -7.5t6 -5.5q16 -13 19 -26q20 -7 25 -24q2 -2 -11 -16
q-23 -26 -23 -27l-17 -13.5t-11 -10.5q-14 -24 -23 -32q-24 -24 -32 -36q-9 -18 3 -35q18 -13 31 -3l3 2q6 6 10 8l3 1q8 4 13 8.5t9 15.5q5 3 8 5t5 4q15 11 17 16q19 18 22 18q32 33 50 47q36 27 52 43q0 6 1 7q4 5 4 12t-15 24q-11 2 -20 11.5l-17 18.5q-3 7 -16.5 15
t-16.5 16q-7 3 -21 14.5t-23 12.5l-3 3q-1 -1 -1 -4z" />
    <glyph glyph-name="oe" unicode="&#x153;" horiz-adv-x="908" 
d="M898 308q0 98 -177 163q-7 10 -31 10q-19 0 -43 -6q-10 -5 -82 -27q-48 -15 -81 -35q-83 67 -151 68q-49 1 -51 -1t-38 1q-65 5 -140 -66q-90 -84 -90 -211q0 -105 83 -167q79 -58 211 -61q29 -1 75 17q25 10 48 23t43 30q85 -64 202 -64q66 0 122 35q42 28 73 70
q24 34 24 46q0 15 -13 25t-22 10q-21 0 -40 -27q-15 -20 -26 -33t-18 -19q-35 -27 -90 -27q-37 0 -77 32q-45 36 -49 88q3 13 3 29q7 21 25 34q7 6 17 10h142q14 0 67 -9q84 0 84 62zM760 333q0 -12 -15 -19t-27 -7h-110q-11 0 -25 11q-18 13 -18 35q0 17 39 35q38 19 69 19
q39 0 66 -33q21 -26 21 -41zM407 121q0 -14 -26 -40q-26 -24 -41 -24q-35 0 -108 84q-81 93 -81 171q0 96 106 96q61 0 109 -101q41 -87 41 -154v-32zM354 61q-9 -4 -14 -4q7 0 14 4z" />
    <glyph glyph-name="Ydieresis" unicode="&#x178;" horiz-adv-x="784" 
d="M779 678q0 46 -70 46q-29 0 -45 -4.5t-22 -4.5q-24 0 -27 4q-3 5 -32 5q-23 0 -40 -10t-17 -24q0 -23 22 -39q23 -15 23 -21t-56 -67q-56 -59 -66 -59q-20 0 -78 54q-59 54 -59 72q0 10 19 20q20 11 20 28q0 18 -23 32q-20 11 -35 11q-11 0 -43 -2t-68 -2q-5 0 -15.5 0.5
t-27.5 1.5t-31 1.5t-26 0.5q-44 0 -71 -43q0 -23 33 -41q14 -7 28 -13t28 -13l153 -178q62 -47 62 -73v-65q0 -24 11 -46v-131q-8 -18 -45 -34q-31 -13 -31 -37q0 -57 76 -57q15 0 30 1.5t28.5 4t24 4t15.5 1.5q9 0 34 -5.5t62 -5.5q76 0 76 45q0 32 -41 53q-48 24 -54 36
l-3 62v149q0 68 184 273l26 10l26 10q45 19 45 50zM592 876q0 38 -17 64q-21 30 -61 30q-32 0 -61 -35q-21 -27 -21 -36q0 -53 27 -81q22 -24 51 -24q39 0 60.5 23t21.5 59zM370 864q0 53 -28 81q-23 24 -50 24q-39 0 -60.5 -23t-21.5 -59q0 -38 17 -64q21 -30 61 -30
q32 0 61 35q21 27 21 36z" />
    <glyph glyph-name="exclamdown" unicode="&#xa1;" horiz-adv-x="244" 
d="M210 642q0 21 -21 50q-24 32 -49 32q-45 0 -71.5 -24t-26.5 -58q0 -18 7 -33.5t20 -27t29 -18t34 -6.5q31 0 56 37q20 28 22 48zM211 140q-10 78 -15.5 131t-7.5 81q-2 38 -4 59t-3 26q-11 50 -41 57q-4 1 -10 1q-24 0 -41 -44q-1 -3 -7.5 -28.5l-19.5 -74.5
q-7 -72 -12.5 -122.5t-10.5 -81.5q-1 -8 -1.5 -15t-0.5 -15q0 -51 20 -85q25 -39 74 -40q83 -2 83 99q0 22 -3 52z" />
    <glyph glyph-name="cent" unicode="&#xa2;" horiz-adv-x="500" 
d="M360 82v1q-2 -2 -4 -2.5t-4 -1.5q-19 -17 -54 -17q-6 0 -45 3l-2 1v-1l-4 8q-2 1 -3.5 2t-3.5 2l-2 1q15 27 17 50q12 17 14 34q9 12 9 27q2 2 2 5l1 3q-3 0 -4 -1l7 10q-2 -2 0 -3q4 4 4 6q4 8 6 14q6 5 7.5 9.5t0.5 10.5q0 2 1 2l-1 10l1 -1q6 8 5 15q5 8 9.5 18
t6.5 21q3 2 5 5t3 10v2q2 2 3 4h2q14 -11 29 -21.5t35 -13.5q23 3 40 27q8 8 8 20q0 14 -9 35q-9 2 -10 5q-4 7 -7.5 11t-5.5 6l-24 17.5t-29 10.5q2 6 2 10q10 19 12 30l-6 -33q23 75 25 80q7 13 6 25q4 4 2 12q-2 21 -33 21q-18 0 -26 -13l-16 -27q0 -14 -10 -27
q0 -3 -3 -11t-1 -13q-6 -26 -21 -49q-61 -13 -83 -15l-28 -14t-20 -11q-11 -12 -16 -15q-2 -5 -5 -8l-3 -2q-4 -4 -5 -8q-5 -3 -12 -11l-2 -3q-1 -2 -6 -4q-19 -20 -23 -33q-6 -7 -8 -15v-3q1 1 1 2l-3 -10v2l-2 -1q-9 -8 -8 -14q-2 -6 -2 -17l-2 -14v-4q0 -10 3 -17
q-6 -11 -3 -18q-2 -8 -2 -41v-14l2 3q4 9 -25 20l-12 4q24 -14 35 -22l2 -2l9 -8v-4q2 -9 6 -13q1 -5 1 -26q0 -16 4 -27q8 -5 13 -7.5t6 -3.5q5 -7 13.5 -11t8.5 -17q13 -5 17 -14l4 -8l-1 -1.5t-3 -5.5q1 -7 -1 -11l-4.5 -7.5t-2.5 -3.5q-1 -4 -1.5 -6.5t-0.5 -4.5
q0 1 1 1l-6 -10q0 -1 -1.5 -4.5l-3.5 -8t-4 -8.5t-2 -5q-6 -6 -7 -14v-2q-2 0 -6 -3v-17q0 -9 4 -17q14 -13 31 -13q14 0 23 11q9 5 6 16q3 3 5 8q5 5 5 16q0 3 7 4q-1 10 3.5 19t4.5 18q10 15 11 20q6 7 21 6q24 -3 23 -3q5 -1 9.5 -1.5t7.5 -0.5q-2 0 13 3t49 8l72 53.5
t32 25.5q1 7 21 25q16 15 16 30q0 11 -4 18q-5 12 -31 12q-6 -4 -11.5 -9l-10.5 -10q-38 -41 -48 -45zM248 278l-3 -12q0 2 -1 3l-1 -1q-6 -9 -5 -16q-7 -7 -5 -13q-5 -5 -4 -11q-4 -4 -4 -13l-6 -14q0 -2 -1 -3l-1 -2q-2 -6 -2 -8q-3 -5 -3 -9q-4 -6 -7 -7q2 -15 -11 -39
q0 -8 -3 -15q-1 6 -8 13l-4 4q-6 6 -7 18v1v3q0 13 -6 18q-4 27 -7 43.5t-7 23.5q6 22 6 27q2 13 4 18q-1 6 1 12t5 10.5l6 9t3 7.5h1q15 4 18 13q17 11 38 14q13 -7 34 -7q4 0 6 1h-1q4 7 1 9l-1 -1q-2 -4 -2 -7q-5 -19 -10 -32.5t-9 -22.5q-6 -5 -6 -17z" />
    <glyph glyph-name="sterling" unicode="&#xa3;" horiz-adv-x="520" 
d="M220 310q4 5 5 11l-1 1v1q71 0 101 18q10 7 10 31q-5 20 -26 18q-20 -1 -33 -1.5t-21 -0.5q-26 0 -44 3q-4 20 -6 32q2 8 2 67q-7 5 -5 13q3 19 0 27v2q0 5 -2 13q-5 14 -3 23q6 24 4 36q0 17 13 33q5 7 11 14t11 14q14 3 53 -1q7 -5 11 -8.5t6 -5.5q3 -14 -3 -28
q7 -5 5 -7l-1 -3q-1 -4 1 -12q-2 -12 7 -22l3 -4q3 -5 3 -10q11 -13 28 -14q13 -2 18 -7q51 13 67 61v6q0 8 -3 13q2 14 -11 24q-8 6 -8 16q-25 9 -28 35q-17 21 -46 13q-10 8 -19 11q-61 6 -97 -3q-23 -15 -28 -15q-9 -7 -16 -15l-21 -24t-8 -9q-18 -17 -27 -24
q-16 -31 -22 -92q-10 -40 -10 -107q7 -13 7 -21q-3 -6 0 -13q2 -7 -4 -15q-9 2 -23 0q-9 -1 -14.5 -1.5t-7.5 -0.5q-5 0 -14.5 1t-14.5 1q-10 -2 -15 -4q-13 -12 -13 -31q0 -4 1 -7l3 -8q14 -11 44 -11q2 0 14.5 1t18.5 1q23 0 38 -9q3 -32 6 -49q-2 -8 -2 -13q0 -8 3.5 -23
t3.5 -22t-3 -13q-15 -62 -21 -101q-3 -3 -9.5 -5.5t-14 -6l-15 -7t-11.5 -7.5q-2 -3 -27 -36q-14 -20 -14 -45q9 -8 9 -16l9 -6q11 -8 26 -8q9 5 35 14q23 8 33 19l2 5q10 13 17 23t11 18q7 3 14 3q11 0 35 -9q24 -15 38 -18l27.5 -15.5t19.5 -10.5q8 0 20 -10t20 -12h10
q5 1 12 1q25 0 39 6q17 11 25.5 17t9.5 7q13 3 24 14q1 2 4.5 8t10.5 17l29.5 29.5l20.5 20.5q-3 9 -1 14q8 23 -7 32q-14 5 -25 7q-20 -17 -29 -23q0 -5 -7.5 -10.5t-9.5 -10.5q-32 -17 -45 -15q-9 -3 -24 -3q-5 0 -11.5 0.5t-15.5 1.5q-9 2 -16 2.5t-12 1.5l-14.5 3
t-25.5 4q-24 4 -39 11q-12 -4 -18 -4q-21 15 -35 10q1 6 3 9q13 21 11 54l3 2q3 3 5 8q19 16 15 56q1 3 2.5 10.5t4.5 20.5l3.5 17.5t1.5 14.5q0 6 -1 10v2z" />
    <glyph glyph-name="currency" unicode="&#xa4;" horiz-adv-x="500" 
d="M395 108l44 44l-71 71q29 41 29 94q0 54 -29 94l71 71l-44 44l-71 -71q-41 29 -94 29q-50 0 -94 -29l-71 71l-44 -44l71 -71q-29 -38 -29 -94q0 -53 29 -94l-71 -71l44 -44l71 71q38 -29 94 -29q51 0 94 29zM230 427q22 0 42 -9t35 -24t23.5 -35t8.5 -42q0 -43 -32 -77
q-32 -33 -77 -33q-44 0 -77 33q-32 34 -32 77t32 77q33 33 77 33z" />
    <glyph glyph-name="yen" unicode="&#xa5;" horiz-adv-x="631" 
d="M335 352q-5 1 -11 1h-3l-1 1q-6 11 -8.5 17.5t-6.5 12.5l-3 4q-5 8 -9.5 14.5t-8.5 13.5q1 8 -7 18l-3 2q-2 1 0 9q-10 4 -11 10q-5 16 -13 20q-5 4 -8.5 8t-2.5 12q-14 15 -15 22q-19 32 -19 43l-7 12v2h32q19 3 26 16q4 10 -6 33q-7 10 -17 10q-35 0 -110 -3
q-19 -1 -29.5 -2t-12.5 -2q-3 -1 -9 -1t-19 3.5t-21 3.5t-15 -3q-17 8 -27 -2q-15 -15 -9 -35q5 -6 9.5 -10.5l7.5 -7.5q12 -3 26 -3q23 2 26 0q13 -1 19 -15q12 -7 16 -17l9 -8q11 -9 16 -25q9 0 10 -7t9 -14q1 -5 6 -10l3 -3q2 -2 -1 -10q12 -5 17 -14l1 -4q4 -7 8 -11.5
t7 -9.5q2 -3 -1 -10q10 -13 16 -22.5t10 -16.5q3 -3 5 -4l1 -1l1 -1q1 -1 1 -9q3 -1 9 -5q-2 0 -7.5 -0.5t-14.5 -1.5q-13 -1 -22 0q-5 -1 -14 -1.5t-23 0.5q-23 1 -37 -5t-16 -24q-3 -23 10.5 -29.5t31.5 -6.5q8 0 40 3q24 1 39 0q10 -3 48 -2l3 1v-3q12 -17 12 -22v-22
q1 -9 1 -15v-9q-2 0 -8 -2q-5 -1 -9 -1h-7q-8 0 -11 1q-11 4 -31 1q-17 -3 -29 -1q-5 -1 -14 -1.5t-23 0.5q-23 1 -37 -5t-16 -24q-3 -23 10.5 -29.5t31.5 -6.5q8 0 40 3q24 1 39 0q7 -2 14.5 -3.5t16.5 -0.5q8 1 16 1t16 1v-1q2 -8 1 -24.5t3 -26.5q-6 -24 -12 -36l-13 -13
q-17 -2 -28 -3.5t-16 -1.5h-15l-7 -5q0 1 1 2q-26 -7 -10 -44q10 -9 23 -9q4 0 13 2t14 1q13 -1 28 -1.5t34 0.5q52 3 64 3q2 -1 8 -0.5t15 1.5q13 1 21 -3q9 0 23 -1t19 -1q21 0 35 11q1 4 2 5l1 4q3 7 1 13q-2 18 -20 22q-24 6 -38 4q-7 -1 -27 7q-15 7 -18 10l-2 5
q-3 43 -3 74v8q8 2 13 3q15 -3 17 -2q6 -2 10 -2q5 0 15 2.5t14 1.5l10 4q0 -2 -1 -3h4q10 -7 31 -7q7 2 29 1q38 -2 38 27q0 -1 -7 19l-4 10q-11 9 -32 9q-24 -1 -33 2q-6 -1 -51 2q-10 -2 -23.5 -3t-30.5 -2v2q-3 20 4 74q4 1 6 1t4 1q14 -3 17 -2q6 -2 10 -2q5 0 15 2.5
t14 1.5l10 4q0 -2 -1 -3h4q10 -7 31 -7q7 2 29 1q38 -2 38 27q0 -1 -7 19l-4 10q-11 9 -32 9q-24 -1 -33 2q-7 -1 -48 2h1q10 4 12 13l11.5 19t14.5 27l48 69q16 21 22 34q14 14 16 22q14 20 22 27q9 7 35 5t40 8q11 9 11 30q-6 18 -25 19q-27 5 -31 7q-9 -3 -17 -3
q-37 0 -44 -3q-35 2 -61.5 2.5t-44.5 -0.5q-25 -10 -19 -42q4 -3 9 -8q28 -12 37 -10q9 -8 11 -14q3 -10 -7 -26q-14 -22 -15 -25l-20.5 -29.5t-13.5 -21.5q-13 -9 -22 -31t-18 -28q-11 -14 -19 -25.5t-13 -19.5z" />
    <glyph glyph-name="brokenbar" unicode="&#xa6;" horiz-adv-x="222" 
d="M132 471q14 -4 16 13q1 4 1 7t1 5q-4 4 -4 10q0 3 2.5 10.5t2.5 12.5v10q0 7 -2 27q-3 19 1 27q-2 9 0 30q1 19 -3 30q-1 2 1 18q2 12 0 20q11 40 2 73q2 6 2 8q0 18 -26 23q-20 3 -41 -7q-14 -6 -14 -23q0 2 6 -35q1 -3 -2.5 -12t-3.5 -15t3 -12q-4 -28 -3 -40
q-2 -21 -2.5 -36.5t0.5 -26.5q-1 -4 -3 -14t-2 -16q0 -7 2.5 -20t2.5 -19t-2 -12q-2 -38 28 -38h6q4 0 8 1q5 -2 23 1zM138 -26q21 25 21 37q0 8 -4 23.5t-4 23.5q-3 4 -3 10q0 1 0.5 4.5t1.5 9.5q1 7 0 15q1 14 2 23t2 13q-2 18 0 26q3 8 -1.5 19t-1.5 14q2 17 2.5 28.5
t1.5 18.5q-1 11 -1.5 15.5t-0.5 2.5q0 25 -15 25q-11 3 -18 0q-15 3 -32 -2t-17 -18q-4 -6 -2 -17q3 -10 0 -14q1 -6 1.5 -15.5t0.5 -20.5v-20t2 -16q-3 -14 -1 -58l-5 -5l2 -22.5t3 -22.5q2 -29 -1 -46q6 -9 11 -19t21 -11q3 1 14 -2t21 1z" />
    <glyph glyph-name="section" unicode="&#xa7;" horiz-adv-x="500" 
d="M444 -1q2 8 4 12v13q0 11 -1 29q0 27 -4 43q-4 3 -6.5 13.5t-10.5 15.5q-6 21 -12 38l-11 30v2v3q-2 13 -7 17q-1 6 -7 14t-6 17q-7 3 -8 7l-1 3q-3 10 -9 15q-2 9 -9 16l-2 2q-2 2 -2 6l-22.5 30t-14.5 22l-19 29.5l-13 20.5q0 10 -10 20l-3 3q-3 3 -3 9q-15 18 -21 38
q-18 39 -28 49q0 7 -8 15l-2 2l-2 2q5 -7 10.5 -13.5l10.5 -12.5q-27 36 -28 45q-1 10 -5 15q8 50 36 59q6 11 20 12l27 2q10 -6 16.5 -11l11.5 -9q11 -11 17 -14l4 -2q7 -4 10 -10q58 -9 54 -9q19 0 34 10t15 29q0 5 -1.5 15.5t-1.5 15.5q-6 22 -27 32q-26 13 -34 22
q-47 12 -68 12q-10 2 -15 2q-9 0 -26 -5t-27 -3q-15 5 -29 -12q-3 -3 -6 -5q-23 -20 -38 -28q-2 -15 -15 -22l-7 -4q-14 -8 -20 -18q-12 -12 -13 -17l-21 -27.5t-16 -18.5q-2 -7 -9.5 -19t-8.5 -20q2 -14 -6 -38q-8 -26 -8 -37q0 -9 3 -19l12 -32.5t8 -23.5q4 -20 8 -34.5
t8 -24.5q2 -9 10.5 -26.5t10.5 -27.5q13 -15 16 -29q7 -22 18 -34q2 -10 7 -17l13 -13q14 -19 18 -28q10 -16 15 -19q3 -7 9 -11l3 -3q6 -6 8 -11q14 -19 17 -29q0 -7 10 -20v-8q8 -17 11.5 -27.5t4.5 -12.5q8 -4 10.5 -14.5t4.5 -20.5q18 -21 21 -35q6 -10 2 -35
q-2 -3 -4 -10.5t-6 -18.5q-6 -18 -14 -25l-18 -9q-14 -9 -18 -8q-2 4 -6.5 7.5t-9.5 6.5l-9 5.5t-4 5.5q-18 15 -22 27q-8 2 -20 11q-9 7 -25 5q-8 -7 -21 -10.5l-25 -6.5q-16 -32 -16 -50q0 -9 1 -14l9.5 -19.5t15.5 -11.5q13 -15 40 -17q25 -18 66 -18q36 0 63 13
q2 0 22 7q12 3 20 11q13 3 21 20q4 10 11 11l26.5 24l19.5 17q0 11 10.5 23.5t12.5 20.5l5 10.5l8 17.5l8.5 19t4.5 15q9 30 8 44zM355 -45q-6 -5 -6 -10l12 10q-4 3 -5 8l-1 6q8 41 -13 62q-8 15 -13 17l-9 31.5l-7 23.5l-3 15q-8 2 -11 13t-10 15q-1 7 -13 15q-7 4 -7 14
q-10 2 -11 6l-3 4q-4 12 -14 15q-7 15 -15 20v-1l-4 12q-3 1 -6.5 11t-8.5 14q-1 5 -7 13.5t-6 15.5q-20 26 -20 33q-16 24 -18 41q-1 1 -3.5 5l-7.5 12q-6 10 -6 18l-5 5q-3 32 -15 44q-3 6 0 19q4 16 4 21q7 28 7 31q2 -14 9 -20q1 -2 2 -5t3 -6l3 -4q4 -5 2 -13l14 -25
t8 -19q8 -31 18 -41q9 -20 15 -27q8 -11 10 -18q15 -22 22 -38q16 -26 19 -34q10 -4 15 -14l3 -4q3 -7 9 -11q2 -5 4 -9.5t4 -6.5q0 -8 7 -18l2 -3q3 -5 3 -12q22 -28 26 -41q0 -6 4 -13t2 -13q12 -25 18 -43q7 -13 6 -35q-1 -17 -1 -27v-10q0 3 -0.5 -9t-1.5 -40z" />
    <glyph glyph-name="dieresis" unicode="&#xa8;" 
d="M415 645q0 38 -17 64q-21 30 -61 30q-32 0 -61 -35q-21 -27 -21 -36q0 -53 27 -81q22 -24 51 -24q39 0 60.5 23t21.5 59zM233 633q0 53 -28 81q-23 24 -50 24q-39 0 -60.5 -23t-21.5 -59q0 -38 17 -64q21 -30 61 -30q32 0 61 35q21 27 21 36z" />
    <glyph glyph-name="copyright" unicode="&#xa9;" horiz-adv-x="800" 
d="M779 388q4 19 0 30q-2 50 -43 111q-8 19 -38 50t-37 59q-7 2 -35.5 17l-79.5 41q-69 36 -122 36q-10 -2 -33.5 -5t-61.5 -6q-63 -5 -91 -21q-17 -10 -34.5 -19t-34.5 -19q-40 -22 -48 -58q-94 -78 -94 -243q0 -29 3 -64t10 -75q16 -14 32 -64q15 -42 51 -55q7 -35 36 -51
q28 -17 57 -30q46 -55 142 -55q14 0 31.5 1t38.5 3q29 4 45.5 5.5t21.5 1.5q20 15 86 39q50 19 85 60l72 102q32 52 38 124q-12 10 -4 50q7 28 7 35zM633 548q71 -129 66 -203q7 -73 -57 -176q-38 -60 -98 -92q-19 -10 -48 -19.5t-68 -17.5q-5 -1 -9.5 -1.5t-9.5 -0.5
q-16 0 -43 12q-26 12 -46 12q-29 0 -70 29l-32 24l-32 23q-3 10 -12 24.5t-23 34.5t-23 36t-11 28q-5 25 -8 47.5t-3 44.5q0 160 153 264q55 37 136 37q69 0 132 -29q13 -21 56 -43q43 -21 50 -34zM300 453q5 7 8 12.5t5 9.5q7 2 10 5l3 3q8 6 14 7q8 8 19 11.5t22 6.5h67v2
q16 -16 28 -21l2 -1q7 -10 14 -12q6 -11 7 -17t7 -13l3 -3q1 -2 0 -3l2 -15q0 3 -4 4q-8 -8 7 -22q2 -2 4 -2.5t3 -1.5l3 -7q11 -9 33 -4q13 3 16 13t5 20q-3 16 -3 43q0 2 1.5 7t1.5 9q4 12 -7 23l-3 3q-3 3 -3 10q-17 9 -18 21q-13 5 -22.5 9t-15.5 7q-23 9 -33 8
q-13 10 -24 7q-24 -3 -38 1q-13 -7 -32.5 -8t-36.5 -2l-36 -21q-23 -14 -34 -25q-15 -4 -34 -28q1 -8 0 -9q-6 -8 -12.5 -15.5t-4.5 -18.5q-4 -5 -7 -10t-7 -10q-8 -14 -6 -24q0 -9 -4.5 -18.5t-6.5 -21.5q-5 -15 -7 -18q6 -6 5 -12q-2 -13 -1 -15v-1q-5 -8 3 -14
q2 -16 -4 -32q11 -5 11 -7q2 -12 7 -16q2 -9 10 -16l2 -3q3 -2 3 -10q8 -5 10 -8l2 -4q4 -8 13 -14q3 -11 18 -17q1 -12 13 -15q9 -4 16 -5q9 -8 33 -12q22 -5 30 -13q13 -1 28.5 -1.5t35.5 -0.5q3 -1 9 -1q9 0 22.5 6.5t20.5 6.5q44 -5 56 19q4 10 20 18l12 6t13 6
q9 8 9.5 22t1.5 28q-7 11 -5.5 18.5t-4.5 18.5q-5 8 -7 12l-3 6q-4 1 -7 1.5t-6 0.5q-11 0 -25 -17q1 -6 -2 -14t-4 -11l-8.5 -16.5t-4.5 -11.5l-25 -21t-28 -11q-16 -14 -39 -14q-5 0 -14.5 1t-22.5 3q-19 10 -31 12q-2 3 -15 11q-6 3 -4 14q-9 4 -10 8q-6 14 -13 18
q-1 2 -2 5t-3 5q-4 6 0 13q-11 15 -7 40q-8 4 -9 9.5l-2 11.5q1 6 2.5 12t0.5 17l-1 4q0 4 4 8q-4 12 2 37q-1 6 9 25q5 8 0 19z" />
    <glyph glyph-name="guillemotleft" unicode="&#xab;" horiz-adv-x="515" 
d="M365 116l8 -11h-1l2 -2q2 -3 5 -5q2 -5 8 -8l3 -1q-1 1 -1 2l9 -7q-2 0 10 -12q19 -13 40 -8q8 8 9 13q1 4 0 10q-1 5 -1 8v5l-10.5 18.5t-13.5 13.5q-5 0 -7 5q-5 13 -10 19q-1 5 -7 11.5t-6 10.5q-3 4 -6 7.5t-6 5.5q-16 13 -19 26q-20 7 -25 24q-2 2 11 16
q23 26 23 27l17 13.5t11 10.5q14 24 23 32q24 24 32 36q9 18 -3 35q-18 13 -31 3l-3 -2q-6 -6 -10 -8l-3 -1q-8 -4 -13 -8.5t-9 -15.5q-5 -3 -8 -5t-5 -4q-15 -11 -17 -16q-20 -18 -22 -18q-32 -33 -50 -47q-36 -27 -52 -43q0 -6 -1 -7q-4 -5 -4 -12q0 -8 15 -24
q11 -2 20 -11.5l17 -18.5q3 -7 16.5 -15t16.5 -16q7 -3 21 -14.5t23 -12.5l4 -2v3zM187 115l8 -11h-1l2 -2q2 -3 5 -5q2 -5 8 -8l3 -1q-1 1 -1 2l9 -7q-2 0 10 -12q19 -13 40 -8q8 8 9 13q1 4 0 10q-1 5 -1 8v5l-10.5 18.5t-13.5 13.5q-5 0 -7 5q-5 13 -10 19q-1 5 -7 11.5
t-6 10.5q-3 4 -6 7.5t-6 5.5q-16 13 -19 26q-20 7 -25 24q-2 2 11 16q23 26 23 27l17 13.5t11 10.5q14 24 23 32q24 24 32 36q9 18 -3 35q-18 13 -31 3l-3 -2q-6 -6 -10 -8l-3 -1q-8 -4 -13 -8.5t-9 -15.5q-5 -3 -8 -5t-5 -4q-15 -11 -17 -16q-20 -18 -22 -18
q-32 -33 -50 -47q-36 -27 -52 -43q0 -6 -1 -7q-4 -5 -4 -12q0 -8 15 -24q11 -2 20 -11.5l17 -18.5q3 -7 16.5 -15t16.5 -16q7 -3 21 -14.5t23 -12.5l4 -2v3z" />
    <glyph glyph-name="registered" unicode="&#xae;" horiz-adv-x="600" 
d="M575 488q2 14 -1 22q0 27 -33 78q-6 13 -26 35t-26 43l-25 12l-59 29q-49 25 -89 25q-7 -2 -24 -4t-45 -4q-45 -5 -66 -15l-48 -27q-28 -16 -35 -41q-68 -57 -68 -174q0 -17 3 -41t8 -56q10 -8 22 -44q11 -30 36 -40q6 -23 26 -34.5t40 -21.5q33 -40 97 -40l27 1.5
t81 5.5q8 5 24 12.5t40 16.5q35 13 60 43l25.5 36l24.5 36q23 35 28 89q-8 7 -3 33q2 10 3.5 16.5t2.5 8.5zM460 599q46 -83 46 -141t-39 -122q-27 -42 -67 -63q-24 -13 -81 -25q-4 -1 -7 -1.5t-6 -0.5q-6 0 -14 2.5t-16.5 6t-17 6t-14.5 2.5q-19 0 -48 20l-22 16l-22 16
q-5 14 -24 41t-24 44q-7 31 -7 62q0 111 106 184q37 25 93 25q49 0 90 -19q10 -16 40 -31q28 -13 34 -22zM199 575q2 4 1 6l5 -17q1 0 1 -7l1 -2q-1 -6 0 -10q-4 -9 -2 -23q3 -13 0 -20q-1 -9 -1 -16v-11q-1 -5 -1 -15t-1 -18q0 -15 1 -17q-2 -5 0 -35q-4 -7 -3 -14
q-1 -6 0 -13v-4q-13 -1 -19 -3q-14 -10 -19 -18q0 -15 14 -24h85h21q31 0 31 23q0 2 -2 8l-1 6q-11 5 -18.5 7.5t-12.5 3.5l-2 1l-5 9h1q0 11 -1 13q4 43 6 45q4 2 6 2q1 -1 2 -3t3 -5q7 0 11.5 -7t9.5 -10q2 -5 11 -10q1 -5 4 -7l2 -2l1 1v-10q7 -10 8 -14q5 -15 10 -18
q3 -6 9 -9l2 -1q7 -25 28 -25q5 0 8 1q4 1 7 0q35 -3 46 -1q16 1 16 22q-2 16 -14.5 21.5t-24.5 11.5q-1 1 -2 1.5t-2 1.5l-2 2l-1 1q-2 2 1 17q-13 0 -15 2q-3 8 -6 11v9q-17 10 -18.5 15.5t-4.5 8.5l-2 2q0 -1 2 9q-13 7 -15 11v1q-1 2 -1.5 2.5l-0.5 0.5l4 -1l-3 -1
q-3 -2 -3 -3q2 1 4 1l2 1q7 2 11 7q11 16 21 22q11 35 13 57q-2 3 -5 6l-7 14q-3 4 -5.5 8t-4.5 8q-12 12 -17 13q-6 9 -16 10.5t-20 2.5q-15 14 -37 7q-7 -2 -22 1q-17 3 -27 0q-8 -1 -24 -1q-15 0 -38 2q-20 2 -23 -21q0 -19 17 -22q7 -1 13 -1q7 0 14 -1zM274 477
q-1 3 -1 15q2 4 2 30q0 -1 0.5 11.5l1.5 37.5q21 -1 37 -17l4 -4q2 -9 5 -12l-1 -3q-2 -11 3 -39q3 12 -2 14l2 2q-9 -5 -10 -10q-1 -2 -5.5 -8.5t-10.5 -7.5q-3 -6 -8 -7.5t-11 -2.5q-1 1 -4 1h-2z" />
    <glyph glyph-name="acute" unicode="&#xb4;" horiz-adv-x="536" 
d="M404 636q4 21 3 30q-1 7 -11 18.5t-23 11.5t-49 -16q-15 -5 -38 -38q-14 -22 -22 -33t-9 -12q-2 -2 -9.5 -8.5t-21.5 -17.5q-15 -14 -15 -24q0 -21 20 -21q17 0 68 27q100 52 107 83z" />
    <glyph glyph-name="paragraph" unicode="&#xb6;" horiz-adv-x="600" 
d="M461 -204q-1 4 -1 8q0 3 -1 5q3 10 0 17q1 5 -2 23q-2 15 0 24q-2 48 -3 83.5t1 58.5q-2 23 -4 41t-4 29q3 7 0 15q-3 6 1 10q-3 13 -3 45q-2 29 -6 44q6 19 6 57q0 41 4 58v19q1 11 -4 20q-1 4 0 25q1 14 -2 26q-1 16 0 56q1 17 0.5 31t-2.5 24q4 20 4 68
q-2 13 -2.5 22.5t-1.5 16.5q2 7 5.5 13.5l7.5 13.5q14 5 24 9t17 8q8 -2 13 -2q17 0 31.5 11.5t8.5 28.5q-11 18 -31 18q-33 -2 -36 0q-4 -1 -9 -2.5t-13 -5.5q-12 -5 -18 -4q-26 -8 -80 0q-28 -3 -49 -4t-35 0q-11 2 -42.5 1t-85.5 -3q-19 -19 -32 -22q-2 -7 -13.5 -13.5
t-15.5 -14.5q-11 -10 -16 -30q-3 -26 -7 -31q-8 -6 -10.5 -19t-6.5 -17q-6 -30 -3 -63q-13 -50 -2 -77q-2 -9 3 -20t5 -15q-1 -10 7 -23l2 -4q2 -5 1 -12q11 -5 15.5 -15t10.5 -14q12 -19 23 -28l12 -9q6 -4 7 -14q18 2 26 -2q38 -11 43 -11q13 0 24 7q27 -5 28 -9
q-5 -15 -3 -33q2 -14 3 -22t1 -10q0 -12 -3 -19q1 -12 0.5 -28.5t-2.5 -38.5q-5 -14 -3 -44q1 -15 -0.5 -26t-3.5 -19q1 -1 1 -15q2 -8 2 -14q0 -7 -2.5 -23t-2.5 -25q0 -7 2.5 -14t1.5 -17q-2 -36 3 -93q-2 -7 -15.5 -10.5t-26.5 -6.5q-27 -14 -39 -17q-7 -8 -7 -18
q0 -16 14 -27q8 -2 12 -2q5 0 15 5t17 4q11 7 42 2q30 -5 44 9q9 8 5 21l-1 1q19 15 15 60q-5 42 -2 61q5 19 2 30q-1 7 -2 12t-2 9q5 32 7 56t3 40q-1 5 -1.5 11t-0.5 12q0 7 1 16.5t3 23.5t3 24t1 17q0 8 1 23.5t1 20.5q0 20 -6 34q5 43 6 64q-4 27 -5.5 47.5t-1.5 34.5
q-4 4 -2 10q3 17 0 26q-8 17 -7 69q0 5 -0.5 11.5t-1.5 14.5q-2 14 0 22q2 13 7 28q-8 16 -8 34q0 22 10 48q2 6 2 9q19 -4 28.5 -5.5l9.5 -1.5l13 13q-1 -4 0 -16q1 -10 -3 -17q1 -54 0 -79q-2 -23 -3 -41t-1 -31q2 -5 -1 -16t-1 -19q7 -71 6 -108q-5 -13 -8 -29.5
t-2 -37.5v-69q4 -17 3 -57q0 -41 7 -59q2 -16 3 -40.5t1 -58.5v-37q0 -10 0.5 -18.5t1.5 -15.5q-2 -6 -2 -10q1 -11 -1 -13q3 -11 3 -25q0 -15 2 -23q-4 -15 -4 -56q8 -6 8 -14q14 -17 29 -17q2 0 6.5 0.5t11.5 1.5q11 2 19 0q7 0 16.5 -2.5l20 -5.5l20 -5.5t16.5 -2.5
q4 0 8.5 0.5t9.5 1.5q7 1 12.5 8t9.5 14q-2 27 -19 31q-1 1 -37 1q-8 0 -10 1q-16 19 -38 18z" />
    <glyph glyph-name="periodcentered" unicode="&#xb7;" horiz-adv-x="250" 
d="M147 244q23 7 46 32q4 15 4 30q0 36 -22 59q-11 0 -21 7l-5 3q-10 7 -20 7h-3l-2 -1h-5q-2 -1 -12.5 -3t-14.5 -10q-15 -10 -16 -13q-22 -31 -22 -44q-3 -12 3 -21q8 -14 8 -16q11 -22 36 -26q1 0 12 -1z" />
    <glyph glyph-name="periodcentered" unicode="&#x2219;" horiz-adv-x="250" 
d="M147 244q23 7 46 32q4 15 4 30q0 36 -22 59q-11 0 -21 7l-5 3q-10 7 -20 7h-3l-2 -1h-5q-2 -1 -12.5 -3t-14.5 -10q-15 -10 -16 -13q-22 -31 -22 -44q-3 -12 3 -21q8 -14 8 -16q11 -22 36 -26q1 0 12 -1z" />
    <glyph glyph-name="guillemotright" unicode="&#xbb;" horiz-adv-x="515" 
d="M333 371l-8 11h1l-2 2l-4.5 6.5t-8.5 6.5l-3 1q1 -1 1 -2l-9 7q2 0 -10 12q-19 13 -40 8q-8 -8 -9 -13q-1 -4 0 -10q1 -5 1 -8v-5l10.5 -18.5t13.5 -13.5q5 0 7 -5q4 -14 10 -19q1 -5 7 -11.5t6 -10.5q3 -4 6 -7.5t6 -5.5q16 -13 19 -26q20 -7 25 -24q2 -2 -11 -16
q-23 -26 -23 -27l-17 -13.5t-11 -10.5q-14 -24 -23 -32q-24 -24 -32 -36q-9 -18 3 -35q18 -13 31 -3l3 2q6 6 10 8l3 1q8 4 13 8.5t9 15.5q5 3 8 5t5 4q15 11 17 16q19 18 22 18q32 33 50 47q36 27 52 43q0 6 1 7q4 5 4 12t-15 24q-11 2 -20 11.5l-17 18.5q-3 7 -16.5 15
t-16.5 16q-7 3 -21 14.5t-23 12.5l-3 3q-1 -1 -1 -4zM155 370l-8 11h1l-2 2l-4.5 6.5t-8.5 6.5l-3 1q1 -1 1 -2l-9 7q2 0 -10 12q-19 13 -40 8q-8 -8 -9 -13q-1 -4 0 -10q1 -5 1 -8v-5l10.5 -18.5t13.5 -13.5q5 0 7 -5q4 -14 10 -19q1 -5 7 -11.5t6 -10.5q3 -4 6 -7.5
t6 -5.5q16 -13 19 -26q20 -7 25 -24q2 -2 -11 -16q-23 -26 -23 -27l-17 -13.5t-11 -10.5q-14 -24 -23 -32q-24 -24 -32 -36q-9 -18 3 -35q18 -13 31 -3l3 2q6 6 10 8l3 1q8 4 13 8.5t9 15.5q5 3 8 5t5 4q15 11 17 16q19 18 22 18q32 33 50 47q36 27 52 43q0 6 1 7q4 5 4 12
t-15 24q-11 2 -20 11.5l-17 18.5q-3 7 -16.5 15t-16.5 16q-7 3 -21 14.5t-23 12.5l-3 3q-1 -1 -1 -4z" />
    <glyph glyph-name="questiondown" unicode="&#xbf;" horiz-adv-x="440" 
d="M294 652q2 21 -18 50q-23 32 -48 32q-45 0 -73 -24.5t-29 -57.5q0 -18 7 -33.5t20 -27t29 -18t34 -6.5q32 0 57 37q21 28 21 48zM417 144q0 2 1.5 10.5t1.5 13.5q0 32 -44 47q-24 8 -43 8q-54 0 -65 -50q-1 -26 -6 -55q-3 -27 -28 -34q-8 -2 -13 -2q-28 0 -50 33
q-18 29 -17 50q2 26 19 42q10 7 19 14t18 15q36 36 47 91q6 33 6 100q0 71 -43 81q-3 1 -8 1q-15 0 -22 -25l-15 -57q-13 -38 -42 -61q-117 -92 -122 -217q-2 -53 55 -104q59 -54 133 -56q93 -3 160 55q56 49 58 100z" />
    <glyph glyph-name="Agrave" unicode="&#xc0;" horiz-adv-x="761" 
d="M785 9q0 25 -34 43q-40 22 -56 52l-115 306l-29 120l-29 120q-21 74 -61 74h-83q-22 0 -42 -32q-11 -20 -35 -74.5t-59 -142.5q-4 -5 -8 -11t-8 -11q-16 -24 -25 -52l-65 -160t-48 -110q-11 -25 -48 -44q-32 -17 -32 -45q0 -43 50 -43q42 0 71 8q-1 0 14 -4t42 -4
q32 0 52 15.5t20 36.5q0 22 -27 42q-27 19 -27 47q0 41 18 85q28 69 89 69h95q27 1 44.5 -18t34.5 -71l24 -61.5t16 -36.5q3 -8 3 -15q0 -16 -27 -35q-27 -18 -27 -36q0 -31 36 -31q20 0 59 9l139 -18q31 0 54.5 9t23.5 19zM420 401q-3 -21 -83 -21q-42 0 -42 15q0 13 22 72
q24 67 40 77q6 -6 34 -60q32 -62 29 -83zM404 784q20 0 20 21q0 10 -15 24q-14 11 -21.5 17.5t-9.5 8.5q-1 1 -9 12t-22 33q-23 33 -38 38q-36 16 -49 16t-23 -11.5t-11 -18.5q-2 -9 3 -30q4 -21 43 -47q20 -13 64 -36q51 -27 68 -27z" />
    <glyph glyph-name="Aacute" unicode="&#xc1;" horiz-adv-x="761" 
d="M785 9q0 25 -34 43q-40 22 -56 52l-115 306l-29 120l-29 120q-21 74 -61 74h-83q-22 0 -42 -32q-11 -20 -35 -74.5t-59 -142.5q-4 -5 -8 -11t-8 -11q-16 -24 -25 -52l-65 -160t-48 -110q-11 -25 -48 -44q-32 -17 -32 -45q0 -43 50 -43q42 0 71 8q-1 0 14 -4t42 -4
q32 0 52 15.5t20 36.5q0 22 -27 42q-27 19 -27 47q0 41 18 85q28 69 89 69h95q27 1 44.5 -18t34.5 -71l24 -61.5t16 -36.5q3 -8 3 -15q0 -16 -27 -35q-27 -18 -27 -36q0 -31 36 -31q20 0 59 9l139 -18q31 0 54.5 9t23.5 19zM420 401q-3 -21 -83 -21q-42 0 -42 15q0 13 22 72
q24 67 40 77q6 -6 34 -60q32 -62 29 -83zM625 894q4 21 3 30q-1 7 -11 18.5t-23 11.5t-49 -16q-15 -5 -38 -38q-14 -22 -22 -33t-9 -12q-2 -2 -9.5 -8.5t-21.5 -17.5q-15 -14 -15 -24q0 -21 20 -21q17 0 68 27q100 52 107 83z" />
    <glyph glyph-name="Acircumflex" unicode="&#xc2;" horiz-adv-x="761" 
d="M785 9q0 25 -34 43q-40 22 -56 52l-115 306l-29 120l-29 120q-21 74 -61 74h-83q-22 0 -42 -32q-11 -20 -35 -74.5t-59 -142.5q-4 -5 -8 -11t-8 -11q-16 -24 -25 -52l-65 -160t-48 -110q-11 -25 -48 -44q-32 -17 -32 -45q0 -43 50 -43q42 0 71 8q-1 0 14 -4t42 -4
q32 0 52 15.5t20 36.5q0 22 -27 42q-27 19 -27 47q0 41 18 85q28 69 89 69h95q27 1 44.5 -18t34.5 -71l24 -61.5t16 -36.5q3 -8 3 -15q0 -16 -27 -35q-27 -18 -27 -36q0 -31 36 -31q20 0 59 9l139 -18q31 0 54.5 9t23.5 19zM420 401q-3 -21 -83 -21q-42 0 -42 15q0 13 22 72
q24 67 40 77q6 -6 34 -60q32 -62 29 -83zM564 784q20 0 20 21q0 10 -15 24q-27 21 -32 26q-2 2 -8.5 11.5l-17.5 26.5l-17.5 24t-14.5 15q-3 11 -13.5 20t-20.5 9t-29 -8q-9 -2 -13 -5l-7 -3q-15 -6 -37 -38q-29 -42 -32 -45q-2 -2 -9.5 -8.5t-21.5 -17.5q-15 -14 -15 -24
q0 -21 20 -21q17 0 68 27q39 30 61 52q12 -9 33 -31q24 -24 33 -28q51 -27 68 -27z" />
    <glyph glyph-name="Atilde" unicode="&#xc3;" horiz-adv-x="761" 
d="M785 9q0 25 -34 43q-40 22 -56 52l-115 306l-29 120l-29 120q-21 74 -61 74h-83q-22 0 -42 -32q-11 -20 -35 -74.5t-59 -142.5q-4 -5 -8 -11t-8 -11q-16 -24 -25 -52l-65 -160t-48 -110q-11 -25 -48 -44q-32 -17 -32 -45q0 -43 50 -43q42 0 71 8q-1 0 14 -4t42 -4
q32 0 52 15.5t20 36.5q0 22 -27 42q-27 19 -27 47q0 41 18 85q28 69 89 69h95q27 1 44.5 -18t34.5 -71l24 -61.5t16 -36.5q3 -8 3 -15q0 -16 -27 -35q-27 -18 -27 -36q0 -31 36 -31q20 0 59 9l139 -18q31 0 54.5 9t23.5 19zM420 401q-3 -21 -83 -21q-42 0 -42 15q0 13 22 72
q24 67 40 77q6 -6 34 -60q32 -62 29 -83zM589 814q29 0 29 18q0 25 -112 74q-21 10 -45 10q-32 0 -97 -31q-66 -32 -110 -27q-10 1 -27.5 7.5t-27.5 6.5q-25 0 -25 -12q0 -13 44 -37q19 -10 35.5 -17t32.5 -12q21 -6 40 -6q33 0 92 30q55 28 96 24q16 -2 38 -15
q23 -13 37 -13z" />
    <glyph glyph-name="Adieresis" unicode="&#xc4;" horiz-adv-x="761" 
d="M785 9q0 25 -34 43q-40 22 -56 52l-115 306l-29 120l-29 120q-21 74 -61 74h-83q-22 0 -42 -32q-11 -20 -35 -74.5t-59 -142.5q-4 -5 -8 -11t-8 -11q-16 -24 -25 -52l-65 -160t-48 -110q-11 -25 -48 -44q-32 -17 -32 -45q0 -43 50 -43q42 0 71 8q-1 0 14 -4t42 -4
q32 0 52 15.5t20 36.5q0 22 -27 42q-27 19 -27 47q0 41 18 85q28 69 89 69h95q27 1 44.5 -18t34.5 -71l24 -61.5t16 -36.5q3 -8 3 -15q0 -16 -27 -35q-27 -18 -27 -36q0 -31 36 -31q20 0 59 9l139 -18q31 0 54.5 9t23.5 19zM420 401q-3 -21 -83 -21q-42 0 -42 15q0 13 22 72
q24 67 40 77q6 -6 34 -60q32 -62 29 -83zM607 876q0 38 -17 64q-21 30 -61 30q-32 0 -61 -35q-21 -27 -21 -36q0 -53 27 -81q22 -24 51 -24q39 0 60.5 23t21.5 59zM385 864q0 53 -28 81q-23 24 -50 24q-39 0 -60.5 -23t-21.5 -59q0 -38 17 -64q21 -30 61 -30q32 0 61 35
q21 27 21 36z" />
    <glyph glyph-name="Aring" unicode="&#xc5;" horiz-adv-x="761" 
d="M785 9q0 25 -34 43q-40 22 -56 52l-115 306l-29 120l-29 120q-21 74 -61 74h-83q-22 0 -42 -32q-11 -20 -35 -74.5t-59 -142.5q-4 -5 -8 -11t-8 -11q-16 -24 -25 -52l-65 -160t-48 -110q-11 -25 -48 -44q-32 -17 -32 -45q0 -43 50 -43q42 0 71 8q-1 0 14 -4t42 -4
q32 0 52 15.5t20 36.5q0 22 -27 42q-27 19 -27 47q0 41 18 85q28 69 89 69h95q27 1 44.5 -18t34.5 -71l24 -61.5t16 -36.5q3 -8 3 -15q0 -16 -27 -35q-27 -18 -27 -36q0 -31 36 -31q20 0 59 9l139 -18q31 0 54.5 9t23.5 19zM420 401q-3 -21 -83 -21q-42 0 -42 15q0 13 22 72
q24 67 40 77q6 -6 34 -60q32 -62 29 -83zM540 893q0 42 -43 76q-35 27 -46 27q-65 0 -103 -35q-29 -29 -29 -64q0 -49 29 -76t74 -27q49 0 80 22q38 26 38 77zM492 896q0 -61 -71 -61q-31 0 -44.5 14t-13.5 50q0 53 84 53q19 0 32 -19t13 -37z" />
    <glyph glyph-name="AE" unicode="&#xc6;" horiz-adv-x="1144" 
d="M1159 157q0 25 -30 25q-29 0 -70 -31q-60 -43 -90 -56q-66 -31 -158 -31q-86 0 -113 34l-3 6l-15 39q-3 19 -3 45q0 9 2 19.5t2 23.5v68q4 30 24 30q24 0 29 -24l6 -23.5t5 -22.5q10 -25 43 -25q9 0 18 5.5t16 14t11.5 19t4.5 20.5q0 9 -10 36v71q0 18 6 50q6 31 6 42
q0 33 -40 33q-39 0 -39 -58v-18q0 -8 -8.5 -21t-16.5 -13q-55 0 -55 126q0 42 20.5 58t71.5 16q82 0 149 -32q17 -8 39.5 -22.5t50.5 -36.5q43 -32 65 -32q14 0 23.5 12t9.5 28q0 20 -30 58q-22 26 -34 42.5t-16 21.5l-30 57q-20 35 -34 35t-42 -24q-27 -24 -72 -21l-168 13
l-95 -4h-23q-23 -2 -33 -15q-1 -1 -2 -1q-5 0 -23 12q-17 14 -23 12q-11 6 -24 6h-83q-22 0 -42 -32q-11 -20 -35 -74.5t-59 -142.5q-4 -5 -8 -11t-8 -11q-16 -24 -25 -52l-65 -160t-48 -110q-11 -25 -48 -44q-32 -17 -32 -45q0 -43 50 -43q42 0 71 8q-1 0 14 -4t42 -4
q32 0 52 15.5t20 36.5q0 22 -27 42q-27 19 -27 47q0 41 18 85q28 69 89 69h95q27 1 44.5 -18t34.5 -71q5 -17 12.5 -34.5l15.5 -36.5v-5q0 -39 13 -49q-5 -8 -30 -26q-22 -15 -22 -33q0 -31 36 -31q20 0 58 9q3 -9 8 -7l31 2l101 -13q42 0 66 15q79 -2 140 -15
q22 -4 41.5 -9.5t37.5 -12.5q31 -12 32 -12q27 0 38 30q16 45 24 55q73 83 73 125zM420 401q-3 -21 -83 -21q-42 0 -42 15q0 13 22 72q24 67 40 77q6 -6 34 -60q32 -62 29 -83z" />
    <glyph glyph-name="Ccedilla" unicode="&#xc7;" horiz-adv-x="742" 
d="M472 -26q94 10 160 63q47 40 74 96q19 37 19 51q0 16 -11 28t-22 12q-34 0 -62 -37q-45 -60 -57 -70q-43 -37 -114 -37q-117 0 -187 76q-69 77 -65 207q5 126 35 183q48 86 171 86q56 0 109 -30q5 -2 83 -57q43 -30 75 -30q49 0 49 31q0 14 -38 58q-14 16 -25.5 27.5
t-19.5 18.5l-9 10l-27 30q-24 27 -37 27t-28 -7.5t-20 -7.5q-9 0 -74 16q-68 17 -111 17q-17 0 -41 -6t-22 -6q-28 0 -68 -30q-11 -8 -21.5 -17t-21.5 -17q-160 -85 -160 -338q0 -139 115 -239q109 -95 264 -109q-2 -13 -7 -24.5t-12 -22.5q-19 -28 -44 -27q-28 0 -47 -20
t-19 -41q0 -26 26 -24q146 10 169 69q14 39 21 91z" />
    <glyph glyph-name="Egrave" unicode="&#xc8;" horiz-adv-x="716" 
d="M726 157q0 25 -30 25q-29 0 -70 -31q-60 -43 -90 -56q-66 -31 -158 -31q-75 0 -103 24q-31 25 -31 100q0 9 2 19.5t2 23.5v68q4 30 24 30q24 0 29 -24l6 -23.5t5 -22.5q10 -25 43 -25q9 0 18 5.5t16 14t11.5 19t4.5 20.5q0 9 -10 36v71q0 18 6 50q6 31 6 42q0 33 -40 33
q-39 0 -39 -58v-18q0 -8 -8.5 -21t-16.5 -13q-55 0 -55 126q0 42 20.5 58t71.5 16q82 0 149 -32q17 -8 39.5 -22.5t50.5 -36.5q43 -32 65 -32q14 0 23.5 12t9.5 28q0 20 -30 58q-22 26 -34 42.5t-16 21.5l-30 57q-20 35 -34 35t-42 -24q-27 -24 -72 -21l-168 13l-95 -4
q1 0 -27 6q-27 6 -44 6q-70 0 -70 -43q0 -28 18 -41q31 -21 34 -24q18 -23 18 -70v-86q-1 -25 -3.5 -51t-7.5 -55q-10 -53 -10 -63l15 -160q0 -32 -19 -51q-2 -2 -10.5 -8.5t-24.5 -17.5q-19 -12 -19 -29q0 -32 49 -31l235 4q48 1 90 -1.5t80 -9.5q52 -9 94 -24l28 -10.5
l9 -3.5q27 0 38 30q16 45 24 55q73 83 73 125zM318 784q20 0 20 21q0 10 -15 24q-14 11 -21.5 17.5t-9.5 8.5q-1 1 -9 12t-22 33q-23 33 -38 38q-36 16 -49 16t-23 -11.5t-11 -18.5q-2 -9 3 -30q4 -21 43 -47q20 -13 64 -36q51 -27 68 -27z" />
    <glyph glyph-name="Eacute" unicode="&#xc9;" horiz-adv-x="716" 
d="M726 157q0 25 -30 25q-29 0 -70 -31q-60 -43 -90 -56q-66 -31 -158 -31q-75 0 -103 24q-31 25 -31 100q0 9 2 19.5t2 23.5v68q4 30 24 30q24 0 29 -24l6 -23.5t5 -22.5q10 -25 43 -25q9 0 18 5.5t16 14t11.5 19t4.5 20.5q0 9 -10 36v71q0 18 6 50q6 31 6 42q0 33 -40 33
q-39 0 -39 -58v-18q0 -8 -8.5 -21t-16.5 -13q-55 0 -55 126q0 42 20.5 58t71.5 16q82 0 149 -32q17 -8 39.5 -22.5t50.5 -36.5q43 -32 65 -32q14 0 23.5 12t9.5 28q0 20 -30 58q-22 26 -34 42.5t-16 21.5l-30 57q-20 35 -34 35t-42 -24q-27 -24 -72 -21l-168 13l-95 -4
q1 0 -27 6q-27 6 -44 6q-70 0 -70 -43q0 -28 18 -41q31 -21 34 -24q18 -23 18 -70v-86q-1 -25 -3.5 -51t-7.5 -55q-10 -53 -10 -63l15 -160q0 -32 -19 -51q-2 -2 -10.5 -8.5t-24.5 -17.5q-19 -12 -19 -29q0 -32 49 -31l235 4q48 1 90 -1.5t80 -9.5q52 -9 94 -24l28 -10.5
l9 -3.5q27 0 38 30q16 45 24 55q73 83 73 125zM480 896q4 21 3 30q-1 7 -11 18.5t-23 11.5t-49 -16q-15 -5 -38 -38q-14 -22 -22 -33t-9 -12q-2 -2 -9.5 -8.5t-21.5 -17.5q-15 -14 -15 -24q0 -21 20 -21q17 0 68 27q100 52 107 83z" />
    <glyph glyph-name="Ecircumflex" unicode="&#xca;" horiz-adv-x="716" 
d="M726 157q0 25 -30 25q-29 0 -70 -31q-60 -43 -90 -56q-66 -31 -158 -31q-75 0 -103 24q-31 25 -31 100q0 9 2 19.5t2 23.5v68q4 30 24 30q24 0 29 -24l6 -23.5t5 -22.5q10 -25 43 -25q9 0 18 5.5t16 14t11.5 19t4.5 20.5q0 9 -10 36v71q0 18 6 50q6 31 6 42q0 33 -40 33
q-39 0 -39 -58v-18q0 -8 -8.5 -21t-16.5 -13q-55 0 -55 126q0 42 20.5 58t71.5 16q82 0 149 -32q17 -8 39.5 -22.5t50.5 -36.5q43 -32 65 -32q14 0 23.5 12t9.5 28q0 20 -30 58q-22 26 -34 42.5t-16 21.5l-30 57q-20 35 -34 35t-42 -24q-27 -24 -72 -21l-168 13l-95 -4
q1 0 -27 6q-27 6 -44 6q-70 0 -70 -43q0 -28 18 -41q31 -21 34 -24q18 -23 18 -70v-86q-1 -25 -3.5 -51t-7.5 -55q-10 -53 -10 -63l15 -160q0 -32 -19 -51q-2 -2 -10.5 -8.5t-24.5 -17.5q-19 -12 -19 -29q0 -32 49 -31l235 4q48 1 90 -1.5t80 -9.5q52 -9 94 -24l28 -10.5
l9 -3.5q27 0 38 30q16 45 24 55q73 83 73 125zM453 784q20 0 20 21q0 10 -15 24q-27 21 -32 26q-2 2 -8.5 11.5l-17.5 26.5l-17.5 24t-14.5 15q-3 11 -13.5 20t-20.5 9t-29 -8q-9 -2 -13 -5l-7 -3q-15 -6 -37 -38q-29 -42 -32 -45q-2 -2 -9.5 -8.5t-21.5 -17.5
q-15 -14 -15 -24q0 -21 20 -21q17 0 68 27q39 30 61 52q12 -9 33 -31q24 -24 33 -28q51 -27 68 -27z" />
    <glyph glyph-name="Edieresis" unicode="&#xcb;" horiz-adv-x="716" 
d="M726 157q0 25 -30 25q-29 0 -70 -31q-60 -43 -90 -56q-66 -31 -158 -31q-75 0 -103 24q-31 25 -31 100q0 9 2 19.5t2 23.5v68q4 30 24 30q24 0 29 -24l6 -23.5t5 -22.5q10 -25 43 -25q9 0 18 5.5t16 14t11.5 19t4.5 20.5q0 9 -10 36v71q0 18 6 50q6 31 6 42q0 33 -40 33
q-39 0 -39 -58v-18q0 -8 -8.5 -21t-16.5 -13q-55 0 -55 126q0 42 20.5 58t71.5 16q82 0 149 -32q17 -8 39.5 -22.5t50.5 -36.5q43 -32 65 -32q14 0 23.5 12t9.5 28q0 20 -30 58q-22 26 -34 42.5t-16 21.5l-30 57q-20 35 -34 35t-42 -24q-27 -24 -72 -21l-168 13l-95 -4
q1 0 -27 6q-27 6 -44 6q-70 0 -70 -43q0 -28 18 -41q31 -21 34 -24q18 -23 18 -70v-86q-1 -25 -3.5 -51t-7.5 -55q-10 -53 -10 -63l15 -160q0 -32 -19 -51q-2 -2 -10.5 -8.5t-24.5 -17.5q-19 -12 -19 -29q0 -32 49 -31l235 4q48 1 90 -1.5t80 -9.5q52 -9 94 -24l28 -10.5
l9 -3.5q27 0 38 30q16 45 24 55q73 83 73 125zM502 875q0 38 -17 64q-21 30 -61 30q-32 0 -61 -35q-21 -27 -21 -36q0 -53 27 -81q22 -24 51 -24q39 0 60.5 23t21.5 59zM280 863q0 53 -28 81q-23 24 -50 24q-39 0 -60.5 -23t-21.5 -59q0 -38 17 -64q21 -30 61 -30
q32 0 61 35q21 27 21 36z" />
    <glyph glyph-name="Igrave" unicode="&#xcc;" horiz-adv-x="364" 
d="M347 18q1 33 -34 44q-38 12 -46 35l-16 115l8 110l-16 251q12 44 31 60q-1 0 29 14q12 7 13 29q0 9 -5.5 17.5t-14.5 15t-20 10.5t-23 4q-20 -4 -41.5 -6t-45.5 -2q-53 0 -99 10q-4 1 -12 1q-15 0 -28 -11t-14 -26q-2 -20 36 -45q38 -26 37 -43l-4 -108q0 -3 4 -18.5
t3 -38.5q-3 -96 -4.5 -150t-2.5 -68q7 -50 15 -94q-1 -39 -38 -52t-38 -44q-2 -41 37 -42q12 0 41.5 7.5t75.5 6.5q85 -11 114 -18q32 -1 49 17q9 9 9 19zM147 784q20 0 20 21q0 10 -15 24q-14 11 -21.5 17.5t-9.5 8.5q-1 1 -9 12t-22 33q-23 33 -38 38q-36 16 -49 16
q-12 0 -22 -11.5t-11 -18.5q-1 -5 -1 -13q0 -7 4 -17t14 -22t28 -25q20 -13 64 -36q51 -27 68 -27z" />
    <glyph glyph-name="Iacute" unicode="&#xcd;" horiz-adv-x="364" 
d="M347 18q1 33 -34 44q-38 12 -46 35l-16 115l8 110l-16 251q12 44 31 60q-1 0 29 14q12 7 13 29q0 9 -5.5 17.5t-14.5 15t-20 10.5t-23 4q-20 -4 -41.5 -6t-45.5 -2q-53 0 -99 10q-4 1 -12 1q-15 0 -28 -11t-14 -26q-2 -20 36 -45q38 -26 37 -43l-4 -108q0 -3 4 -18.5
t3 -38.5q-3 -96 -4.5 -150t-2.5 -68q7 -50 15 -94q-1 -39 -38 -52t-38 -44q-2 -41 37 -42q12 0 41.5 7.5t75.5 6.5q85 -11 114 -18q32 -1 49 17q9 9 9 19zM372 894q4 21 3 30q-1 7 -11 18.5t-23 11.5t-49 -16q-15 -5 -38 -38q-14 -22 -22 -33t-9 -12q-2 -2 -9.5 -8.5
t-21.5 -17.5q-15 -14 -15 -24q0 -21 20 -21q17 0 68 27q100 52 107 83z" />
    <glyph glyph-name="Icircumflex" unicode="&#xce;" horiz-adv-x="364" 
d="M347 18q1 33 -34 44q-38 12 -46 35l-16 115l8 110l-16 251q12 44 31 60q-1 0 29 14q12 7 13 29q0 9 -5.5 17.5t-14.5 15t-20 10.5t-23 4q-20 -4 -41.5 -6t-45.5 -2q-53 0 -99 10q-4 1 -12 1q-15 0 -28 -11t-14 -26q-2 -20 36 -45q38 -26 37 -43l-4 -108q0 -3 4 -18.5
t3 -38.5q-3 -96 -4.5 -150t-2.5 -68q7 -50 15 -94q-1 -39 -38 -52t-38 -44q-2 -41 37 -42q12 0 41.5 7.5t75.5 6.5q85 -11 114 -18q32 -1 49 17q9 9 9 19zM295 784q20 0 20 21q0 10 -15 24q-27 21 -32 26q-2 2 -8.5 11.5l-17.5 26.5l-17.5 24t-14.5 15q-3 11 -13.5 20
t-20.5 9t-29 -8q-9 -2 -13 -5l-7 -3q-15 -6 -37 -38q-29 -42 -32 -45q-2 -2 -9.5 -8.5t-21.5 -17.5q-15 -14 -15 -24q0 -21 20 -21q17 0 68 27q39 30 61 52q12 -9 33 -31q24 -24 33 -28q51 -27 68 -27z" />
    <glyph glyph-name="Idieresis" unicode="&#xcf;" horiz-adv-x="364" 
d="M347 18q1 33 -34 44q-38 12 -46 35l-16 115l8 110l-16 251q12 44 31 60q-1 0 29 14q12 7 13 29q0 9 -5.5 17.5t-14.5 15t-20 10.5t-23 4q-20 -4 -41.5 -6t-45.5 -2q-53 0 -99 10q-4 1 -12 1q-15 0 -28 -11t-14 -26q-2 -20 36 -45q38 -26 37 -43l-4 -108q0 -3 4 -18.5
t3 -38.5q-3 -96 -4.5 -150t-2.5 -68q7 -50 15 -94q-1 -39 -38 -52t-38 -44q-2 -41 37 -42q12 0 41.5 7.5t75.5 6.5q85 -11 114 -18q32 -1 49 17q9 9 9 19zM349 875q0 38 -17 64q-21 30 -61 30q-32 0 -61 -35q-21 -27 -21 -36q0 -53 27 -81q22 -24 51 -24q39 0 60.5 23
t21.5 59zM127 863q0 53 -28 81q-23 24 -50 24q-39 0 -60 -23t-21 -59q0 -38 17 -64q19 -30 60 -30q32 0 61 35q21 27 21 36z" />
    <glyph glyph-name="Eth" unicode="&#xd0;" horiz-adv-x="744" 
d="M71 272v-4q0 -13 -1.5 -36.5t-5.5 -58.5q-7 -73 -12 -79q-8 -11 -32 -18q-18 -6 -18 -26q0 -23 22 -36t50 -13h65q15 0 32 -4.5t21 -4.5h72q11 0 25 -1t31 -3q18 -2 29.5 -3.5t16.5 -1.5q133 0 243 91q125 104 125 260v84q0 35 -29 88q-11 20 -22.5 37t-23.5 31
q-45 53 -112 93q-91 55 -187 55q-87 -21 -109 -21q-21 0 -79 9q-56 10 -70 10q-33 0 -57.5 -11.5t-24.5 -22.5q0 -17 18 -27q14 -10 22.5 -15.5t10.5 -7.5q18 -20 18 -53q0 -57 -18 -97q1 -20 1 -45v-54q-63 -15 -69 -51q-3 -24 15 -43.5t45 -20.5h8zM417 268q32 10 46 21
q19 16 19 44q0 55 -79 55q-8 0 -18 -1t-24 -3t-23.5 -3t-14.5 -1q-10 0 -28.5 4.5t-29.5 4.5q5 15 5 17q1 48 -3.5 89.5t-4.5 62.5q0 40 13 53q23 23 94 23q63 0 107 -56q43 -55 43 -126q0 -9 -6 -43q-6 -35 -6 -41q0 -1 1 -9t3 -22t3.5 -28t1.5 -28v-66q0 -79 -55 -121
q-46 -37 -120 -37q-41 0 -67 35q-23 32 -23 77q0 30 4.5 55t4.5 26v26q27 1 42 0q8 -1 18.5 -2.5t24.5 -4.5q28 -6 42 -6q13 0 30 5z" />
    <glyph glyph-name="Ntilde" unicode="&#xd1;" horiz-adv-x="780" 
d="M780 665q0 54 -46 54q-15 0 -36.5 -4t-40.5 -4q-18 0 -33 4t-33 4q-74 0 -74 -59q0 -32 19 -39q10 -4 19.5 -7l18.5 -6q20 -11 20 -48t-6 -91t-6 -48q0 -24 6 -52q6 -29 6 -25q0 -6 -12 -19q-9 4 -128 150l-117 144q-10 17 -19 34.5t-19 34.5q-20 27 -48 27
q-9 0 -23.5 -4t-36.5 -4q-43 0 -101 15q-22 0 -42 -13t-20 -34q0 -18 31 -43t31 -53v-443q0 -44 -21 -57l-20 -8l-20 -8q-20 -8 -20 -35q0 -40 50 -40q5 0 25.5 6t45.5 6q13 0 27 -2.5l27 -5t23 -5t16 -2.5q21 0 46 17q25 16 25 44q0 22 -21 25q-30 3 -39 12q-21 19 -21 87
v81q0 12 -1.5 25l-3 25t-3 21.5t-1.5 14.5q0 20 8 50t8 43q0 2 -0.5 6t-1.5 11q-1 10 0 14q1 6 11 6q8 0 22 -15l33 -42l32 -42q55 -72 84 -127q10 -20 44.5 -63.5t94.5 -112.5l25.5 -30l25.5 -31q31 -31 54 -31q30 0 44 27q9 16 18 68l-10 68q7 43 10 46v155l-1.5 8
t-3.5 21t-3.5 28.5t-1.5 32.5v161q0 29 42 41t42 36zM569 814q29 0 29 18q0 25 -112 74q-21 10 -45 10q-32 0 -97 -31q-66 -32 -110 -27q-10 1 -27.5 7.5t-27.5 6.5q-25 0 -25 -12q0 -13 44 -37q19 -10 35.5 -17t32.5 -12q21 -6 40 -6q33 0 92 30q55 28 96 24q16 -2 38 -15
q23 -13 37 -13z" />
    <glyph glyph-name="Ograve" unicode="&#xd2;" horiz-adv-x="717" 
d="M718 392q0 134 -104 235q-109 104 -260 104q-135 0 -220 -75q-69 -60 -99 -162l-8 -19.5l-8 -19.5q-12 -35 -12 -60v-113q0 -36 30 -91q33 -59 77 -93q13 -11 25.5 -23t25.5 -23q18 -16 37.5 -27.5t39.5 -19.5q58 -21 140 -21q77 0 169 54q43 25 72.5 51.5t46.5 54.5
q10 16 10 41q2 33 7 52q31 102 31 155zM566 231q0 -158 -158 -158q-35 0 -70 32q-33 32 -100 126q-13 17 -44 104q-38 105 -38 151q0 65 51 113q48 45 107 45q43 0 96 -53q55 -57 105 -156q26 -51 36 -94q7 -29 15 -36v-74zM336 784q20 0 20 21q0 10 -15 24
q-14 11 -21.5 17.5t-9.5 8.5q-1 1 -9 12t-22 33q-23 33 -38 38q-36 16 -49 16t-23 -11.5t-11 -18.5q-2 -9 3 -30q4 -21 43 -47q20 -13 64 -36q51 -27 68 -27z" />
    <glyph glyph-name="Oacute" unicode="&#xd3;" horiz-adv-x="717" 
d="M718 392q0 134 -104 235q-109 104 -260 104q-135 0 -220 -75q-69 -60 -99 -162l-8 -19.5l-8 -19.5q-12 -35 -12 -60v-113q0 -36 30 -91q33 -59 77 -93q13 -11 25.5 -23t25.5 -23q18 -16 37.5 -27.5t39.5 -19.5q58 -21 140 -21q77 0 169 54q43 25 72.5 51.5t46.5 54.5
q10 16 10 41q2 33 7 52q31 102 31 155zM566 231q0 -158 -158 -158q-35 0 -70 32q-33 32 -100 126q-13 17 -44 104q-38 105 -38 151q0 65 51 113q48 45 107 45q43 0 96 -53q55 -57 105 -156q26 -51 36 -94q7 -29 15 -36v-74zM551 894q4 21 3 30q-1 7 -11 18.5t-23 11.5
t-49 -16q-15 -5 -38 -38q-14 -22 -22 -33t-9 -12q-2 -2 -9.5 -8.5t-21.5 -17.5q-15 -14 -15 -24q0 -21 20 -21q17 0 68 27q100 52 107 83z" />
    <glyph glyph-name="Ocircumflex" unicode="&#xd4;" horiz-adv-x="717" 
d="M718 392q0 134 -104 235q-109 104 -260 104q-135 0 -220 -75q-69 -60 -99 -162l-8 -19.5l-8 -19.5q-12 -35 -12 -60v-113q0 -36 30 -91q33 -59 77 -93q13 -11 25.5 -23t25.5 -23q18 -16 37.5 -27.5t39.5 -19.5q58 -21 140 -21q77 0 169 54q43 25 72.5 51.5t46.5 54.5
q10 16 10 41q2 33 7 52q31 102 31 155zM566 231q0 -158 -158 -158q-35 0 -70 32q-33 32 -100 126q-13 17 -44 104q-38 105 -38 151q0 65 51 113q48 45 107 45q43 0 96 -53q55 -57 105 -156q26 -51 36 -94q7 -29 15 -36v-74zM477 784q20 0 20 21q0 10 -15 24q-27 21 -32 26
q-2 2 -8.5 11.5l-17.5 26.5l-17.5 24t-14.5 15q-3 11 -13.5 20t-20.5 9t-29 -8q-9 -2 -13 -5l-7 -3q-15 -6 -37 -38q-29 -42 -32 -45q-2 -2 -9.5 -8.5t-21.5 -17.5q-15 -14 -15 -24q0 -21 20 -21q17 0 68 27q39 30 61 52q12 -9 33 -31q24 -24 33 -28q51 -27 68 -27z" />
    <glyph glyph-name="Otilde" unicode="&#xd5;" horiz-adv-x="717" 
d="M718 392q0 134 -104 235q-109 104 -260 104q-135 0 -220 -75q-69 -60 -99 -162l-8 -19.5l-8 -19.5q-12 -35 -12 -60v-113q0 -36 30 -91q33 -59 77 -93q13 -11 25.5 -23t25.5 -23q18 -16 37.5 -27.5t39.5 -19.5q58 -21 140 -21q77 0 169 54q43 25 72.5 51.5t46.5 54.5
q10 16 10 41q2 33 7 52q31 102 31 155zM566 231q0 -158 -158 -158q-35 0 -70 32q-33 32 -100 126q-13 17 -44 104q-38 105 -38 151q0 65 51 113q48 45 107 45q43 0 96 -53q55 -57 105 -156q26 -51 36 -94q7 -29 15 -36v-74zM549 814q29 0 29 18q0 25 -112 74q-21 10 -45 10
q-32 0 -97 -31q-66 -32 -110 -27q-10 1 -27.5 7.5t-27.5 6.5q-25 0 -25 -12q0 -13 44 -37q19 -10 35.5 -17t32.5 -12q21 -6 40 -6q33 0 92 30q55 28 96 24q16 -2 38 -15q23 -13 37 -13z" />
    <glyph glyph-name="Odieresis" unicode="&#xd6;" horiz-adv-x="717" 
d="M718 392q0 134 -104 235q-109 104 -260 104q-135 0 -220 -75q-69 -60 -99 -162l-8 -19.5l-8 -19.5q-12 -35 -12 -60v-113q0 -36 30 -91q33 -59 77 -93q13 -11 25.5 -23t25.5 -23q18 -16 37.5 -27.5t39.5 -19.5q58 -21 140 -21q77 0 169 54q43 25 72.5 51.5t46.5 54.5
q10 16 10 41q2 33 7 52q31 102 31 155zM566 231q0 -158 -158 -158q-35 0 -70 32q-33 32 -100 126q-13 17 -44 104q-38 105 -38 151q0 65 51 113q48 45 107 45q43 0 96 -53q55 -57 105 -156q26 -51 36 -94q7 -29 15 -36v-74zM554 874q0 38 -17 64q-21 30 -61 30
q-32 0 -61 -35q-21 -27 -21 -36q0 -53 27 -81q22 -24 51 -24q39 0 60.5 23t21.5 59zM332 862q0 53 -28 81q-23 24 -50 24q-39 0 -60.5 -23t-21.5 -59q0 -38 17 -64q21 -30 61 -30q32 0 61 35q21 27 21 36z" />
    <glyph glyph-name="multiply" unicode="&#xd7;" horiz-adv-x="464" 
d="M394 407q0 10 -5 20.5t-12.5 18.5t-17.5 13t-20 5q-26 0 -51 -27q-6 -6 -30 -38q-17 -22 -30 -29l-27 42.5t-35 30.5q-29 13 -46 13q-11 0 -21 -5t-18 -12.5t-13 -17.5t-5 -20q0 -24 27 -51q4 -4 13 -11.5t25 -19.5q23 -17 30 -31l1 -2l-45 -24q-23 -12 -39 -49
q-7 -15 -7 -30q0 -16 10 -29q16 -22 46 -22q20 0 36 14q28 25 37 47q8 20 35 37l2 -2q9 -8 28 -47q13 -26 51 -43q15 -7 30 -7q17 0 30 10q22 16 22 45q0 20 -14 37q-26 29 -47 36q-19 8 -35 31l6 5q7 7 42 29q25 16 34 36q13 30 13 47z" />
    <glyph glyph-name="Oslash" unicode="&#xd8;" horiz-adv-x="717" 
d="M231 244q-22 47 -45 113q-30 85 -30 129q0 65 51 113q48 45 107 45q72 0 155 -128l-82.5 -108.5t-69.5 -82.5q-19 -20 -40 -40t-46 -41zM518 429q22 -47 33 -89q7 -27 15 -35v-74q0 -158 -158 -158q-15 0 -29 5.5t-29.5 17.5t-33.5 32.5t-40 50.5l63 61.5l64 65.5
l53.5 56.5zM705 668q9 10 9 18q0 12 -28 34q-1 1 -6 1q-22 0 -98 -39q-3 -5 -6 -9.5t-6 -9.5q-97 68 -216 68q-135 0 -220 -75q-69 -60 -99 -162l-8 -19.5l-8 -19.5q-12 -35 -12 -60v-113q0 -29 23 -77q24 -50 60 -86l-29 -16.5l-29 -16.5q-32 -20 -32 -38q0 -7 5 -17
q-3 -5 -3 -9q0 -17 25 -30q10 -6 21 -6q21 0 42 18l63 59q85 -79 229 -79q77 0 169 54q43 25 72.5 51.5t46.5 54.5q10 16 10 41q2 33 7 52q31 102 31 155q0 105 -67 193q59 72 54 83z" />
    <glyph glyph-name="Ugrave" unicode="&#xd9;" horiz-adv-x="752" 
d="M748 698q0 24 -10 30t-36 6q-13 0 -41 -7.5t-81 -7.5q-8 0 -17.5 0.5t-18.5 1.5t-16 1.5t-10 0.5q-45 0 -45 -40q0 -27 17 -41q7 -6 36 -17q23 -7 31 -18q15 -20 15 -46q0 -7 -1 -19.5t-1 -18.5v-148q0 -13 1.5 -32t5.5 -44t6 -40.5t2 -22.5q0 -69 -36 -109
q-41 -45 -119 -45q-138 0 -175 178q-10 46 -10 340q-2 29 37 40q39 12 39 43q0 39 -49 39q-16 0 -47 -9q-34 -8 -54 -8q-4 0 -13.5 1t-25.5 3t-29 3t-23 1q-69 0 -69 -36q0 -12 5.5 -21.5t14 -17.5t19 -15.5l19.5 -14.5q20 -22 20 -58v-326q0 -92 94 -174q88 -76 163 -76
q9 0 25 2t29 2q126 0 203 52q91 61 91 182v94q0 79 -19 123v136q0 44 19 66q1 1 9.5 7.5l25.5 20.5q19 15 19 39zM377 785q20 0 20 21q0 10 -15 24q-14 11 -21.5 17.5t-9.5 8.5q-1 1 -9 12t-22 33q-23 33 -38 38q-36 16 -49 16t-23 -11.5t-11 -18.5q-2 -9 3 -30
q4 -21 43 -47q20 -13 64 -36q51 -27 68 -27z" />
    <glyph glyph-name="Uacute" unicode="&#xda;" horiz-adv-x="752" 
d="M748 698q0 24 -10 30t-36 6q-13 0 -41 -7.5t-81 -7.5q-8 0 -17.5 0.5t-18.5 1.5t-16 1.5t-10 0.5q-45 0 -45 -40q0 -27 17 -41q7 -6 36 -17q23 -7 31 -18q15 -20 15 -46q0 -7 -1 -19.5t-1 -18.5v-148q0 -13 1.5 -32t5.5 -44t6 -40.5t2 -22.5q0 -69 -36 -109
q-41 -45 -119 -45q-138 0 -175 178q-10 46 -10 340q-2 29 37 40q39 12 39 43q0 39 -49 39q-16 0 -47 -9q-34 -8 -54 -8q-4 0 -13.5 1t-25.5 3t-29 3t-23 1q-69 0 -69 -36q0 -12 5.5 -21.5t14 -17.5t19 -15.5l19.5 -14.5q20 -22 20 -58v-326q0 -92 94 -174q88 -76 163 -76
q9 0 25 2t29 2q126 0 203 52q91 61 91 182v94q0 79 -19 123v136q0 44 19 66q1 1 9.5 7.5l25.5 20.5q19 15 19 39zM575 894q4 21 3 30q-1 7 -11 18.5t-23 11.5t-49 -16q-15 -5 -38 -38q-14 -22 -22 -33t-9 -12q-2 -2 -9.5 -8.5t-21.5 -17.5q-15 -14 -15 -24q0 -21 20 -21
q17 0 68 27q100 52 107 83z" />
    <glyph glyph-name="Ucircumflex" unicode="&#xdb;" horiz-adv-x="752" 
d="M748 698q0 24 -10 30t-36 6q-13 0 -41 -7.5t-81 -7.5q-8 0 -17.5 0.5t-18.5 1.5t-16 1.5t-10 0.5q-45 0 -45 -40q0 -27 17 -41q7 -6 36 -17q23 -7 31 -18q15 -20 15 -46q0 -7 -1 -19.5t-1 -18.5v-148q0 -13 1.5 -32t5.5 -44t6 -40.5t2 -22.5q0 -69 -36 -109
q-41 -45 -119 -45q-138 0 -175 178q-10 46 -10 340q-2 29 37 40q39 12 39 43q0 39 -49 39q-16 0 -47 -9q-34 -8 -54 -8q-4 0 -13.5 1t-25.5 3t-29 3t-23 1q-69 0 -69 -36q0 -12 5.5 -21.5t14 -17.5t19 -15.5l19.5 -14.5q20 -22 20 -58v-326q0 -92 94 -174q88 -76 163 -76
q9 0 25 2t29 2q126 0 203 52q91 61 91 182v94q0 79 -19 123v136q0 44 19 66q1 1 9.5 7.5l25.5 20.5q19 15 19 39zM540 784q20 0 20 21q0 10 -15 24q-27 21 -32 26q-2 2 -8.5 11.5l-17.5 26.5l-17.5 24t-14.5 15q-3 11 -13.5 20t-20.5 9t-29 -8q-9 -2 -13 -5l-7 -3
q-15 -6 -37 -38q-29 -42 -32 -45q-2 -2 -9.5 -8.5t-21.5 -17.5q-15 -14 -15 -24q0 -21 20 -21q17 0 68 27q39 30 61 52q12 -9 33 -31q24 -24 33 -28q51 -27 68 -27z" />
    <glyph glyph-name="Udieresis" unicode="&#xdc;" horiz-adv-x="752" 
d="M748 698q0 24 -10 30t-36 6q-13 0 -41 -7.5t-81 -7.5q-8 0 -17.5 0.5t-18.5 1.5t-16 1.5t-10 0.5q-45 0 -45 -40q0 -27 17 -41q7 -6 36 -17q23 -7 31 -18q15 -20 15 -46q0 -7 -1 -19.5t-1 -18.5v-148q0 -13 1.5 -32t5.5 -44t6 -40.5t2 -22.5q0 -69 -36 -109
q-41 -45 -119 -45q-138 0 -175 178q-10 46 -10 340q-2 29 37 40q39 12 39 43q0 39 -49 39q-16 0 -47 -9q-34 -8 -54 -8q-4 0 -13.5 1t-25.5 3t-29 3t-23 1q-69 0 -69 -36q0 -12 5.5 -21.5t14 -17.5t19 -15.5l19.5 -14.5q20 -22 20 -58v-326q0 -92 94 -174q88 -76 163 -76
q9 0 25 2t29 2q126 0 203 52q91 61 91 182v94q0 79 -19 123v136q0 44 19 66q1 1 9.5 7.5l25.5 20.5q19 15 19 39zM567 875q0 38 -18 64q-20 30 -61 30q-31 0 -60 -35q-21 -27 -21 -36q0 -53 27 -81q22 -24 51 -24q39 0 60.5 23t21.5 59zM345 863q0 53 -28 81q-23 24 -50 24
q-39 0 -60.5 -23t-21.5 -59q0 -38 17 -64q21 -30 61 -30q32 0 61 35q21 27 21 36z" />
    <glyph glyph-name="Yacute" unicode="&#xdd;" horiz-adv-x="784" 
d="M779 678q0 46 -70 46q-29 0 -45 -4.5t-22 -4.5q-24 0 -27 4q-3 5 -32 5q-23 0 -40 -10t-17 -24q0 -23 22 -39q23 -15 23 -21t-56 -67q-56 -59 -66 -59q-20 0 -78 54q-59 54 -59 72q0 10 19 20q20 11 20 28q0 18 -23 32q-20 11 -35 11q-11 0 -43 -2t-68 -2q-5 0 -15.5 0.5
t-27.5 1.5t-31 1.5t-26 0.5q-44 0 -71 -43q0 -23 33 -41q14 -7 28 -13t28 -13l153 -178q62 -47 62 -73v-65q0 -24 11 -46v-131q-8 -18 -45 -34q-31 -13 -31 -37q0 -57 76 -57q15 0 30 1.5t28.5 4t24 4t15.5 1.5q9 0 34 -5.5t62 -5.5q76 0 76 45q0 32 -41 53q-48 24 -54 36
l-3 62v149q0 68 184 273l26 10l26 10q45 19 45 50zM625 894q4 21 3 30q-1 7 -11 18.5t-23 11.5t-49 -16q-15 -5 -38 -38q-14 -22 -22 -33t-9 -12q-2 -2 -9.5 -8.5t-21.5 -17.5q-15 -14 -15 -24q0 -21 20 -21q17 0 68 27q100 52 107 83z" />
    <glyph glyph-name="Thorn" unicode="&#xde;" horiz-adv-x="640" 
d="M637 385q6 117 -130 175q-111 47 -269 47l-1.5 13.5t-3.5 40.5q-4 55 -17 55t-37 0.5t-59 1.5q-71 3 -68 3q-46 0 -46 -27q0 -17 18 -32q14 -11 22.5 -19t12.5 -13q18 -24 18 -65v-225q0 -39 9 -70v-142q0 -36 -19 -59q-5 -6 -13.5 -13.5t-21.5 -16.5q-19 -13 -19 -21
q0 -33 52 -33q9 0 22.5 2.5t30 5t35.5 5t37 2.5t47 -7q16 -4 25 -6t12 -2q43 0 43 39q0 19 -19 32q-26 19 -37 36q-19 34 -19 98q0 9 8 9q3 0 16 -3t22 -3q16 0 33 -15q18 -14 26 -13q65 4 105 29l77 57l75 55q30 29 33 79zM489 388q0 -52 -64 -85q-51 -27 -103 -27
q-79 0 -79 67q0 4 0.5 11.5t1.5 19.5q1 19 0 30q-1 9 -7 16.5t-6 31.5q0 39 20 39q4 0 16.5 -2.5t20.5 -2.5q101 0 139 -11q61 -19 61 -87z" />
    <glyph glyph-name="germandbls" unicode="&#xdf;" horiz-adv-x="578" 
d="M209 632q-1 1 10 4q12 3 11 3q-1 -1 48 -1q60 0 81 -18q21 -14 40 -60q21 -47 21 -65q0 -39 -25 -67l-26.5 -24.5l-19.5 -17.5q-25 -22 -25 -49q0 -18 50 -76q51 -56 51 -86q0 -76 -46 -76q-21 0 -38 29q-15 30 -23 30q-23 0 -23 -20q0 -6 -3.5 -22t-3.5 -26q0 -15 6 -28
q26 -54 55 -62l26 -6q3 -1 8 -1q23 0 55 24q34 28 57 75q40 66 60 87q4 12 4 31q0 37 -19 78q-7 16 -12.5 26t-10.5 15l-17.5 15.5l-12.5 10.5q-17 17 -17 36q0 12 26 50q27 37 27 89q0 48 -36 107q-31 52 -98 76q-20 7 -39 12q-26 9 -112 9q-87 0 -123 -53
q-29 -44 -29 -137v-396q0 -68 -20 -91q-8 -8 -37 -15q-20 -5 -20 -36q0 -14 25 -26l95 18h139q21 0 14 37q-3 18 -20 20q-20 3 -23 9q-13 13 -13 65q0 258 -32 380q0 5 -1.5 15t-3.5 26t-3 25.5t-1 14.5q0 13 8 27.5t16 14.5z" />
    <glyph glyph-name="agrave" unicode="&#xe0;" 
d="M225 526q20 0 20 21q0 10 -15 24q-14 11 -21.5 17.5t-9.5 8.5q-1 1 -9 12t-22 33q-23 33 -38 38q-36 16 -49 16t-23 -11.5t-11 -18.5q-2 -9 3 -30q4 -21 43 -47q20 -13 64 -36q51 -27 68 -27zM529 31q0 19 -18 30l-23.5 16.5t-13.5 10.5q-23 25 -32 76q-2 8 -2.5 29
t-1.5 56t-2 56.5t-3 29.5q-10 42 -64 91q-62 57 -122 57q-139 0 -164 -43q0 -8 -8 -19.5t-8 -27.5q0 -21 23 -42q23 -20 52 -20q39 0 54 21q4 10 7.5 20.5t9 19.5t12.5 14.5t19 5.5q27 0 47.5 -13t20.5 -37q0 -26 -56 -38l-29 -4l-29 -4q-83 -26 -109 -40q-77 -44 -77 -112
q0 -74 42 -123q48 -56 134 -56q57 0 95 20t48 20q20 0 58 -23q37 -22 75 -22q27 0 46 13.5t19 37.5zM327 121q0 -18 -15 -34q-19 -22 -53 -22q-41 0 -72 30q-30 27 -30 57q0 47 49 75q36 21 63 21t44 -41q14 -37 14 -86z" />
    <glyph glyph-name="aacute" unicode="&#xe1;" 
d="M404 636q4 21 3 30q-1 7 -11 18.5t-23 11.5t-49 -16q-15 -5 -38 -38q-14 -22 -22 -33t-9 -12q-2 -2 -9.5 -8.5t-21.5 -17.5q-15 -14 -15 -24q0 -21 20 -21q17 0 68 27q100 52 107 83zM529 31q0 19 -18 30l-23.5 16.5t-13.5 10.5q-23 25 -32 76q-2 8 -2.5 29t-1.5 56
t-2 56.5t-3 29.5q-10 42 -64 91q-62 57 -122 57q-139 0 -164 -43q0 -8 -8 -19.5t-8 -27.5q0 -21 23 -42q23 -20 52 -20q39 0 54 21q4 10 7.5 20.5t9 19.5t12.5 14.5t19 5.5q27 0 47.5 -13t20.5 -37q0 -26 -56 -38l-29 -4l-29 -4q-83 -26 -109 -40q-77 -44 -77 -112
q0 -74 42 -123q48 -56 134 -56q57 0 95 20t48 20q20 0 58 -23q37 -22 75 -22q27 0 46 13.5t19 37.5zM327 121q0 -18 -15 -34q-19 -22 -53 -22q-41 0 -72 30q-30 27 -30 57q0 47 49 75q36 21 63 21t44 -41q14 -37 14 -86z" />
    <glyph glyph-name="acircumflex" unicode="&#xe2;" 
d="M371 526q20 0 20 21q0 10 -15 24q-27 21 -32 26q-2 2 -8.5 11.5l-17.5 26.5l-17.5 24t-14.5 15q-3 11 -13.5 20t-20.5 9t-29 -8q-9 -2 -13 -5l-7 -3q-15 -6 -37 -38q-29 -42 -32 -45q-2 -2 -9.5 -8.5t-21.5 -17.5q-15 -14 -15 -24q0 -21 20 -21q17 0 68 27q39 30 61 52
q12 -9 33 -31q24 -24 33 -28q51 -27 68 -27zM529 31q0 19 -18 30l-23.5 16.5t-13.5 10.5q-23 25 -32 76q-2 8 -2.5 29t-1.5 56t-2 56.5t-3 29.5q-10 42 -64 91q-62 57 -122 57q-139 0 -164 -43q0 -8 -8 -19.5t-8 -27.5q0 -21 23 -42q23 -20 52 -20q39 0 54 21q4 10 7.5 20.5
t9 19.5t12.5 14.5t19 5.5q27 0 47.5 -13t20.5 -37q0 -26 -56 -38l-29 -4l-29 -4q-83 -26 -109 -40q-77 -44 -77 -112q0 -74 42 -123q48 -56 134 -56q57 0 95 20t48 20q20 0 58 -23q37 -22 75 -22q27 0 46 13.5t19 37.5zM327 121q0 -18 -15 -34q-19 -22 -53 -22q-41 0 -72 30
q-30 27 -30 57q0 47 49 75q36 21 63 21t44 -41q14 -37 14 -86z" />
    <glyph glyph-name="atilde" unicode="&#xe3;" 
d="M455 556q29 0 29 18q0 25 -112 74q-21 10 -45 10q-32 0 -97 -31q-66 -32 -110 -27q-10 1 -27.5 7.5t-27.5 6.5q-25 0 -25 -12q0 -13 44 -37q19 -10 35.5 -17t32.5 -12q21 -6 40 -6q33 0 92 30q55 28 96 24q16 -2 38 -15q23 -13 37 -13zM529 31q0 19 -18 30l-23.5 16.5
t-13.5 10.5q-23 25 -32 76q-2 8 -2.5 29t-1.5 56t-2 56.5t-3 29.5q-10 42 -64 91q-62 57 -122 57q-139 0 -164 -43q0 -8 -8 -19.5t-8 -27.5q0 -21 23 -42q23 -20 52 -20q39 0 54 21q4 10 7.5 20.5t9 19.5t12.5 14.5t19 5.5q27 0 47.5 -13t20.5 -37q0 -26 -56 -38l-29 -4
l-29 -4q-83 -26 -109 -40q-77 -44 -77 -112q0 -74 42 -123q48 -56 134 -56q57 0 95 20t48 20q20 0 58 -23q37 -22 75 -22q27 0 46 13.5t19 37.5zM327 121q0 -18 -15 -34q-19 -22 -53 -22q-41 0 -72 30q-30 27 -30 57q0 47 49 75q36 21 63 21t44 -41q14 -37 14 -86z" />
    <glyph glyph-name="adieresis" unicode="&#xe4;" 
d="M415 645q0 38 -17 64q-21 30 -61 30q-32 0 -61 -35q-21 -27 -21 -36q0 -53 27 -81q22 -24 51 -24q39 0 60.5 23t21.5 59zM233 633q0 53 -28 81q-23 24 -50 24q-39 0 -60.5 -23t-21.5 -59q0 -38 17 -64q21 -30 61 -30q32 0 61 35q21 27 21 36zM529 31q0 19 -18 30
l-23.5 16.5t-13.5 10.5q-23 25 -32 76q-2 8 -2.5 29t-1.5 56t-2 56.5t-3 29.5q-10 42 -64 91q-62 57 -122 57q-139 0 -164 -43q0 -8 -8 -19.5t-8 -27.5q0 -21 23 -42q23 -20 52 -20q39 0 54 21q4 10 7.5 20.5t9 19.5t12.5 14.5t19 5.5q27 0 47.5 -13t20.5 -37q0 -26 -56 -38
l-29 -4l-29 -4q-83 -26 -109 -40q-77 -44 -77 -112q0 -74 42 -123q48 -56 134 -56q57 0 95 20t48 20q20 0 58 -23q37 -22 75 -22q27 0 46 13.5t19 37.5zM327 121q0 -18 -15 -34q-19 -22 -53 -22q-41 0 -72 30q-30 27 -30 57q0 47 49 75q36 21 63 21t44 -41q14 -37 14 -86z
" />
    <glyph glyph-name="aring" unicode="&#xe5;" 
d="M362 634q0 42 -43 76q-35 27 -46 27q-65 0 -103 -35q-29 -29 -29 -64q0 -49 29 -76t74 -27q49 0 80 22q38 26 38 77zM529 31q0 19 -18 30l-23.5 16.5t-13.5 10.5q-23 25 -32 76q-2 8 -2.5 29t-1.5 56t-2 56.5t-3 29.5q-10 42 -64 91q-62 57 -122 57q-139 0 -164 -43
q0 -8 -8 -19.5t-8 -27.5q0 -21 23 -42q23 -20 52 -20q39 0 54 21q4 10 7.5 20.5t9 19.5t12.5 14.5t19 5.5q27 0 47.5 -13t20.5 -37q0 -26 -56 -38l-29 -4l-29 -4q-83 -26 -109 -40q-77 -44 -77 -112q0 -74 42 -123q48 -56 134 -56q57 0 95 20t48 20q20 0 58 -23
q37 -22 75 -22q27 0 46 13.5t19 37.5zM314 637q0 -61 -71 -61q-31 0 -44.5 14t-13.5 50q0 53 84 53q19 0 32 -19t13 -37zM327 121q0 -18 -15 -34q-19 -22 -53 -22q-41 0 -72 30q-30 27 -30 57q0 47 49 75q36 21 63 21t44 -41q14 -37 14 -86z" />
    <glyph glyph-name="ae" unicode="&#xe6;" horiz-adv-x="779" 
d="M768 308q0 98 -177 163q-7 10 -31 10q-19 0 -43 -6q-8 -3 -26 -9t-47 -14q-22 -7 -40 -14t-32 -15q-63 60 -125 60q-139 0 -164 -43q0 -8 -8 -19.5t-8 -27.5q0 -21 23 -42q23 -20 52 -20q39 0 54 21q4 10 7.5 20.5t9 19.5t12.5 14.5t19 5.5q5 0 11 -0.5t11 -1.5
q46 -10 46 -48q0 -26 -56 -38l-29 -4l-29 -4q-83 -26 -109 -40q-77 -44 -77 -112q0 -74 42 -123q48 -56 134 -56q57 0 95 20t48 20q19 0 57 -23q37 -22 76 -22q17 0 31 6q23 -4 51 -4q66 0 122 35q42 28 73 70q24 34 24 46q0 15 -13 25t-22 10q-21 0 -40 -27
q-15 -20 -26 -33t-18 -19q-35 -27 -90 -27q-57 0 -101 56q-4 10 -7.5 21t-5.5 25q-3 13 -3 60q23 26 36 31h142q14 0 67 -9q84 0 84 62zM630 333q0 -12 -15 -19t-27 -7h-110q-11 0 -25 11q-18 13 -18 35q0 17 39 35q38 19 69 19q39 0 66 -33q21 -26 21 -41zM327 121
q0 -18 -15 -34q-19 -20 -51 -22h-2q-40 0 -71 28t-31 59q0 66 89 92q1 -1 17 3q3 1 6 1q27 0 44 -41q14 -37 14 -86z" />
    <glyph glyph-name="ccedilla" unicode="&#xe7;" horiz-adv-x="452" 
d="M307 -23q0 9 -1 12q30 14 40 14q7 0 27 -11q22 -11 24 -11q18 0 30 13t12 31v81q0 19 -6.5 32t-12.5 13q-30 1 -57 -51q-26 -53 -56 -53q-56 0 -99 69q-39 61 -39 125q0 50 9 103q14 80 101 80q35 0 62 -24q6 -5 15 -17l22 -29q16 -24 29 -24q38 0 38 119q0 23 -2 29
q-4 10 -27 10q-21 0 -36 -8.5t-28 -8.5l-9 1.5t-28 3.5t-31 3.5t-19 1.5q-128 0 -205 -104q-58 -80 -58 -162q0 -83 63 -153q64 -69 155 -82q0 -22 -16 -48q-20 -35 -48 -33q-28 0 -46.5 -20t-18.5 -41q0 -26 26 -24q147 11 168 68q8 21 15 56q7 29 7 39z" />
    <glyph glyph-name="egrave" unicode="&#xe8;" horiz-adv-x="536" 
d="M263 526q20 0 20 21q0 10 -15 24q-14 11 -21.5 17.5t-9.5 8.5q-1 1 -9 12t-22 33q-23 33 -38 38q-36 16 -49 16t-23 -11.5t-11 -18.5q-2 -9 3 -30q4 -21 43 -47q20 -13 64 -36q51 -27 68 -27zM527 308q0 98 -177 163q-7 10 -31 10q-19 0 -43 -6l-75 -21q-78 -26 -128 -72
q-68 -62 -68 -149q0 -111 92 -183q88 -68 208 -68q66 0 122 35q42 28 73 70q24 34 24 46q0 15 -13 25t-22 10q-21 0 -40 -27q-15 -20 -26 -33t-18 -19q-35 -27 -90 -27q-40 0 -80 34q-46 40 -46 95q0 44 45 64h142q14 0 67 -9q84 0 84 62zM389 333q0 -12 -15 -19t-27 -7
h-110q-11 0 -25 11q-18 13 -18 35q0 17 39 35q38 19 69 19q39 0 66 -33q21 -26 21 -41z" />
    <glyph glyph-name="eacute" unicode="&#xe9;" horiz-adv-x="536" 
d="M404 636q4 21 3 30q-1 7 -11 18.5t-23 11.5t-49 -16q-15 -5 -38 -38q-14 -22 -22 -33t-9 -12q-2 -2 -9.5 -8.5t-21.5 -17.5q-15 -14 -15 -24q0 -21 20 -21q17 0 68 27q100 52 107 83zM527 308q0 98 -177 163q-7 10 -31 10q-19 0 -43 -6l-75 -21q-78 -26 -128 -72
q-68 -62 -68 -149q0 -111 92 -183q88 -68 208 -68q66 0 122 35q42 28 73 70q24 34 24 46q0 15 -13 25t-22 10q-21 0 -40 -27q-15 -20 -26 -33t-18 -19q-35 -27 -90 -27q-40 0 -80 34q-46 40 -46 95q0 44 45 64h142q14 0 67 -9q84 0 84 62zM389 333q0 -12 -15 -19t-27 -7
h-110q-11 0 -25 11q-18 13 -18 35q0 17 39 35q38 19 69 19q39 0 66 -33q21 -26 21 -41z" />
    <glyph glyph-name="ecircumflex" unicode="&#xea;" horiz-adv-x="536" 
d="M415 526q20 0 20 21q0 10 -15 24q-27 21 -32 26q-2 2 -8.5 11.5l-17.5 26.5l-17.5 24t-14.5 15q-3 11 -13.5 20t-20.5 9t-29 -8q-9 -2 -13 -5l-7 -3q-15 -6 -37 -38q-29 -42 -32 -45q-2 -2 -9.5 -8.5t-21.5 -17.5q-15 -14 -15 -24q0 -21 20 -21q17 0 68 27q39 30 61 52
q12 -9 33 -31q24 -24 33 -28q51 -27 68 -27zM527 308q0 98 -177 163q-7 10 -31 10q-19 0 -43 -6l-75 -21q-78 -26 -128 -72q-68 -62 -68 -149q0 -111 92 -183q88 -68 208 -68q66 0 122 35q42 28 73 70q24 34 24 46q0 15 -13 25t-22 10q-21 0 -40 -27q-15 -20 -26 -33
t-18 -19q-35 -27 -90 -27q-40 0 -80 34q-46 40 -46 95q0 44 45 64h142q14 0 67 -9q84 0 84 62zM389 333q0 -12 -15 -19t-27 -7h-110q-11 0 -25 11q-18 13 -18 35q0 17 39 35q38 19 69 19q39 0 66 -33q21 -26 21 -41z" />
    <glyph glyph-name="edieresis" unicode="&#xeb;" horiz-adv-x="536" 
d="M475 645q0 38 -17 64q-21 30 -61 30q-32 0 -61 -35q-21 -27 -21 -36q0 -53 27 -81q22 -24 51 -24q39 0 60.5 23t21.5 59zM293 633q0 53 -28 81q-23 24 -50 24q-39 0 -60.5 -23t-21.5 -59q0 -38 17 -64q21 -30 61 -30q32 0 61 35q21 27 21 36zM527 308q0 98 -177 163
q-7 10 -31 10q-19 0 -43 -6l-75 -21q-78 -26 -128 -72q-68 -62 -68 -149q0 -111 92 -183q88 -68 208 -68q66 0 122 35q42 28 73 70q24 34 24 46q0 15 -13 25t-22 10q-21 0 -40 -27q-15 -20 -26 -33t-18 -19q-35 -27 -90 -27q-40 0 -80 34q-46 40 -46 95q0 44 45 64h142
q14 0 67 -9q84 0 84 62zM389 333q0 -12 -15 -19t-27 -7h-110q-11 0 -25 11q-18 13 -18 35q0 17 39 35q38 19 69 19q39 0 66 -33q21 -26 21 -41z" />
    <glyph glyph-name="igrave" unicode="&#xec;" horiz-adv-x="312" 
d="M49 527q20 0 20 21q0 10 -15 24q-14 11 -21.5 17.5t-9.5 8.5q-2 1 -30 45q-23 33 -38 38q-36 16 -49 16t-23 -11.5t-11 -18.5q-2 -9 3 -30q4 -21 43 -47q20 -13 64 -36q49 -27 67 -27zM301 34q0 22 -20 30q-29 11 -37 23q-19 25 -16 92v243q0 10 -4.5 21.5t-11.5 21.5
t-16 16t-18 6q-4 0 -10 -2l-15 -9.5t-14 -9.5q-13 -8 -25 -14.5t-23 -10.5l-27.5 -10l-27.5 -10q-27 -11 -27 -31q0 -21 17 -26q31 -11 33 -12q17 -12 17 -50v-95q0 -3 1 -11t3 -22q5 -28 5 -43q0 -38 -17 -55q-5 -5 -32 -18q-17 -9 -17 -28q0 -37 42 -37q7 0 22 4.5t50 4.5
q13 0 27.5 -2l28 -4t25 -4t17.5 -2q70 0 70 44z" />
    <glyph glyph-name="iacute" unicode="&#xed;" horiz-adv-x="312" 
d="M343 635q4 21 3 30q-1 7 -11 18.5t-23 11.5t-49 -16q-15 -5 -38 -38q-14 -22 -22 -33t-9 -12q-2 -2 -9.5 -8.5t-21.5 -17.5q-15 -14 -15 -24q0 -21 20 -21q17 0 68 27q100 52 107 83zM301 34q0 22 -20 30q-29 11 -37 23q-19 25 -16 92v243q0 10 -4.5 21.5t-11.5 21.5
t-16 16t-18 6q-4 0 -10 -2l-15 -9.5t-14 -9.5q-13 -8 -25 -14.5t-23 -10.5l-27.5 -10l-27.5 -10q-27 -11 -27 -31q0 -21 17 -26q31 -11 33 -12q17 -12 17 -50v-95q0 -3 1 -11t3 -22q5 -28 5 -43q0 -38 -17 -55q-5 -5 -32 -18q-17 -9 -17 -28q0 -37 42 -37q7 0 22 4.5t50 4.5
q13 0 27.5 -2l28 -4t25 -4t17.5 -2q70 0 70 44z" />
    <glyph glyph-name="icircumflex" unicode="&#xee;" horiz-adv-x="312" 
d="M263 525q20 0 20 21q0 10 -15 24q-27 21 -32 26q-2 2 -8.5 11.5l-17.5 26.5l-17.5 24t-14.5 15q-3 11 -13.5 20t-20.5 9t-29 -8q-9 -2 -13 -5l-7 -3q-15 -6 -37 -38q-29 -42 -32 -45q-2 -2 -9.5 -8.5l-20.5 -17.5q-15 -14 -15 -24q0 -21 19 -21q17 0 68 27q39 30 61 52
q12 -9 33 -31q24 -24 33 -28q51 -27 68 -27zM301 34q0 22 -20 30q-29 11 -37 23q-19 25 -16 92v243q0 10 -4.5 21.5t-11.5 21.5t-16 16t-18 6q-4 0 -10 -2l-15 -9.5t-14 -9.5q-13 -8 -25 -14.5t-23 -10.5l-27.5 -10l-27.5 -10q-27 -11 -27 -31q0 -21 17 -26q31 -11 33 -12
q17 -12 17 -50v-95q0 -3 1 -11t3 -22q5 -28 5 -43q0 -38 -17 -55q-5 -5 -32 -18q-17 -9 -17 -28q0 -37 42 -37q7 0 22 4.5t50 4.5q13 0 27.5 -2l28 -4t25 -4t17.5 -2q70 0 70 44z" />
    <glyph glyph-name="idieresis" unicode="&#xef;" horiz-adv-x="312" 
d="M323 646q0 38 -17 64q-21 30 -61 30q-32 0 -61 -35q-21 -27 -21 -36q0 -53 27 -81q22 -24 51 -24q39 0 60.5 23t21.5 59zM141 634q0 53 -28 81q-23 24 -50 24q-39 0 -60 -23t-21 -59q0 -38 17 -64q19 -30 60 -30q32 0 61 35q21 27 21 36zM301 34q0 22 -20 30
q-29 11 -37 23q-19 25 -16 92v243q0 10 -4.5 21.5t-11.5 21.5t-16 16t-18 6q-4 0 -10 -2l-15 -9.5t-14 -9.5q-13 -8 -25 -14.5t-23 -10.5l-27.5 -10l-27.5 -10q-27 -11 -27 -31q0 -21 17 -26q31 -11 33 -12q17 -12 17 -50v-95q0 -3 1 -11t3 -22q5 -28 5 -43q0 -38 -17 -55
q-5 -5 -32 -18q-17 -9 -17 -28q0 -37 42 -37q7 0 22 4.5t50 4.5q13 0 27.5 -2l28 -4t25 -4t17.5 -2q70 0 70 44z" />
    <glyph glyph-name="eth" unicode="&#xf0;" horiz-adv-x="556" 
d="M352 282q0 -89 -9 -128q-16 -67 -65 -67q-44 0 -74 38q-28 34 -28 73q22 189 105 189q23 0 44 -23q27 -30 27 -82zM366 770q0 15 -11.5 26.5t-26.5 11.5q-24 0 -58 -28l-28.5 -27.5l-14.5 -14.5l-22 -22l-40 21l-38 26.5t-46 13.5q-13 0 -51 -38q-36 -38 -36 -61
q0 -18 17 -18q6 0 25 11q19 12 33 12q24 0 53 -27l3 -3t6 -5q-5 -6 -11 -11q-11 -9 -52 -29q-29 -14 -54 -51q-14 -23 -14 -39q0 -34 38 -34q22 0 42 15q34 26 47 48q10 18 47 39q9 4 17 11q22 -19 34.5 -31.5t16.5 -17.5l31 -21l30 -20q56 -44 59 -78q0 -3 -2 -3
q4 0 -41 20q-43 20 -84 20q-94 0 -161 -81q-65 -77 -65 -165q0 -68 54 -144q65 -89 153 -89q49 0 83 17q34 18 35 18q10 0 30 -15q20 -14 32 -14q37 0 88 13q60 16 60 35q0 21 -30 44q-29 24 -29 52v65q42 130 42 200q0 38 -14 50l-248 209l43.5 36t27.5 25q30 27 30 48z
" />
    <glyph glyph-name="ntilde" unicode="&#xf1;" horiz-adv-x="580" 
d="M495 556q29 0 29 18q0 25 -112 74q-21 10 -45 10q-32 0 -97 -31q-66 -32 -110 -27q-10 1 -27.5 7.5t-27.5 6.5q-25 0 -25 -12q0 -13 44 -37q19 -10 35.5 -17t32.5 -12q21 -6 40 -6q33 0 92 30q55 28 96 24q16 -2 38 -15q23 -13 37 -13zM573 16q0 21 -28 46q-27 25 -27 41
v93l10 48q0 6 1.5 20t3.5 36t3.5 35t1.5 17q0 80 -56 113q-31 19 -63 19q-51 0 -144 -39q-17 0 -38 15t-33 15q-19 0 -41 -13q-26 -16 -35 -17q-14 -2 -29 -3t-29 -3q-41 -11 -41 -42q0 -15 25 -28q26 -12 26 -26v-208q-5 -44 -23 -61q-2 -2 -32 -19q-15 -9 -15 -32
q0 -31 38 -31l83 12l100 -19q44 8 44 41q0 19 -17 33q-22 16 -33 40q-17 42 -17 129q0 64 14 95q22 46 82 46q32 0 57 -14q28 -16 28 -46q0 -12 -5 -27v-188q0 -26 -39 -45q-38 -18 -38 -39q0 -25 42 -25q23 0 46.5 6.5t39.5 6.5t38.5 -6.5t41.5 -6.5q58 0 58 31z" />
    <glyph glyph-name="ograve" unicode="&#xf2;" horiz-adv-x="567" 
d="M244 526q20 0 20 21q0 10 -15 24q-14 11 -21.5 17.5t-9.5 8.5q-1 1 -9 12t-22 33q-23 33 -38 38q-36 16 -49 16t-23 -11.5t-11 -18.5q-2 -9 3 -30q4 -21 43 -47q20 -13 64 -36q51 -27 68 -27zM563 214v69q0 68 -85 134q-81 63 -145 64q-49 1 -51 -1t-38 1q-65 5 -140 -66
q-90 -84 -90 -211q0 -105 83 -167q79 -58 211 -61q67 -2 153 60q102 75 102 178zM407 121q0 -15 -25 -40q-26 -24 -42 -24q-35 0 -108 84q-81 93 -81 171q0 48 32 74q28 22 74 22q71 0 118 -125q32 -88 32 -130v-32z" />
    <glyph glyph-name="oacute" unicode="&#xf3;" horiz-adv-x="567" 
d="M493 636q4 21 3 30q-1 7 -11 18.5t-23 11.5t-49 -16q-15 -5 -38 -38q-14 -22 -22 -33t-9 -12q-2 -2 -9.5 -8.5t-21.5 -17.5q-15 -14 -15 -24q0 -21 20 -21q17 0 68 27q100 52 107 83zM563 214v69q0 68 -85 134q-81 63 -145 64q-49 1 -51 -1t-38 1q-65 5 -140 -66
q-90 -84 -90 -211q0 -105 83 -167q79 -58 211 -61q67 -2 153 60q102 75 102 178zM407 121q0 -15 -25 -40q-26 -24 -42 -24q-35 0 -108 84q-81 93 -81 171q0 48 32 74q28 22 74 22q71 0 118 -125q32 -88 32 -130v-32z" />
    <glyph glyph-name="ocircumflex" unicode="&#xf4;" horiz-adv-x="567" 
d="M415 525q20 0 20 21q0 10 -15 24q-27 21 -32 26q-2 2 -8.5 11.5l-17.5 26.5l-17.5 24t-14.5 15q-3 11 -13.5 20t-20.5 9t-29 -8q-9 -2 -13 -5l-7 -3q-15 -6 -37 -38q-29 -42 -32 -45q-2 -2 -9.5 -8.5t-21.5 -17.5q-15 -14 -15 -24q0 -21 20 -21q17 0 68 27q39 30 61 52
q12 -9 33 -31q24 -24 33 -28q51 -27 68 -27zM563 214v69q0 68 -85 134q-81 63 -145 64q-49 1 -51 -1t-38 1q-65 5 -140 -66q-90 -84 -90 -211q0 -105 83 -167q79 -58 211 -61q67 -2 153 60q102 75 102 178zM407 121q0 -15 -25 -40q-26 -24 -42 -24q-35 0 -108 84
q-81 93 -81 171q0 48 32 74q28 22 74 22q71 0 118 -125q32 -88 32 -130v-32z" />
    <glyph glyph-name="otilde" unicode="&#xf5;" horiz-adv-x="567" 
d="M485 556q29 0 29 18q0 25 -112 74q-21 10 -45 10q-32 0 -97 -31q-66 -32 -110 -27q-10 1 -27.5 7.5t-27.5 6.5q-25 0 -25 -12q0 -13 44 -37q19 -10 35.5 -17t32.5 -12q21 -6 40 -6q33 0 92 30q55 28 96 24q16 -2 38 -15q23 -13 37 -13zM563 214v69q0 68 -85 134
q-81 63 -145 64q-49 1 -51 -1t-38 1q-65 5 -140 -66q-90 -84 -90 -211q0 -105 83 -167q79 -58 211 -61q67 -2 153 60q102 75 102 178zM407 121q0 -15 -25 -40q-26 -24 -42 -24q-35 0 -108 84q-81 93 -81 171q0 48 32 74q28 22 74 22q71 0 118 -125q32 -88 32 -130v-32z" />
    <glyph glyph-name="odieresis" unicode="&#xf6;" horiz-adv-x="567" 
d="M463 646q0 38 -17 64q-21 30 -61 30q-32 0 -61 -35q-21 -27 -21 -36q0 -53 27 -81q22 -24 51 -24q39 0 60.5 23t21.5 59zM281 634q0 53 -28 81q-23 24 -50 24q-39 0 -60.5 -23t-21.5 -59q0 -38 17 -64q21 -30 61 -30q32 0 61 35q21 27 21 36zM563 214v69q0 68 -85 134
q-81 63 -145 64q-49 1 -51 -1t-38 1q-65 5 -140 -66q-90 -84 -90 -211q0 -105 83 -167q79 -58 211 -61q67 -2 153 60q102 75 102 178zM407 121q0 -15 -25 -40q-26 -24 -42 -24q-35 0 -108 84q-81 93 -81 171q0 48 32 74q28 22 74 22q71 0 118 -125q32 -88 32 -130v-32z" />
    <glyph glyph-name="divide" unicode="&#xf7;" horiz-adv-x="464" 
d="M440 198q9 68 -68 68q-6 0 -16 -1.5l-20.5 -3t-19.5 -2.5t-14 -1q-9 0 -24 4.5t-23 4.5q-6 0 -15.5 -2.5t-19.5 -6t-19.5 -6t-16.5 -2.5q-9 0 -19.5 3l-21 6t-20 6t-16.5 3q-19 0 -43 -10q-35 -15 -40 -44q-3 -24 13 -43.5t39 -20.5q35 -2 54 5.5t27 7.5q7 0 15.5 -1.5
l19.5 -3.5q32 -3 55 -4t37 0q7 0 17.5 -2.5t21 -4.5t20 -4t15.5 -2q11 0 26 5q52 21 56 52zM318 29q0 18 -7.5 33.5t-20.5 27t-29 18t-34 6.5q-31 0 -56 -36q-21 -30 -21 -49q0 -21 21 -46q21 -27 47 -27q45 0 72.5 20.5t27.5 52.5zM324 376q0 18 -7.5 33.5t-20.5 27t-29 18
t-34 6.5q-31 0 -56 -36q-21 -30 -21 -49q0 -20 21 -47t47 -27q45 0 72.5 21t27.5 53z" />
    <glyph glyph-name="oslash" unicode="&#xf8;" horiz-adv-x="567" 
d="M190 197q-39 63 -39 115q0 48 32 74q28 22 74 22q57 0 98 -80q-11 -8 -24.5 -19l-29.5 -25q-44 -41 -111 -87zM384 257q23 -75 23 -104v-32q0 -15 -25 -40q-26 -24 -42 -24q-32 0 -101 76l84 71zM549 402q15 13 15 27q0 13 -32 42q-1 1 -4 1q-16 0 -69 -41
q-69 48 -126 50q-49 1 -51 -1t-38 1q-65 5 -140 -66q-90 -84 -90 -211q0 -63 31 -112l-26 -14q-10 -7 -10 -19q0 -9 6 -24q-3 -5 -3 -10q0 -12 12 -24t24 -12t25 11l37 28q77 -49 198 -52q67 -2 153 60q102 75 102 178v69q0 44 -41 93q27 24 27 26z" />
    <glyph glyph-name="ugrave" unicode="&#xf9;" horiz-adv-x="632" 
d="M305 525q20 0 20 21q0 10 -15 24q-14 11 -21.5 17.5t-9.5 8.5q-1 1 -9 12t-22 33q-23 33 -38 38q-36 16 -49 16t-23 -11.5t-11 -18.5q-2 -9 3 -30q4 -21 43 -47q20 -13 64 -36q51 -27 68 -27zM608 453q0 26 -42 26q-19 0 -53 -6q-35 -6 -42 -6q-112 0 -112 -34
q0 -23 27 -39q28 -16 28 -51q0 -197 -10 -218q-9 -23 -57 -36q-10 -3 -21 -5.5t-24 -4.5q-38 0 -55 56q-12 37 -12 89q0 48 9 131q9 82 9 76q0 65 -49 65q-33 0 -108 -39q-80 -42 -80 -71q0 -12 39 -27q40 -15 40 -44q0 -7 -3 -21t-3 -22q0 -10 6 -23.5t6 -24.5
q0 -10 -5 -38t-5 -39q0 -68 41 -117q43 -51 115 -51q38 0 120 29q6 0 28 -13q23 -14 37 -14q9 0 19 5q16 10 97 33q53 15 53 44q0 3 -13 19q-17 19 -24 42q-13 33 -13 81v94q0 81 15 110q7 16 27 21q15 4 15 23z" />
    <glyph glyph-name="uacute" unicode="&#xfa;" horiz-adv-x="632" 
d="M509 635q4 21 3 30q-1 7 -11 18.5t-23 11.5t-49 -16q-15 -5 -38 -38q-14 -22 -22 -33t-9 -12q-2 -2 -9.5 -8.5t-21.5 -17.5q-15 -14 -15 -24q0 -21 20 -21q17 0 68 27q100 52 107 83zM608 453q0 26 -42 26q-19 0 -53 -6q-35 -6 -42 -6q-112 0 -112 -34q0 -23 27 -39
q28 -16 28 -51q0 -197 -10 -218q-9 -23 -57 -36q-10 -3 -21 -5.5t-24 -4.5q-38 0 -55 56q-12 37 -12 89q0 48 9 131q9 82 9 76q0 65 -49 65q-33 0 -108 -39q-80 -42 -80 -71q0 -12 39 -27q40 -15 40 -44q0 -7 -3 -21t-3 -22q0 -10 6 -23.5t6 -24.5q0 -10 -5 -38t-5 -39
q0 -68 41 -117q43 -51 115 -51q38 0 120 29q6 0 28 -13q23 -14 37 -14q9 0 19 5q16 10 97 33q53 15 53 44q0 3 -13 19q-17 19 -24 42q-13 33 -13 81v94q0 81 15 110q7 16 27 21q15 4 15 23z" />
    <glyph glyph-name="ucircumflex" unicode="&#xfb;" horiz-adv-x="632" 
d="M456 525q20 0 20 21q0 10 -15 24q-27 21 -32 26q-2 2 -8.5 11.5l-17.5 26.5l-17.5 24t-14.5 15q-3 11 -13.5 20t-20.5 9t-29 -8q-9 -2 -13 -5l-7 -3q-15 -6 -37 -38q-29 -42 -32 -45q-2 -2 -9.5 -8.5t-21.5 -17.5q-15 -14 -15 -24q0 -21 20 -21q17 0 68 27q39 30 61 52
q12 -9 33 -31q24 -24 33 -28q51 -27 68 -27zM608 453q0 26 -42 26q-19 0 -53 -6q-35 -6 -42 -6q-112 0 -112 -34q0 -23 27 -39q28 -16 28 -51q0 -197 -10 -218q-9 -23 -57 -36q-10 -3 -21 -5.5t-24 -4.5q-38 0 -55 56q-12 37 -12 89q0 48 9 131q9 82 9 76q0 65 -49 65
q-33 0 -108 -39q-80 -42 -80 -71q0 -12 39 -27q40 -15 40 -44q0 -7 -3 -21t-3 -22q0 -10 6 -23.5t6 -24.5q0 -10 -5 -38t-5 -39q0 -68 41 -117q43 -51 115 -51q38 0 120 29q6 0 28 -13q23 -14 37 -14q9 0 19 5q16 10 97 33q53 15 53 44q0 3 -13 19q-17 19 -24 42
q-13 33 -13 81v94q0 81 15 110q7 16 27 21q15 4 15 23z" />
    <glyph glyph-name="udieresis" unicode="&#xfc;" horiz-adv-x="632" 
d="M498 645q0 38 -17 64q-21 30 -61 30q-32 0 -61 -35q-21 -27 -21 -36q0 -53 27 -81q22 -24 51 -24q39 0 60.5 23t21.5 59zM316 633q0 53 -28 81q-23 24 -50 24q-39 0 -60.5 -23t-21.5 -59q0 -38 17 -64q21 -30 61 -30q32 0 61 35q21 27 21 36zM608 453q0 26 -42 26
q-19 0 -53 -6q-35 -6 -42 -6q-112 0 -112 -34q0 -23 27 -39q28 -16 28 -51q0 -197 -10 -218q-9 -23 -57 -36q-10 -3 -21 -5.5t-24 -4.5q-38 0 -55 56q-12 37 -12 89q0 48 9 131q9 82 9 76q0 65 -49 65q-33 0 -108 -39q-80 -42 -80 -71q0 -12 39 -27q40 -15 40 -44
q0 -7 -3 -21t-3 -22q0 -10 6 -23.5t6 -24.5q0 -10 -5 -38t-5 -39q0 -68 41 -117q43 -51 115 -51q38 0 120 29q6 0 28 -13q23 -14 37 -14q9 0 19 5q16 10 97 33q53 15 53 44q0 3 -13 19q-17 19 -24 42q-13 33 -13 81v94q0 81 15 110q7 16 27 21q15 4 15 23z" />
    <glyph glyph-name="yacute" unicode="&#xfd;" horiz-adv-x="646" 
d="M549 636q4 21 3 30q-1 7 -11 18.5t-23 11.5t-49 -16q-15 -5 -38 -38q-14 -22 -22 -33t-9 -12q-2 -2 -9.5 -8.5t-21.5 -17.5q-15 -14 -15 -24q0 -21 20 -21q17 0 68 27q100 52 107 83zM639 443q0 36 -48 36q-15 0 -34 -6.5t-30 -6.5q-19 0 -38.5 5t-27.5 5q-54 0 -54 -40
q0 -7 15 -32q15 -24 15 -42q0 -26 -33 -72q-33 -47 -44 -47q-20 0 -56 69q-32 62 -32 71q0 17 13 34q14 20 14 29q0 33 -36 33q-17 0 -43 -4.5t-50 -4.5t-63 6q-20 4 -32 5.5t-17 1.5q-28 0 -40 -21q-7 -11 -7 -23q0 -25 31 -41q44 -23 59 -47q8 -12 27.5 -44t48.5 -84
q68 -124 68 -144q0 -33 -16 -59q-19 -31 -47 -31q-6 0 -15 3.5l-21 8t-27 8t-33 3.5q-87 0 -87 -99q0 -97 126 -97q54 0 89 35q13 13 31.5 40.5t42.5 72.5l65.5 116.5l52.5 87.5l45.5 74l45.5 74q28 44 43 57q2 2 17 8.5l43 19.5q39 16 39 42z" />
    <glyph glyph-name="thorn" unicode="&#xfe;" horiz-adv-x="508" 
d="M503 168v98q0 72 -48 135q-56 72 -139 72q-21 0 -63 -11t-52 -11q-16 0 -26 142q-9 143 -12 143q-28 0 -156 -71l3.5 -25l10.5 -76l10.5 -76.5t3.5 -27.5q0 -8 6 -40.5t19 -89.5l-10 -92q12 -38 12 -60q0 -8 -2 -14q-8 -29 -11 -77t1 -117q-15 -36 -51 -46
q-30 -8 -30 -31q0 -30 42 -30q3 0 16.5 1.5t36.5 3.5l35 3t13 1q16 0 42 -9q24 -10 28 -10q20 0 36 12t16 31q0 17 -31 38q-30 21 -30 51q0 24 15 24q1 0 27 -12q25 -12 35 -12h76q65 0 125 73q52 64 52 110zM353 229q0 -90 -39 -127q-26 -26 -64 -26q-26 0 -45.5 18.5
t-19.5 42.5v131q0 39 21 71q22 36 56 36q91 0 91 -146z" />
    <glyph glyph-name="ydieresis" unicode="&#xff;" horiz-adv-x="646" 
d="M524 645q0 38 -17 64q-21 30 -61 30q-32 0 -61 -35q-21 -27 -21 -36q0 -53 27 -81q22 -24 51 -24q39 0 60.5 23t21.5 59zM342 633q0 53 -28 81q-23 24 -50 24q-39 0 -60.5 -23t-21.5 -59q0 -38 17 -64q21 -30 61 -30q32 0 61 35q21 27 21 36zM639 443q0 36 -48 36
q-15 0 -34 -6.5t-30 -6.5q-19 0 -38.5 5t-27.5 5q-54 0 -54 -40q0 -7 15 -32q15 -24 15 -42q0 -26 -33 -72q-33 -47 -44 -47q-20 0 -56 69q-32 62 -32 71q0 17 13 34q14 20 14 29q0 33 -36 33q-17 0 -43 -4.5t-50 -4.5t-63 6q-20 4 -32 5.5t-17 1.5q-28 0 -40 -21
q-7 -11 -7 -23q0 -25 31 -41q44 -23 59 -47q8 -12 27.5 -44t48.5 -84q68 -124 68 -144q0 -33 -16 -59q-19 -31 -47 -31q-6 0 -15 3.5l-21 8t-27 8t-33 3.5q-87 0 -87 -99q0 -97 126 -97q54 0 89 35q13 13 31.5 40.5t42.5 72.5l65.5 116.5l52.5 87.5l45.5 74l45.5 74
q28 44 43 57q2 2 17 8.5l43 19.5q39 16 39 42z" />
    <glyph glyph-name="minus" unicode="&#xe000;" horiz-adv-x="600" 
d="M36 257q-6 -25 12 -37q18 -5 37 -5q5 0 17.5 1t32.5 3q33 2 50 -1q22 -9 78 2q37 -8 58 -2q10 1 18 1.5t13 0.5q17 -6 32 -1q6 -3 12 -3q7 0 17 3t14 3q5 0 7 -1l9 4q-1 -1 -1 -2q4 -1 8 -1q11 -8 37 -8q7 3 19 3h4q3 0 7 -1h11q23 0 37 20q7 10 -1 26q-5 9 -3 15
q-20 15 -44 14q-31 0 -41 3q-15 -3 -63 0q-17 -3 -27 -2l-41 1.5t-16 0.5q-8 -3 -16 -3q-2 0 -27 3q-18 3 -31 -0.5t-20 -3.5q-6 0 -16.5 2t-17.5 2t-20.5 -2t-19.5 -2t-16 2q-6 -1 -17 -1.5t-28 0.5q-29 1 -44.5 -6t-19.5 -28z" />
    <glyph glyph-name="longs" unicode="&#xe001;" horiz-adv-x="335" 
d="M330 626q0 48 -25 78t-67 30q-78 0 -112 -39q-40 -43 -40 -151v-396q0 -69 -20 -91q-6 -8 -37 -15q-20 -5 -20 -36q0 -15 25 -27l95 18h139q25 0 25 34q0 19 -17 22q-26 5 -33 10q-17 15 -17 66q0 260 -32 380q0 7 -1.5 18l-3 22.5l-3 22.5t-1.5 18q0 18 12 18
q8 0 21 -25q13 -24 47 -24q65 0 65 67z" />
    <glyph glyph-name="DST" unicode="&#xe002;" horiz-adv-x="1426" 
d="M1415 -38v838h-1404v-838h1404zM1390 562q0 -29 -22 -50t-51 -21h-146q-35 0 -35 -45v-302q0 -30 19 -42v-56q-72 16 -72 86v322q0 96 115 96q16 0 48 -3q17 -1 29 -1.5t20 -0.5q40 0 40 21q0 19 -41 19q-8 0 -20 -0.5t-28 -1.5t-27.5 -1.5t-19.5 -0.5q-116 0 -116 88
v131h57v-131q0 -35 37 -35h148q27 0 46 -21t19 -51zM1003 136q0 -39 -23.5 -63.5t-62.5 -24.5h-282q-30 0 -50 20t-20 50q0 31 18 52t47 21h279v-53h-270q-20 0 -20 -18q0 -21 22 -21h250q61 0 61 45v76q0 45 -45 45h-250q-42 0 -67 25t-25 67v89q0 45 26.5 73.5t71.5 28.5
h246q76 0 89 -76h-50q-20 21 -43 21h-244q-41 0 -41 -43v-95q0 -37 41 -37h246q45 0 70.5 -23t25.5 -65v-94zM496 800l-1 -684q0 -30 -21.5 -52t-51.5 -22q-32 0 -52 22t-20 55q0 68 -0.5 110t-1.5 59q-2 9 -87 93l-95 93q-14 14 -27 14q-10 0 -17 -6q-8 -26 -8 -32v-310
q0 -43 35 -43h81q13 6 25 21h53q-14 -72 -77 -72h-82q-88 0 -88 96v330q0 31 26 51q23 17 56 17t52 -19l179 -177q31 -31 31 -75v-151q0 -21 19 -21q6 0 12 7.5t6 13.5l-2 682h56z" />
  </font>
</defs>
</svg>
