<svg id="svg" version="1.1" width="500" height="500" xmlns="http://www.w3.org/2000/svg" xmlns:xlink="http://www.w3.org/1999/xlink" style="display: block;"><g id="svgg"><path id="path0" d="M156.919 45.283 C 156.325 45.955,155.997 46.664,156.191 46.858 C 156.385 47.051,157.197 46.488,157.996 45.605 C 158.794 44.722,159.122 44.014,158.724 44.030 C 158.326 44.047,157.514 44.611,156.919 45.283 M257.800 44.864 C 258.570 45.313,259.242 46.472,259.293 47.440 C 259.367 48.851,259.460 48.915,259.759 47.762 C 260.169 46.182,258.725 43.986,257.302 44.024 C 256.806 44.038,257.030 44.416,257.800 44.864 M134.400 52.847 C 134.400 53.313,133.984 53.438,133.476 53.124 C 132.930 52.786,132.769 52.903,133.081 53.408 C 133.372 53.878,133.158 54.425,132.605 54.622 C 132.052 54.819,131.840 55.240,132.133 55.557 C 132.427 55.874,133.417 55.383,134.333 54.467 C 136.180 52.620,136.398 52.000,135.200 52.000 C 134.760 52.000,134.400 52.381,134.400 52.847 M281.153 53.225 C 282.007 53.871,282.991 54.850,283.340 55.400 C 283.797 56.118,283.979 56.134,283.988 55.457 C 284.004 54.232,281.755 51.993,280.543 52.025 C 280.024 52.039,280.299 52.579,281.153 53.225 M121.673 60.738 C 121.052 61.131,120.120 61.289,119.601 61.090 C 118.485 60.661,117.024 62.299,117.004 64.000 C 116.997 64.660,116.729 65.830,116.410 66.600 C 116.074 67.408,116.180 68.000,116.660 68.000 C 117.118 68.000,117.739 67.190,118.041 66.200 C 118.823 63.633,120.805 61.600,122.524 61.600 C 123.336 61.600,124.000 61.240,124.000 60.800 C 124.000 59.817,123.163 59.795,121.673 60.738 M292.400 60.800 C 292.672 61.240,293.434 61.600,294.094 61.600 C 294.754 61.600,295.072 61.240,294.800 60.800 C 294.528 60.360,293.766 60.000,293.106 60.000 C 292.446 60.000,292.128 60.360,292.400 60.800 M296.800 62.000 C 296.800 62.660,297.108 63.200,297.484 63.200 C 297.861 63.200,298.560 64.370,299.039 65.800 C 299.904 68.385,299.907 68.382,299.449 65.200 C 298.840 60.958,296.800 58.494,296.800 62.000 M228.800 91.142 C 219.568 91.584,214.400 92.772,214.400 94.450 C 214.400 96.170,204.446 97.611,202.760 96.135 C 198.799 92.668,191.011 92.865,162.000 97.167 C 155.842 98.080,139.996 102.937,138.591 104.342 C 138.339 104.594,137.524 104.800,136.779 104.800 C 135.238 104.800,125.765 109.464,124.100 111.043 C 123.495 111.617,121.392 112.842,119.427 113.765 C 117.462 114.689,114.577 116.650,113.015 118.122 C 111.454 119.595,109.804 120.800,109.348 120.800 C 108.051 120.800,88.800 140.593,88.800 141.927 C 88.800 142.582,87.563 144.062,86.051 145.215 C 84.401 146.474,83.082 148.317,82.750 149.830 C 82.445 151.214,81.934 152.899,81.613 153.574 C 79.907 157.156,78.001 160.447,76.872 161.764 C 75.624 163.219,74.142 167.657,72.787 174.000 C 72.411 175.760,71.508 179.900,70.781 183.200 C 70.053 186.500,69.145 190.640,68.764 192.400 C 67.469 198.372,67.837 209.223,69.400 211.136 C 71.857 214.142,76.190 214.211,77.467 211.263 C 78.786 208.218,83.561 203.200,85.139 203.200 C 85.780 203.200,86.498 202.889,86.733 202.508 C 86.969 202.127,88.411 201.613,89.939 201.365 C 91.467 201.117,94.079 199.988,95.744 198.857 C 97.409 197.726,99.138 196.800,99.587 196.800 C 100.984 196.800,104.608 187.819,105.075 183.200 C 105.605 177.961,104.755 171.555,102.354 162.695 C 100.447 155.658,101.288 149.618,104.701 145.850 C 105.423 145.053,107.160 142.934,108.561 141.143 C 110.863 138.199,121.426 132.800,124.885 132.800 C 125.315 132.800,126.401 132.117,127.297 131.281 C 128.194 130.446,130.249 129.398,131.864 128.953 C 141.339 126.343,144.069 125.725,148.400 125.213 C 151.040 124.901,153.560 124.384,154.000 124.063 C 156.196 122.463,163.019 121.442,176.236 120.736 C 184.246 120.308,194.040 119.633,198.000 119.236 C 207.553 118.278,221.381 118.285,228.800 119.252 C 232.100 119.683,238.854 120.376,243.810 120.794 C 248.765 121.212,253.519 121.928,254.373 122.386 C 255.227 122.843,258.193 123.412,260.963 123.651 C 275.063 124.865,288.188 127.888,295.556 131.618 C 297.710 132.708,300.456 133.600,301.659 133.600 C 302.862 133.600,306.491 134.554,309.723 135.720 C 320.687 139.674,327.321 136.511,320.911 130.386 C 319.652 129.182,318.124 127.073,317.516 125.699 C 316.907 124.325,315.957 123.200,315.405 123.200 C 314.852 123.200,314.400 122.864,314.400 122.454 C 314.400 122.044,313.763 121.506,312.984 121.259 C 312.206 121.011,310.932 119.626,310.153 118.180 C 309.322 116.638,307.509 115.007,305.768 114.237 C 304.136 113.515,301.661 111.864,300.268 110.569 C 297.756 108.233,295.355 106.624,289.200 103.154 C 283.152 99.743,281.997 99.210,280.647 99.205 C 279.903 99.202,279.101 98.887,278.865 98.505 C 278.629 98.123,277.056 97.590,275.371 97.320 C 273.685 97.051,271.247 96.303,269.953 95.659 C 262.852 92.125,246.268 90.305,228.800 91.142 M76.960 100.960 C 75.792 102.128,75.715 103.200,76.800 103.200 C 77.240 103.200,77.600 102.639,77.600 101.953 C 77.600 101.267,77.960 100.928,78.400 101.200 C 78.840 101.472,79.200 101.313,79.200 100.847 C 79.200 99.720,78.147 99.773,76.960 100.960 M337.800 100.864 C 338.570 101.313,339.242 102.472,339.293 103.440 C 339.367 104.851,339.460 104.915,339.759 103.762 C 340.169 102.182,338.725 99.986,337.302 100.024 C 336.806 100.038,337.030 100.416,337.800 100.864 M340.000 108.549 C 340.000 108.945,341.170 109.614,342.600 110.035 C 344.389 110.561,345.628 111.673,346.572 113.600 L 347.943 116.400 347.459 113.600 C 346.872 110.205,345.933 108.890,344.147 108.961 C 343.406 108.990,342.170 108.747,341.400 108.421 C 340.630 108.095,340.000 108.153,340.000 108.549 M70.029 110.368 C 69.084 111.412,68.775 112.592,69.104 113.902 C 69.412 115.129,69.222 116.019,68.599 116.271 C 67.832 116.580,67.827 116.688,68.579 116.737 C 69.118 116.772,70.125 115.704,70.818 114.365 C 71.510 113.026,72.970 111.524,74.061 111.027 C 75.504 110.369,75.766 109.945,75.023 109.473 C 73.321 108.393,71.525 108.715,70.029 110.368 M348.000 124.549 C 348.000 124.945,349.170 125.614,350.600 126.035 C 352.389 126.561,353.628 127.673,354.572 129.600 L 355.943 132.400 355.459 129.600 C 354.872 126.205,353.933 124.890,352.147 124.961 C 351.406 124.990,350.170 124.747,349.400 124.421 C 348.630 124.095,348.000 124.153,348.000 124.549 M62.029 126.368 C 61.084 127.412,60.775 128.592,61.104 129.902 C 61.412 131.129,61.222 132.019,60.599 132.271 C 59.832 132.580,59.827 132.688,60.579 132.737 C 61.118 132.772,62.125 131.704,62.818 130.365 C 63.510 129.026,64.970 127.524,66.061 127.027 C 67.504 126.369,67.766 125.945,67.023 125.473 C 65.321 124.393,63.525 124.715,62.029 126.368 M54.792 148.813 C 54.516 149.260,53.864 149.383,53.345 149.085 C 52.825 148.787,52.667 148.838,52.993 149.198 C 53.319 149.558,53.178 150.345,52.679 150.946 C 50.854 153.145,52.534 152.664,54.702 150.367 C 55.930 149.065,56.566 148.000,56.115 148.000 C 55.664 148.000,55.068 148.366,54.792 148.813 M361.346 149.418 C 362.306 150.178,363.242 151.880,363.426 153.200 L 363.760 155.600 363.880 153.057 C 364.000 150.516,362.323 147.984,360.543 148.018 C 360.024 148.028,360.386 148.658,361.346 149.418 M339.302 168.948 C 338.005 174.882,338.365 181.200,340.000 181.200 C 341.500 181.200,341.915 176.032,340.964 169.200 L 340.296 164.400 339.302 168.948 M363.135 232.767 C 362.920 234.031,362.085 234.932,360.800 235.287 C 359.035 235.775,359.000 235.850,360.502 235.920 C 362.593 236.018,364.246 234.173,363.801 232.238 C 363.546 231.129,363.393 231.251,363.135 232.767 M52.937 237.407 C 53.905 241.013,54.900 242.123,57.800 242.834 C 62.318 243.942,59.251 238.071,53.867 235.305 C 52.182 234.440,52.156 234.500,52.937 237.407 M355.293 253.676 C 355.182 257.106,353.199 259.175,349.937 259.263 C 348.652 259.298,348.069 259.514,348.643 259.744 C 353.006 261.492,357.049 257.256,355.767 252.280 C 355.557 251.466,355.344 252.094,355.293 253.676 M60.000 257.316 C 60.000 258.638,61.854 260.003,63.560 259.937 C 64.713 259.892,64.844 259.743,64.000 259.432 C 63.340 259.190,62.170 258.442,61.400 257.772 C 60.630 257.101,60.000 256.896,60.000 257.316 M346.588 269.800 C 346.135 271.587,345.108 272.816,343.302 273.730 C 339.546 275.631,339.328 276.089,342.458 275.506 C 345.971 274.853,346.892 273.892,347.543 270.200 C 348.193 266.518,347.493 266.225,346.588 269.800 M68.034 271.000 C 67.984 273.679,70.740 276.019,73.800 275.895 L 76.400 275.789 73.719 275.295 C 71.720 274.926,70.661 274.088,69.553 272.000 C 68.293 269.626,68.062 269.474,68.034 271.000 M339.200 281.808 C 339.200 282.509,338.570 283.247,337.800 283.449 C 336.488 283.791,336.490 283.820,337.825 283.907 C 339.271 284.001,340.612 281.945,339.699 281.032 C 339.424 280.758,339.200 281.107,339.200 281.808 M108.000 313.133 C 108.000 314.397,110.386 315.995,112.143 315.907 C 113.779 315.825,113.810 315.768,112.400 315.425 C 111.520 315.210,110.170 314.476,109.400 313.793 C 108.630 313.111,108.000 312.814,108.000 313.133 M116.367 317.269 C 116.719 318.111,117.067 319.346,117.141 320.014 C 117.365 322.037,118.413 323.200,120.011 323.200 C 121.378 323.200,121.334 323.007,119.564 321.236 C 118.484 320.156,117.600 318.738,117.600 318.084 C 117.600 317.430,117.179 316.634,116.664 316.316 C 116.003 315.907,115.916 316.187,116.367 317.269 M267.451 335.575 C 267.002 337.541,266.941 338.960,267.317 338.728 C 267.693 338.496,268.000 337.897,268.000 337.397 C 268.000 336.897,268.967 335.478,270.150 334.244 L 272.299 332.000 270.284 332.000 C 268.554 332.000,268.154 332.504,267.451 335.575 " stroke="none" fill="#000000" fill-rule="evenodd"></path><path id="path1" d="M137.638 53.559 C 136.999 53.964,136.207 54.128,135.878 53.925 C 135.549 53.722,134.890 54.285,134.412 55.178 C 133.378 57.109,134.025 57.289,135.760 55.554 C 136.446 54.869,137.440 54.474,137.970 54.678 C 138.500 54.881,138.933 54.542,138.933 53.924 C 138.933 53.306,138.903 52.806,138.867 52.812 C 138.830 52.819,138.277 53.155,137.638 53.559 M278.000 53.907 C 278.880 54.588,280.035 55.518,280.566 55.973 C 281.098 56.428,281.926 56.800,282.406 56.800 C 283.650 56.800,282.073 54.169,280.690 53.937 C 280.090 53.837,278.880 53.510,278.000 53.212 L 276.400 52.669 278.000 53.907 M121.800 63.191 C 120.370 64.063,119.200 65.006,119.200 65.286 C 119.200 65.567,119.830 65.339,120.600 64.780 C 121.370 64.222,120.740 64.952,119.200 66.403 C 116.603 68.851,116.545 69.005,118.400 68.532 C 119.500 68.251,121.210 68.017,122.200 68.011 C 123.482 68.003,124.000 67.525,124.000 66.347 C 124.000 65.438,124.373 63.998,124.828 63.147 C 125.879 61.183,125.074 61.195,121.800 63.191 M292.220 62.500 C 291.082 63.638,293.809 66.738,297.000 67.935 C 299.625 68.920,299.992 68.267,297.400 67.225 C 295.950 66.642,295.882 66.492,297.047 66.451 C 297.843 66.423,298.268 66.034,297.992 65.587 C 297.716 65.140,297.195 64.956,296.835 65.178 C 296.476 65.400,295.730 65.038,295.177 64.373 C 294.330 63.351,294.409 63.245,295.687 63.689 C 297.085 64.175,297.078 64.118,295.600 62.933 C 293.667 61.384,293.373 61.347,292.220 62.500 M215.664 82.744 C 211.709 84.811,203.824 85.657,202.873 84.118 C 202.084 82.841,190.493 81.359,185.390 81.882 C 154.485 85.047,152.653 85.323,147.785 87.550 C 145.320 88.677,142.980 89.600,142.587 89.600 C 142.193 89.600,140.100 90.498,137.936 91.597 C 135.771 92.695,133.668 93.595,133.263 93.597 C 132.858 93.598,131.958 94.087,131.263 94.681 C 130.568 95.276,128.380 96.626,126.400 97.681 C 124.420 98.737,122.620 99.798,122.400 100.040 C 122.180 100.282,120.076 101.650,117.725 103.079 C 115.374 104.508,112.674 106.418,111.725 107.324 C 110.776 108.229,107.660 110.535,104.800 112.448 C 99.108 116.255,88.309 126.881,85.946 131.000 C 85.126 132.430,84.125 133.600,83.721 133.600 C 82.730 133.600,79.202 137.764,79.201 138.935 C 79.199 140.587,76.443 144.790,75.072 145.233 C 73.246 145.823,71.688 148.395,69.908 153.755 C 68.555 157.827,68.129 158.346,65.764 158.790 C 62.231 159.455,61.550 161.486,61.068 172.800 C 60.576 184.354,60.666 184.079,57.642 183.212 C 56.168 182.789,55.200 182.807,55.200 183.256 C 55.200 183.665,54.851 184.000,54.425 184.000 C 53.999 184.000,53.872 183.370,54.143 182.600 C 54.554 181.431,54.451 181.372,53.518 182.243 C 52.606 183.093,52.406 187.828,52.435 207.935 C 52.474 235.096,52.524 235.369,57.531 235.603 C 58.709 235.658,60.052 235.938,60.516 236.224 C 62.809 237.642,63.564 232.192,64.424 208.000 C 64.956 193.062,66.833 173.570,67.811 172.841 C 68.505 172.323,69.491 170.289,72.482 163.200 C 73.689 160.340,75.457 156.920,76.412 155.600 C 78.169 153.172,83.200 143.073,83.200 141.975 C 83.200 141.386,85.640 138.473,93.813 129.302 C 100.382 121.932,107.772 115.386,111.985 113.208 C 113.287 112.534,114.697 111.339,115.119 110.552 C 115.540 109.764,117.981 108.085,120.543 106.821 C 123.104 105.557,126.820 103.397,128.800 102.021 C 130.931 100.541,136.808 98.115,143.200 96.079 C 149.140 94.187,154.900 92.344,156.000 91.985 C 161.905 90.056,192.974 89.297,206.069 90.762 C 210.057 91.208,212.272 91.111,213.538 90.433 C 221.299 86.279,265.007 88.429,272.984 93.357 C 274.625 94.370,276.494 95.200,277.137 95.200 C 277.780 95.200,278.528 95.560,278.800 96.000 C 279.072 96.440,279.943 96.800,280.735 96.800 C 282.100 96.800,291.949 101.437,292.800 102.481 C 293.294 103.086,310.180 113.619,312.694 114.890 C 314.650 115.879,324.678 126.304,328.004 130.805 C 329.787 133.218,332.116 135.763,333.181 136.461 C 334.246 137.159,335.735 139.347,336.490 141.324 C 337.245 143.300,338.453 145.701,339.176 146.659 C 339.898 147.616,340.897 149.840,341.397 151.600 C 344.938 164.085,344.879 163.914,348.204 171.200 C 352.763 181.192,352.489 232.064,347.916 224.663 C 347.572 224.107,347.076 221.300,346.815 218.426 C 345.450 203.420,341.900 198.096,335.200 201.007 C 332.525 202.169,332.193 202.123,327.778 199.970 C 325.236 198.731,322.086 197.482,320.778 197.195 C 318.576 196.712,318.400 196.409,318.400 193.124 C 318.400 185.551,316.967 183.200,312.351 183.200 L 308.291 183.200 305.406 177.677 C 302.256 171.646,302.405 171.244,307.811 171.211 C 308.807 171.205,310.247 170.862,311.011 170.448 C 311.775 170.035,313.300 169.510,314.400 169.282 C 316.435 168.859,323.204 156.682,323.201 153.447 C 323.201 152.703,323.560 151.872,324.000 151.600 C 324.782 151.117,325.163 147.200,324.428 147.200 C 324.223 147.200,322.376 147.771,320.322 148.468 L 316.588 149.736 312.491 145.689 C 308.360 141.610,305.413 140.228,292.800 136.455 C 290.380 135.731,287.680 134.816,286.800 134.422 C 284.009 133.171,274.904 132.000,267.934 131.995 C 263.931 131.992,260.382 131.563,259.183 130.937 C 252.160 127.272,245.133 125.697,233.600 125.202 C 227.220 124.929,218.400 124.525,214.000 124.304 C 209.600 124.084,205.280 123.884,204.400 123.860 C 203.520 123.836,197.220 124.383,190.400 125.077 C 168.015 127.353,158.891 128.161,152.399 128.441 C 145.598 128.734,134.739 131.793,127.481 135.461 C 125.346 136.539,121.842 137.912,119.694 138.511 C 116.809 139.315,115.584 140.123,115.011 141.600 C 114.584 142.700,112.816 146.499,111.082 150.042 C 107.696 156.959,107.695 157.051,110.898 163.600 C 113.497 168.914,114.906 170.491,119.411 173.131 C 130.684 179.738,129.407 196.800,117.639 196.800 C 114.549 196.800,106.884 199.688,97.600 204.349 C 94.740 205.785,90.480 207.450,88.134 208.048 C 81.314 209.788,80.153 214.029,79.628 239.101 C 79.310 254.298,78.312 256.904,73.783 254.366 C 71.768 253.237,71.558 252.637,71.052 246.567 C 70.405 238.793,69.540 237.600,64.549 237.600 L 60.984 237.600 60.499 241.800 C 59.286 252.288,61.066 258.674,65.299 259.025 C 68.098 259.256,67.905 258.793,68.951 267.800 C 69.014 268.350,69.388 268.800,69.781 268.800 C 70.173 268.800,70.247 269.200,69.945 269.689 C 69.642 270.179,69.891 270.893,70.498 271.277 C 71.844 272.130,73.578 272.234,72.342 271.388 C 70.378 270.043,70.422 268.025,72.426 267.522 C 76.323 266.544,76.819 267.378,76.488 274.346 C 76.141 281.647,76.915 283.406,80.462 283.388 C 83.600 283.372,84.765 284.473,84.429 287.133 C 84.021 290.351,84.842 291.144,89.099 291.644 C 92.764 292.075,92.872 292.030,92.013 290.424 C 91.522 289.506,90.838 288.929,90.493 289.142 C 90.149 289.355,89.867 289.021,89.867 288.400 C 89.867 287.779,90.142 287.440,90.478 287.648 C 90.814 287.856,91.300 287.685,91.558 287.268 C 91.815 286.852,91.654 286.281,91.200 286.000 C 90.746 285.719,90.561 285.186,90.791 284.815 C 91.303 283.986,89.604 284.193,88.076 285.146 C 87.350 285.599,87.135 285.553,87.467 285.015 C 87.750 284.557,87.266 283.995,86.391 283.766 C 84.024 283.147,84.158 277.186,86.597 274.590 C 88.532 272.530,90.301 263.499,90.366 255.347 C 90.385 253.008,90.823 250.308,91.341 249.347 C 91.858 248.386,93.125 243.100,94.156 237.600 C 98.603 213.875,99.140 212.409,104.400 209.621 C 109.220 207.065,114.887 205.802,124.064 205.235 C 127.839 205.002,131.979 204.486,133.264 204.089 C 134.549 203.691,137.760 202.761,140.400 202.022 C 143.040 201.283,145.954 200.315,146.875 199.871 C 148.073 199.293,149.701 199.406,152.593 200.264 C 156.265 201.355,156.809 201.344,158.518 200.150 C 162.974 197.036,163.200 196.621,163.200 191.562 C 163.200 186.364,164.621 184.043,168.528 182.861 C 169.478 182.573,170.692 181.812,171.226 181.169 C 171.759 180.526,172.872 180.000,173.698 180.000 C 174.651 180.000,175.200 179.433,175.200 178.447 C 175.200 177.593,175.560 176.672,176.000 176.400 C 176.440 176.128,176.800 175.055,176.800 174.015 C 176.800 171.243,172.960 170.286,160.541 169.961 C 154.743 169.810,148.560 169.277,146.800 168.777 C 145.040 168.277,142.610 167.677,141.400 167.443 C 140.190 167.210,139.200 166.744,139.200 166.408 C 139.200 166.072,137.488 165.060,135.395 164.160 C 133.302 163.260,130.151 161.146,128.393 159.462 L 125.195 156.400 125.998 151.804 C 126.581 148.462,127.400 146.653,129.000 145.172 C 130.210 144.052,131.200 142.847,131.200 142.494 C 131.200 141.884,134.025 140.338,138.400 138.553 C 146.120 135.403,164.010 132.816,178.135 132.806 C 183.654 132.802,188.962 132.315,192.018 131.533 C 196.271 130.443,197.879 130.406,203.482 131.266 C 210.234 132.302,210.844 132.310,222.800 131.516 C 234.233 130.757,245.127 132.516,255.127 136.735 C 261.313 139.345,262.960 139.530,277.850 139.290 C 281.728 139.228,285.369 139.452,285.941 139.788 C 286.952 140.383,290.962 143.546,294.831 146.800 C 295.878 147.680,297.427 150.272,298.274 152.559 L 299.815 156.718 296.311 158.159 C 294.383 158.952,292.805 159.870,292.803 160.200 C 292.801 160.530,292.068 160.800,291.174 160.800 C 290.280 160.800,288.365 161.294,286.919 161.899 C 284.129 163.064,273.466 161.817,270.137 159.935 C 268.048 158.754,259.888 162.619,258.108 165.633 C 257.372 166.879,256.000 168.763,255.058 169.819 C 253.827 171.202,253.278 173.020,253.101 176.303 L 252.855 180.865 258.369 186.260 C 261.605 189.427,264.126 192.636,264.471 194.028 C 265.553 198.393,273.152 201.778,280.231 201.048 C 283.935 200.665,284.750 200.861,286.864 202.640 C 290.335 205.560,296.178 206.578,311.687 206.962 L 325.373 207.300 328.182 209.950 C 330.510 212.146,331.086 213.365,331.551 217.081 C 331.859 219.546,332.356 221.500,332.655 221.423 C 332.955 221.346,334.843 221.546,336.851 221.868 L 340.502 222.453 341.556 230.752 C 342.560 238.656,342.406 241.013,340.585 245.600 C 339.685 247.868,339.259 260.408,339.858 267.000 C 340.229 271.071,340.166 273.600,339.696 273.600 C 339.277 273.600,339.115 273.782,339.337 274.004 C 339.559 274.226,340.833 274.026,342.168 273.561 C 345.568 272.376,347.550 267.919,347.898 260.675 C 347.979 258.985,348.318 258.633,349.555 258.956 C 351.842 259.554,355.492 255.671,354.891 253.279 C 354.637 252.266,354.693 251.174,355.015 250.852 C 355.775 250.092,355.859 248.504,355.948 233.121 L 356.022 220.241 359.533 220.321 C 361.465 220.364,362.864 220.695,362.642 221.055 C 362.420 221.415,361.735 221.516,361.119 221.280 C 360.359 220.988,360.020 221.419,360.063 222.625 C 360.098 223.601,360.308 223.950,360.530 223.400 C 361.268 221.570,362.307 222.368,362.092 224.600 C 361.976 225.810,362.221 227.250,362.638 227.800 C 363.177 228.511,362.975 228.800,361.938 228.800 C 360.777 228.800,360.682 229.002,361.473 229.793 C 363.552 231.872,363.919 227.995,363.876 204.417 C 363.852 191.208,363.651 181.120,363.430 182.000 C 362.771 184.622,361.685 185.440,358.860 185.440 C 355.457 185.440,355.221 184.247,355.209 166.953 C 355.204 159.353,354.903 154.489,354.455 154.766 C 354.046 155.019,353.471 154.839,353.179 154.366 C 352.886 153.893,351.709 153.617,350.563 153.753 C 348.284 154.023,347.434 152.388,347.280 147.439 C 347.058 140.311,345.659 136.997,342.304 135.655 C 340.425 134.903,338.555 133.397,337.757 131.992 C 337.010 130.680,335.320 129.090,334.000 128.460 C 332.618 127.800,330.596 125.593,329.232 123.257 C 327.930 121.026,326.430 119.200,325.899 119.200 C 325.369 119.200,323.855 117.837,322.536 116.172 C 321.217 114.507,319.117 112.617,317.869 111.973 C 316.621 111.329,315.420 110.614,315.200 110.383 C 313.715 108.824,303.515 102.612,300.600 101.490 C 299.390 101.024,298.400 100.401,298.400 100.104 C 298.400 99.807,297.230 98.976,295.800 98.259 C 292.662 96.683,281.034 91.290,278.800 90.374 C 275.673 89.092,263.488 85.600,262.140 85.600 C 261.386 85.600,258.167 84.667,254.985 83.527 C 245.788 80.232,221.403 79.746,215.664 82.744 M79.600 101.600 C 78.720 101.978,78.296 102.313,78.657 102.344 C 79.019 102.375,78.700 103.014,77.950 103.764 C 77.009 104.705,76.882 105.227,77.539 105.446 C 78.829 105.876,81.691 103.195,81.050 102.157 C 80.747 101.667,81.029 101.517,81.741 101.790 C 82.403 102.044,83.452 101.931,84.073 101.538 C 85.574 100.588,81.836 100.639,79.600 101.600 M76.556 108.046 C 76.203 109.396,76.330 109.522,77.263 108.748 C 78.536 107.692,78.772 106.400,77.693 106.400 C 77.305 106.400,76.793 107.141,76.556 108.046 M339.763 110.103 C 339.510 110.357,339.587 111.338,339.936 112.282 C 340.285 113.227,340.393 114.507,340.176 115.127 C 339.909 115.892,340.186 116.100,341.039 115.772 C 341.731 115.507,342.432 115.697,342.598 116.195 C 342.801 116.803,343.535 116.656,344.828 115.750 C 346.504 114.577,346.457 114.054,344.695 114.274 C 344.418 114.308,343.518 113.547,342.695 112.582 C 341.391 111.051,341.381 110.968,342.619 111.928 C 343.400 112.533,344.199 112.868,344.395 112.672 C 344.591 112.476,343.732 111.714,342.488 110.979 C 341.243 110.244,340.017 109.850,339.763 110.103 M72.004 114.318 C 67.174 119.356,67.099 119.644,71.171 117.522 C 72.914 116.613,74.668 116.071,75.068 116.319 C 75.805 116.774,77.064 111.198,76.379 110.513 C 76.175 110.309,74.206 112.021,72.004 114.318 M347.672 125.716 C 348.027 126.291,348.336 128.030,348.359 129.581 C 348.394 131.971,348.704 132.440,350.400 132.661 C 351.500 132.805,352.978 133.664,353.686 134.570 C 354.521 135.641,355.161 135.910,355.515 135.338 C 355.814 134.854,355.325 133.725,354.429 132.829 C 353.533 131.933,353.181 131.200,353.647 131.200 C 354.113 131.200,354.268 130.834,353.992 130.387 C 353.716 129.940,353.202 129.751,352.852 129.968 C 352.501 130.185,351.536 129.567,350.707 128.595 C 349.411 127.075,349.399 126.982,350.619 127.928 C 351.400 128.533,352.184 128.882,352.362 128.705 C 352.540 128.527,351.412 127.546,349.856 126.526 C 348.299 125.506,347.317 125.142,347.672 125.716 M64.312 129.962 C 61.051 133.270,59.452 135.714,61.853 133.722 C 62.432 133.241,64.052 132.760,65.453 132.654 C 67.091 132.529,68.024 132.021,68.067 131.230 C 68.103 130.553,68.223 129.190,68.333 128.200 C 68.604 125.756,68.347 125.869,64.312 129.962 M355.398 148.800 C 355.616 150.962,356.970 152.800,358.343 152.800 C 358.814 152.800,359.200 153.340,359.200 154.000 C 359.200 154.707,359.939 155.205,361.000 155.212 C 362.300 155.221,362.502 155.414,361.726 155.905 C 360.831 156.473,360.829 156.869,361.719 158.293 C 363.223 160.701,364.290 160.414,363.552 157.800 C 363.210 156.590,362.901 154.790,362.865 153.800 C 362.829 152.810,362.530 152.000,362.200 152.000 C 361.870 152.000,361.690 151.566,361.800 151.036 C 361.910 150.506,361.640 150.039,361.200 149.997 C 359.407 149.827,356.362 148.528,355.798 147.692 C 355.466 147.201,355.286 147.700,355.398 148.800 M56.800 149.600 C 55.700 149.952,55.126 150.276,55.524 150.320 C 55.922 150.364,55.562 151.172,54.724 152.116 C 53.208 153.824,53.210 153.828,55.000 152.888 C 55.990 152.369,56.800 151.554,56.800 151.079 C 56.800 150.603,57.520 150.402,58.400 150.632 C 59.440 150.904,60.000 150.656,60.000 149.925 C 60.000 148.688,59.733 148.661,56.800 149.600 M53.020 156.000 C 53.086 156.880,53.385 157.600,53.685 157.600 C 54.455 157.600,55.186 155.453,54.612 154.878 C 53.648 153.915,52.903 154.441,53.020 156.000 M52.285 160.401 C 52.134 163.011,53.200 163.011,53.417 160.400 C 53.508 159.300,53.316 158.400,52.991 158.401 C 52.666 158.401,52.348 159.301,52.285 160.401 M331.659 162.934 C 331.378 163.667,331.519 164.639,331.974 165.094 C 332.542 165.662,332.800 165.246,332.800 163.760 C 332.800 161.292,332.400 161.003,331.659 162.934 M363.418 176.000 C 363.418 177.980,363.574 178.790,363.765 177.800 C 363.955 176.810,363.955 175.190,363.765 174.200 C 363.574 173.210,363.418 174.020,363.418 176.000 M59.702 222.371 C 59.948 223.487,60.318 225.025,60.525 225.790 C 62.125 231.700,58.871 235.614,55.475 231.862 C 53.627 229.820,53.123 221.008,54.940 222.517 C 55.803 223.233,56.294 223.224,57.034 222.479 C 57.791 221.716,57.695 221.621,56.591 222.042 C 55.585 222.425,55.304 222.259,55.611 221.461 C 56.361 219.507,59.211 220.141,59.702 222.371 M361.222 232.731 C 360.924 233.669,360.299 234.185,359.819 233.888 C 359.303 233.569,359.183 233.726,359.524 234.276 C 359.838 234.784,360.575 235.200,361.162 235.200 C 362.527 235.200,363.485 232.765,362.506 231.786 C 362.043 231.323,361.554 231.683,361.222 232.731 M68.000 254.898 C 68.000 257.294,67.806 257.635,66.878 256.865 C 66.016 256.149,65.659 256.173,65.341 256.967 C 65.113 257.535,64.898 257.229,64.863 256.286 C 64.828 255.343,64.260 254.364,63.600 254.111 C 61.402 253.267,62.363 252.000,65.200 252.000 C 67.885 252.000,68.000 252.119,68.000 254.898 M72.452 273.516 C 71.917 274.382,74.242 275.392,75.285 274.747 C 75.693 274.495,75.819 273.954,75.566 273.545 C 74.980 272.596,73.031 272.579,72.452 273.516 M338.635 277.301 C 339.442 278.109,336.871 282.400,335.579 282.400 C 334.931 282.400,334.400 282.767,334.400 283.215 C 334.400 283.836,337.907 283.582,338.929 282.887 C 339.775 282.312,339.981 276.800,339.156 276.800 C 338.593 276.800,338.359 277.026,338.635 277.301 M118.578 318.757 C 118.820 320.416,124.000 323.967,124.000 322.474 C 124.000 321.993,123.460 321.600,122.800 321.600 C 122.140 321.600,121.600 321.180,121.600 320.667 C 121.600 320.153,121.349 319.985,121.042 320.292 C 120.734 320.599,120.003 320.029,119.417 319.025 C 118.501 317.457,118.382 317.420,118.578 318.757 " stroke="none" fill="#555500" fill-rule="evenodd"></path><path id="path2" d="M161.136 44.697 C 161.452 45.208,162.101 45.385,162.579 45.089 C 163.101 44.766,163.217 44.926,162.868 45.489 C 162.550 46.005,161.955 46.219,161.546 45.967 C 161.137 45.714,160.002 46.068,159.023 46.754 C 157.836 47.586,157.636 48.004,158.422 48.012 C 159.142 48.020,159.279 48.253,158.773 48.612 C 157.808 49.299,157.769 50.397,158.659 51.800 C 160.005 53.919,176.656 52.934,177.068 50.711 C 177.141 50.320,177.470 50.090,177.800 50.200 C 178.130 50.310,178.400 49.659,178.400 48.753 C 178.400 47.711,178.060 47.316,177.476 47.676 C 176.886 48.041,176.771 47.895,177.157 47.269 C 177.490 46.731,178.265 46.484,178.881 46.720 C 179.496 46.957,180.000 46.801,180.000 46.375 C 180.000 45.949,180.519 45.600,181.153 45.600 C 181.787 45.600,182.514 45.263,182.768 44.851 C 183.052 44.393,182.300 44.370,180.826 44.792 C 179.504 45.172,178.241 45.190,178.020 44.833 C 177.685 44.291,175.267 44.288,166.000 44.819 C 165.560 44.844,164.156 44.618,162.881 44.316 C 161.218 43.923,160.725 44.031,161.136 44.697 M240.383 45.581 C 241.170 46.451,242.074 47.002,242.391 46.805 C 242.709 46.609,242.810 47.281,242.615 48.298 C 241.987 51.585,244.025 52.574,251.751 52.730 L 258.800 52.872 258.823 50.116 C 258.842 47.910,258.566 47.414,257.440 47.631 C 256.667 47.780,255.790 47.508,255.493 47.027 C 255.169 46.503,255.323 46.381,255.876 46.724 C 256.384 47.038,256.800 46.913,256.800 46.447 C 256.800 45.981,255.810 45.575,254.600 45.544 C 252.749 45.496,252.646 45.391,253.951 44.880 C 254.817 44.541,252.874 44.358,249.551 44.465 C 246.278 44.571,243.600 44.717,243.600 44.790 C 243.600 44.863,242.970 45.043,242.200 45.190 C 241.430 45.338,240.800 45.130,240.800 44.729 C 240.800 44.328,240.384 44.000,239.876 44.000 C 239.348 44.000,239.566 44.678,240.383 45.581 M156.056 50.153 C 156.025 51.117,156.360 52.128,156.800 52.400 C 157.746 52.985,157.746 52.202,156.800 50.000 C 156.137 48.457,156.110 48.463,156.056 50.153 M140.274 53.159 C 140.586 53.973,140.334 54.171,139.428 53.823 C 138.522 53.476,138.324 53.631,138.765 54.344 C 139.270 55.161,139.021 55.166,137.497 54.371 C 136.453 53.828,135.863 53.665,136.185 54.010 C 136.507 54.355,136.040 55.272,135.146 56.047 C 133.991 57.048,133.795 57.626,134.468 58.042 C 135.112 58.440,134.804 58.975,133.508 59.710 C 131.799 60.679,132.214 60.761,137.488 60.500 C 140.798 60.336,143.629 59.800,143.952 59.277 C 144.269 58.765,145.219 58.572,146.064 58.848 C 146.962 59.142,147.244 59.071,146.742 58.675 C 144.311 56.763,145.637 53.340,148.196 54.921 C 148.714 55.242,148.811 55.065,148.443 54.469 C 148.110 53.931,147.316 53.691,146.678 53.936 C 146.039 54.181,145.721 54.051,145.971 53.646 C 146.728 52.423,144.941 51.868,143.217 52.791 C 142.126 53.375,141.600 53.387,141.600 52.828 C 141.600 52.373,141.201 52.000,140.714 52.000 C 140.227 52.000,140.029 52.522,140.274 53.159 M269.973 52.693 C 268.904 53.763,269.862 54.536,271.797 54.167 L 273.993 53.747 272.108 55.273 C 271.071 56.113,270.640 56.800,271.150 56.800 C 271.659 56.800,272.950 57.742,274.017 58.894 C 275.508 60.503,276.518 60.906,278.379 60.632 C 279.710 60.437,280.800 60.575,280.800 60.939 C 280.800 61.302,281.250 61.510,281.800 61.400 C 282.462 61.268,282.882 62.484,283.044 65.000 L 283.288 68.800 287.644 68.800 C 290.176 68.800,292.000 69.155,292.000 69.647 C 292.000 70.113,292.383 70.258,292.850 69.969 C 293.318 69.680,294.460 70.109,295.388 70.922 C 296.316 71.735,296.812 71.950,296.490 71.400 C 296.169 70.850,296.287 70.400,296.753 70.400 C 297.219 70.400,297.655 71.210,297.722 72.200 C 298.025 76.678,298.428 77.204,301.739 77.442 C 304.818 77.664,306.400 79.382,306.400 82.506 C 306.400 84.856,307.626 86.087,309.639 85.757 C 310.987 85.536,314.970 89.297,314.202 90.065 C 313.061 91.206,315.516 95.275,318.078 96.491 C 321.416 98.075,321.764 100.814,318.827 102.385 C 317.742 102.966,317.044 103.747,317.275 104.121 C 317.986 105.272,316.606 104.872,315.069 103.481 C 314.268 102.756,311.805 101.877,309.595 101.528 C 307.386 101.179,305.044 100.358,304.391 99.705 C 302.997 98.312,293.262 93.600,291.776 93.600 C 291.215 93.600,290.046 93.115,289.178 92.522 C 287.316 91.249,283.044 89.704,273.200 86.740 C 263.077 83.693,254.142 80.672,253.200 79.979 C 249.649 77.364,221.642 76.670,216.046 79.058 C 211.244 81.107,205.448 81.134,195.200 79.154 C 188.548 77.869,181.575 77.837,176.000 79.066 C 173.580 79.600,168.900 80.407,165.600 80.860 C 151.434 82.805,149.162 83.428,140.400 87.773 C 132.575 91.654,121.801 97.852,119.600 99.739 C 119.160 100.116,117.000 101.571,114.800 102.972 C 112.600 104.372,110.271 106.257,109.623 107.159 C 108.976 108.062,108.131 108.800,107.744 108.800 C 106.170 108.800,97.371 114.859,94.780 117.727 C 93.253 119.417,91.373 120.814,90.602 120.830 C 89.293 120.859,84.800 126.357,84.800 127.931 C 84.800 128.321,83.541 128.640,82.002 128.640 C 80.128 128.640,79.375 128.336,79.720 127.720 C 80.083 127.071,79.966 127.046,79.321 127.637 C 78.413 128.468,77.851 130.887,77.055 137.400 C 76.543 141.583,73.732 142.281,72.071 138.637 C 70.373 134.910,69.871 128.181,71.384 129.428 C 72.399 130.264,72.832 130.264,73.715 129.428 C 74.312 128.862,75.520 128.400,76.400 128.400 C 77.428 128.400,78.042 127.828,78.117 126.800 C 78.181 125.920,78.338 123.510,78.464 121.444 C 78.591 119.378,78.950 117.846,79.263 118.039 C 79.576 118.233,80.032 117.870,80.276 117.234 C 80.533 116.565,81.430 116.213,82.400 116.400 C 84.380 116.781,84.538 116.397,85.186 109.633 C 85.459 106.791,86.020 104.058,86.434 103.559 C 86.848 103.061,86.985 102.452,86.740 102.206 C 86.494 101.961,86.767 101.781,87.347 101.806 C 92.371 102.026,92.800 101.739,92.800 98.160 C 92.800 96.268,93.076 94.378,93.413 93.960 C 93.751 93.542,93.874 93.287,93.687 93.393 C 93.500 93.499,92.864 93.185,92.274 92.695 C 91.482 92.038,90.903 92.050,90.071 92.741 C 89.300 93.381,88.778 93.412,88.424 92.839 C 87.657 91.597,86.400 91.822,86.400 93.200 C 86.400 93.860,85.860 94.400,85.200 94.400 C 83.841 94.400,83.638 95.312,84.746 96.440 C 85.605 97.315,84.252 99.487,82.400 100.207 C 81.639 100.503,81.932 100.701,83.200 100.749 C 84.695 100.805,84.915 101.005,84.073 101.538 C 83.452 101.931,82.372 102.048,81.673 101.799 C 80.973 101.549,80.671 101.643,81.002 102.008 C 81.852 102.944,79.246 105.600,77.476 105.600 C 76.599 105.600,76.005 106.168,76.012 107.000 C 76.023 108.174,76.145 108.210,76.769 107.223 C 77.178 106.576,77.764 106.297,78.071 106.604 C 78.377 106.910,78.250 107.620,77.789 108.181 C 77.327 108.741,76.696 110.906,76.385 112.992 C 76.075 115.077,75.497 116.583,75.100 116.338 C 74.704 116.093,73.260 116.451,71.893 117.134 C 70.525 117.816,69.176 118.233,68.896 118.059 C 68.616 117.886,68.339 120.502,68.281 123.872 C 68.224 127.242,68.137 130.553,68.088 131.230 C 68.032 132.015,67.079 132.530,65.453 132.654 C 64.052 132.760,62.489 133.194,61.980 133.617 C 61.470 134.040,60.890 134.223,60.690 134.023 C 60.490 133.824,60.291 136.797,60.247 140.630 C 60.126 151.169,60.122 151.197,58.894 150.726 C 57.544 150.207,53.186 154.050,54.326 154.754 C 55.266 155.335,54.583 157.600,53.467 157.600 C 53.048 157.600,52.928 157.240,53.200 156.800 C 53.472 156.360,53.313 156.000,52.847 156.000 C 52.381 156.000,52.000 156.540,52.000 157.200 C 52.000 157.860,52.356 158.400,52.791 158.400 C 53.226 158.400,53.508 159.300,53.417 160.400 C 53.326 161.500,53.031 162.400,52.762 162.400 C 51.900 162.400,51.900 170.833,52.762 173.101 C 53.220 174.306,53.325 175.125,52.996 174.921 C 52.666 174.717,52.341 177.127,52.274 180.275 C 52.206 183.424,52.332 185.280,52.553 184.400 C 52.774 183.520,53.333 182.440,53.795 182.000 C 54.373 181.450,54.481 181.638,54.143 182.600 C 53.872 183.370,53.999 184.000,54.425 184.000 C 54.851 184.000,55.200 183.665,55.200 183.256 C 55.200 182.807,56.168 182.789,57.642 183.212 C 60.666 184.079,60.576 184.354,61.068 172.800 C 61.550 161.486,62.231 159.455,65.764 158.790 C 68.129 158.346,68.555 157.827,69.908 153.755 C 71.688 148.395,73.246 145.823,75.072 145.233 C 76.443 144.790,79.199 140.587,79.201 138.935 C 79.202 137.764,82.730 133.600,83.721 133.600 C 84.125 133.600,85.126 132.430,85.946 131.000 C 88.309 126.881,99.108 116.255,104.800 112.448 C 107.660 110.535,110.776 108.229,111.725 107.324 C 112.674 106.418,115.374 104.508,117.725 103.079 C 120.076 101.650,122.180 100.282,122.400 100.040 C 122.620 99.798,124.420 98.737,126.400 97.681 C 128.380 96.626,130.568 95.276,131.263 94.681 C 131.958 94.087,132.858 93.598,133.263 93.597 C 133.668 93.595,135.771 92.695,137.936 91.597 C 140.100 90.498,142.193 89.600,142.587 89.600 C 142.980 89.600,145.320 88.677,147.785 87.550 C 152.653 85.323,154.485 85.047,185.390 81.882 C 190.493 81.359,202.084 82.841,202.873 84.118 C 203.828 85.663,211.680 84.803,215.923 82.689 C 221.983 79.669,245.615 80.178,254.985 83.530 C 258.167 84.669,261.386 85.600,262.140 85.600 C 263.488 85.600,275.673 89.092,278.800 90.374 C 281.034 91.290,292.662 96.683,295.800 98.259 C 297.230 98.976,298.400 99.807,298.400 100.104 C 298.400 100.401,299.390 101.024,300.600 101.490 C 303.515 102.612,313.715 108.824,315.200 110.383 C 315.420 110.614,316.621 111.329,317.869 111.973 C 319.117 112.617,321.217 114.507,322.536 116.172 C 323.855 117.837,325.369 119.200,325.899 119.200 C 326.430 119.200,327.930 121.026,329.232 123.257 C 330.596 125.593,332.618 127.800,334.000 128.460 C 335.320 129.090,337.010 130.680,337.757 131.992 C 338.555 133.397,340.425 134.903,342.304 135.655 C 345.659 136.997,347.058 140.311,347.280 147.439 C 347.434 152.388,348.284 154.023,350.563 153.753 C 351.709 153.617,352.886 153.893,353.179 154.366 C 353.471 154.839,354.046 155.019,354.455 154.766 C 354.903 154.489,355.204 159.353,355.209 166.953 C 355.221 184.247,355.457 185.440,358.860 185.440 C 363.042 185.440,363.424 184.353,363.374 172.586 C 363.325 161.193,363.039 157.937,362.004 156.999 C 361.641 156.669,361.634 156.940,361.989 157.600 C 362.523 158.593,362.443 158.621,361.524 157.767 C 360.578 156.887,360.590 156.621,361.607 155.979 C 362.561 155.376,362.439 155.222,361.000 155.212 C 359.939 155.205,359.200 154.707,359.200 154.000 C 359.200 153.340,358.814 152.800,358.343 152.800 C 356.575 152.800,355.339 150.753,356.189 149.235 C 356.662 148.389,356.682 147.979,356.236 148.254 C 355.770 148.542,355.500 146.359,355.549 142.697 C 355.593 139.379,355.347 136.491,355.001 136.277 C 354.656 136.064,354.615 135.499,354.911 135.021 C 355.212 134.534,355.079 134.381,354.607 134.672 C 354.146 134.957,353.571 134.679,353.331 134.053 C 353.091 133.427,351.883 132.799,350.647 132.658 C 349.089 132.479,348.351 131.909,348.240 130.800 C 348.152 129.920,347.911 126.890,347.703 124.066 C 347.304 118.639,345.718 115.698,343.622 116.502 C 342.950 116.760,342.400 116.584,342.400 116.111 C 342.400 115.637,341.905 115.440,341.300 115.672 C 340.558 115.957,340.162 115.428,340.083 114.047 C 340.019 112.921,339.925 111.370,339.874 110.600 C 339.823 109.830,339.457 108.787,339.061 108.281 C 338.664 107.776,338.504 106.452,338.706 105.340 C 339.005 103.690,338.792 103.370,337.553 103.609 C 336.717 103.770,335.790 103.508,335.493 103.027 C 335.169 102.503,335.323 102.381,335.876 102.724 C 336.384 103.038,336.800 102.913,336.800 102.447 C 336.800 101.981,335.810 101.575,334.600 101.544 C 332.679 101.495,332.603 101.406,334.000 100.843 C 335.488 100.244,335.461 100.178,333.614 99.900 C 332.087 99.669,331.589 99.073,331.456 97.319 C 331.361 96.064,330.635 94.507,329.842 93.859 C 329.033 93.198,328.927 92.934,329.600 93.258 C 330.620 93.748,330.635 93.667,329.700 92.717 C 328.859 91.863,328.515 91.833,328.237 92.588 C 327.464 94.696,323.569 91.574,323.350 88.670 C 323.240 87.202,322.798 85.879,322.370 85.732 C 321.941 85.584,321.770 85.172,321.991 84.815 C 322.211 84.459,320.953 84.240,319.196 84.330 C 316.787 84.453,315.985 84.186,315.939 83.247 C 315.905 82.561,315.725 81.370,315.539 80.600 C 315.352 79.830,315.079 78.592,314.931 77.849 C 314.749 76.933,313.781 76.452,311.931 76.358 C 307.659 76.139,307.553 76.094,307.371 74.400 C 307.277 73.520,307.123 72.097,307.029 71.238 C 306.934 70.379,306.700 69.833,306.508 70.026 C 306.315 70.218,305.697 69.751,305.133 68.988 C 304.333 67.904,303.894 67.811,303.131 68.563 C 302.525 69.161,301.671 69.266,300.877 68.841 C 299.493 68.100,299.048 68.000,297.153 68.000 C 296.467 68.000,296.126 67.644,296.394 67.209 C 296.663 66.774,296.398 66.604,295.806 66.832 C 294.234 67.435,291.102 63.618,292.237 62.483 C 292.881 61.839,292.739 61.600,291.713 61.600 C 290.939 61.600,290.471 61.330,290.674 61.000 C 290.877 60.670,289.459 60.355,287.523 60.300 C 283.594 60.188,280.799 58.601,282.562 57.483 C 283.334 56.993,283.241 56.821,282.200 56.812 C 281.430 56.806,280.800 56.463,280.800 56.052 C 280.800 55.640,279.559 54.855,278.043 54.306 C 276.526 53.758,275.423 53.087,275.591 52.815 C 275.943 52.246,270.538 52.129,269.973 52.693 M124.888 61.585 C 124.744 66.000,123.771 68.003,121.709 68.125 C 117.337 68.385,115.559 68.638,114.200 69.196 C 113.364 69.540,112.800 69.415,112.800 68.886 C 112.800 68.399,112.419 68.000,111.953 68.000 C 111.487 68.000,111.328 68.360,111.600 68.800 C 111.872 69.240,111.544 69.600,110.872 69.600 C 110.058 69.600,109.822 70.047,110.164 70.939 C 110.553 71.953,110.353 72.153,109.339 71.764 C 108.602 71.481,108.000 71.569,108.000 71.958 C 108.000 72.348,108.412 72.804,108.915 72.972 C 109.596 73.199,109.589 73.726,108.887 75.038 C 107.968 76.755,108.056 76.800,112.372 76.800 C 114.807 76.800,116.825 76.530,116.855 76.200 C 117.411 70.150,118.382 68.820,122.298 68.744 C 127.251 68.648,128.988 66.627,126.921 63.368 C 126.427 62.589,126.747 62.457,128.224 62.827 C 129.706 63.199,130.276 62.960,130.568 61.844 C 130.892 60.604,130.475 60.369,127.940 60.369 C 125.796 60.369,124.916 60.720,124.888 61.585 M101.825 77.074 C 101.921 77.583,101.583 77.921,101.074 77.825 C 100.292 77.677,100.229 78.215,100.739 80.698 C 100.772 80.862,101.283 80.595,101.874 80.105 C 102.464 79.615,103.094 79.301,103.274 79.407 C 103.453 79.513,103.513 79.453,103.407 79.274 C 103.301 79.094,103.615 78.464,104.105 77.874 C 104.595 77.283,104.862 76.772,104.698 76.739 C 102.215 76.229,101.677 76.292,101.825 77.074 M93.148 85.134 C 90.889 87.643,92.735 93.031,95.116 90.876 C 96.262 89.839,96.791 89.739,97.244 90.471 C 97.616 91.072,97.514 91.241,96.979 90.911 C 96.501 90.615,95.910 90.699,95.664 91.096 C 95.063 92.069,97.958 92.768,99.260 91.963 C 100.099 91.445,100.077 91.051,99.149 89.907 C 98.517 89.129,98.412 88.740,98.916 89.042 C 99.420 89.344,100.036 89.060,100.285 88.410 C 100.607 87.573,100.250 87.284,99.057 87.415 C 98.127 87.517,97.220 87.064,97.027 86.400 C 96.741 85.415,96.817 85.398,97.450 86.302 C 98.313 87.537,100.251 86.753,99.786 85.358 C 99.397 84.190,94.157 84.014,93.148 85.134 M191.600 131.578 C 189.211 132.266,183.896 132.746,178.400 132.771 C 163.875 132.836,146.122 135.402,138.400 138.553 C 134.025 140.338,131.200 141.884,131.200 142.494 C 131.200 142.847,130.210 144.052,129.000 145.172 C 127.400 146.653,126.581 148.462,125.998 151.804 L 125.195 156.400 128.393 159.462 C 130.151 161.146,133.302 163.260,135.395 164.160 C 137.488 165.060,139.200 166.072,139.200 166.408 C 139.200 166.744,140.190 167.210,141.400 167.443 C 142.610 167.677,145.040 168.277,146.800 168.777 C 148.560 169.277,154.743 169.810,160.541 169.961 C 172.960 170.286,176.800 171.243,176.800 174.015 C 176.800 175.055,176.440 176.128,176.000 176.400 C 175.560 176.672,175.200 177.593,175.200 178.447 C 175.200 179.433,174.651 180.000,173.698 180.000 C 172.872 180.000,171.759 180.526,171.226 181.169 C 170.692 181.812,169.478 182.573,168.528 182.861 C 164.621 184.043,163.200 186.364,163.200 191.562 C 163.200 196.621,162.974 197.036,158.518 200.150 C 156.809 201.344,156.265 201.355,152.593 200.264 C 149.701 199.406,148.073 199.293,146.875 199.871 C 145.954 200.315,143.040 201.283,140.400 202.022 C 137.760 202.761,134.549 203.691,133.264 204.089 C 131.979 204.486,127.839 205.002,124.064 205.235 C 114.887 205.802,109.220 207.065,104.400 209.621 C 99.140 212.409,98.603 213.875,94.156 237.600 C 93.125 243.100,91.858 248.386,91.341 249.347 C 90.823 250.308,90.385 253.008,90.366 255.347 C 90.301 263.499,88.532 272.530,86.597 274.590 C 84.158 277.186,84.024 283.147,86.391 283.766 C 87.266 283.995,87.750 284.557,87.467 285.015 C 87.135 285.553,87.350 285.599,88.076 285.146 C 89.604 284.193,91.303 283.986,90.791 284.815 C 90.561 285.186,90.746 285.719,91.200 286.000 C 91.654 286.281,91.815 286.852,91.558 287.268 C 91.300 287.685,90.814 287.856,90.478 287.648 C 90.142 287.440,89.867 287.779,89.867 288.400 C 89.867 289.021,90.142 289.360,90.478 289.152 C 91.564 288.480,92.316 290.665,92.406 294.758 C 92.494 298.742,96.674 301.884,97.906 298.893 C 98.147 298.307,98.295 298.344,98.337 299.000 C 98.427 300.429,99.733 300.242,99.733 298.800 C 99.733 297.959,98.876 297.596,96.867 297.588 C 94.721 297.579,94.302 297.380,95.200 296.800 C 96.226 296.137,96.196 296.023,95.000 296.012 C 93.533 295.999,93.102 294.802,94.298 294.063 C 95.461 293.345,94.493 276.772,93.033 272.400 C 91.450 267.660,91.596 264.831,93.667 260.098 C 94.510 258.172,95.200 256.289,95.200 255.914 C 95.200 255.538,96.460 253.261,98.000 250.854 C 100.494 246.955,100.801 245.883,100.805 241.038 C 100.807 238.047,101.200 233.440,101.679 230.800 C 102.157 228.160,102.804 224.558,103.118 222.796 C 105.433 209.766,103.610 210.236,155.600 209.262 C 170.059 208.991,177.262 208.521,181.600 207.565 C 192.066 205.259,211.350 204.755,225.200 206.426 C 231.800 207.223,240.980 208.123,245.600 208.427 C 250.220 208.732,255.080 209.426,256.400 209.971 C 259.538 211.267,265.945 212.800,268.223 212.800 C 269.214 212.800,271.355 213.514,272.983 214.386 C 275.749 215.868,278.400 215.865,278.400 214.378 C 278.400 213.150,283.615 212.517,295.200 212.340 C 301.580 212.242,310.934 212.036,315.986 211.881 L 325.172 211.600 326.867 214.832 C 327.799 216.610,329.179 221.290,329.933 225.232 C 331.090 231.276,331.677 232.725,333.673 234.476 C 336.339 236.812,337.762 243.956,338.040 256.400 C 338.119 259.920,338.447 264.701,338.770 267.024 C 339.147 269.741,339.046 271.622,338.485 272.297 C 338.006 272.875,337.780 273.514,337.984 273.717 C 338.187 273.921,337.554 274.107,336.577 274.130 C 331.906 274.243,332.000 274.146,332.000 278.847 C 332.000 281.331,332.323 283.095,332.732 282.842 C 333.134 282.594,333.646 282.842,333.869 283.395 C 334.190 284.194,334.287 284.195,334.337 283.400 C 334.372 282.850,334.927 282.400,335.572 282.400 C 336.795 282.400,338.189 280.329,338.970 277.348 C 339.222 276.387,339.506 269.038,339.601 261.018 C 339.705 252.213,340.108 246.033,340.619 245.418 C 341.084 244.858,341.510 244.040,341.567 243.600 C 341.624 243.160,341.882 241.957,342.140 240.926 C 342.399 239.895,342.136 235.317,341.556 230.752 L 340.502 222.453 336.851 221.868 C 334.843 221.546,332.955 221.346,332.655 221.423 C 332.356 221.500,331.859 219.546,331.551 217.081 C 331.086 213.365,330.510 212.146,328.182 209.950 L 325.373 207.300 311.687 206.962 C 296.178 206.578,290.335 205.560,286.864 202.640 C 284.750 200.861,283.935 200.665,280.231 201.048 C 273.152 201.778,265.553 198.393,264.471 194.028 C 264.126 192.636,261.605 189.427,258.369 186.260 L 252.855 180.865 253.101 176.303 C 253.278 173.020,253.827 171.202,255.058 169.819 C 256.000 168.763,257.372 166.879,258.108 165.633 C 259.888 162.619,268.048 158.754,270.137 159.935 C 273.466 161.817,284.129 163.064,286.919 161.899 C 288.365 161.294,290.280 160.800,291.174 160.800 C 292.068 160.800,292.801 160.530,292.803 160.200 C 292.805 159.870,294.383 158.952,296.311 158.159 L 299.815 156.718 298.274 152.559 C 297.427 150.272,295.878 147.680,294.831 146.800 C 290.962 143.546,286.952 140.383,285.941 139.788 C 285.369 139.452,281.728 139.228,277.850 139.290 C 262.960 139.530,261.313 139.345,255.127 136.735 C 243.521 131.838,221.830 129.307,215.639 132.128 C 214.111 132.824,212.556 132.831,209.402 132.153 C 201.958 130.555,195.839 130.357,191.600 131.578 M204.800 134.894 C 211.541 136.848,214.017 137.053,217.343 135.929 C 221.800 134.423,243.777 134.762,246.888 136.385 C 248.160 137.048,249.650 137.592,250.200 137.595 C 250.750 137.598,251.200 137.935,251.200 138.344 C 251.200 138.754,252.010 139.204,253.000 139.344 C 254.292 139.528,254.872 140.225,255.054 141.813 C 255.194 143.031,255.799 144.972,256.398 146.127 C 257.525 148.299,255.431 155.986,253.526 156.671 C 253.111 156.821,252.320 157.394,251.768 157.946 C 248.189 161.525,243.961 163.200,238.507 163.200 C 235.163 163.200,232.079 163.672,230.691 164.395 C 225.673 167.013,220.466 166.042,216.071 161.670 C 212.349 157.968,212.047 157.822,210.847 159.148 C 208.697 161.524,196.647 163.655,192.552 162.384 C 190.545 161.762,181.817 161.089,170.800 160.709 C 140.775 159.673,136.800 158.739,136.800 152.722 C 136.800 150.565,136.754 148.530,136.698 148.200 C 136.642 147.870,139.196 146.275,142.373 144.656 C 145.550 143.037,148.746 141.217,149.475 140.611 C 152.944 137.727,155.581 137.299,171.921 136.965 C 185.488 136.688,188.795 136.385,191.521 135.172 C 195.633 133.342,199.189 133.268,204.800 134.894 M278.400 148.800 C 278.400 150.858,276.623 151.239,274.614 149.612 L 272.880 148.209 274.640 147.415 C 276.876 146.406,278.400 146.967,278.400 148.800 M55.611 221.461 C 55.304 222.259,55.585 222.425,56.591 222.042 C 57.695 221.621,57.791 221.716,57.034 222.479 C 56.294 223.224,55.803 223.233,54.940 222.517 C 53.123 221.008,53.627 229.820,55.475 231.862 C 58.871 235.614,62.125 231.700,60.525 225.790 C 60.318 225.025,59.948 223.487,59.702 222.371 C 59.211 220.141,56.361 219.507,55.611 221.461 M356.056 227.920 C 356.089 232.357,356.371 234.939,356.724 234.035 C 357.332 232.483,357.343 232.483,358.244 234.035 C 358.744 234.898,359.162 235.130,359.176 234.553 C 359.189 233.977,359.534 233.712,359.942 233.964 C 360.351 234.217,360.915 233.698,361.196 232.812 C 361.478 231.925,362.112 231.200,362.607 231.200 C 363.101 231.200,362.807 230.671,361.953 230.025 C 360.460 228.896,360.458 228.850,361.898 228.825 C 363.204 228.803,363.255 228.626,362.298 227.446 C 361.399 226.338,361.396 226.211,362.280 226.743 C 363.123 227.251,363.190 227.065,362.588 225.897 C 362.163 225.073,361.978 223.950,362.175 223.400 C 362.372 222.850,362.173 222.400,361.733 222.400 C 361.293 222.400,360.752 222.850,360.530 223.400 C 360.308 223.950,360.098 223.601,360.063 222.625 C 360.020 221.419,360.359 220.988,361.119 221.280 C 361.735 221.516,362.420 221.415,362.642 221.055 C 362.864 220.695,361.460 220.364,359.523 220.320 L 356.000 220.241 356.056 227.920 M62.400 252.825 C 62.400 253.279,62.940 253.857,63.600 254.111 C 64.260 254.364,64.828 255.343,64.863 256.286 C 64.898 257.229,65.113 257.535,65.341 256.967 C 65.659 256.173,66.016 256.149,66.878 256.865 C 67.806 257.635,68.000 257.294,68.000 254.898 C 68.000 252.119,67.885 252.000,65.200 252.000 C 63.660 252.000,62.400 252.371,62.400 252.825 M70.799 268.425 C 69.920 269.137,69.650 269.491,70.200 269.212 C 70.777 268.920,71.200 269.205,71.200 269.886 C 71.200 270.535,71.650 271.248,72.200 271.470 C 72.751 271.693,72.512 271.902,71.667 271.937 C 69.354 272.032,71.022 273.200,73.471 273.200 C 74.815 273.200,75.519 273.591,75.380 274.259 C 75.259 274.842,75.491 275.114,75.896 274.864 C 76.300 274.614,76.579 272.878,76.516 271.005 C 76.384 267.117,73.838 265.968,70.799 268.425 M100.000 305.472 C 100.000 306.256,104.037 308.230,104.564 307.703 C 104.760 307.507,104.173 307.109,103.260 306.819 C 102.347 306.529,101.600 305.956,101.600 305.546 C 101.600 305.136,101.240 304.800,100.800 304.800 C 100.360 304.800,100.000 305.102,100.000 305.472 M108.066 309.373 C 109.248 312.658,111.746 315.343,113.373 315.075 C 114.158 314.946,115.311 315.160,115.936 315.551 C 116.804 316.095,116.946 315.934,116.536 314.866 C 116.241 314.098,116.000 312.297,116.000 310.864 C 116.000 308.321,115.913 308.256,112.307 308.120 C 110.277 308.043,108.311 307.792,107.940 307.563 C 107.568 307.333,107.625 308.148,108.066 309.373 M118.400 316.362 C 118.400 317.602,120.352 320.677,120.917 320.328 C 121.293 320.096,121.600 320.287,121.600 320.753 C 121.600 323.080,123.695 321.271,123.862 318.800 C 124.044 316.093,123.956 316.000,121.225 316.000 C 119.671 316.000,118.400 316.163,118.400 316.362 " stroke="none" fill="#808000" fill-rule="evenodd"></path><path id="path3" d="M177.934 44.693 C 178.332 45.337,182.400 44.986,182.400 44.307 C 182.400 44.138,181.299 44.000,179.953 44.000 C 178.607 44.000,177.698 44.312,177.934 44.693 M181.800 45.126 C 180.810 45.595,180.000 46.243,180.000 46.565 C 180.000 46.886,179.496 46.957,178.881 46.720 C 178.265 46.484,177.490 46.731,177.157 47.269 C 176.771 47.895,176.886 48.041,177.476 47.676 C 178.060 47.316,178.400 47.711,178.400 48.753 C 178.400 49.659,177.950 50.310,177.400 50.200 C 176.850 50.090,176.488 50.444,176.595 50.986 C 176.926 52.657,173.447 52.958,159.400 52.471 C 148.092 52.078,145.867 52.186,145.867 53.124 C 145.867 53.742,146.310 54.077,146.852 53.869 C 147.395 53.661,148.110 53.931,148.443 54.469 C 148.811 55.065,148.714 55.242,148.196 54.921 C 145.637 53.340,144.311 56.763,146.742 58.675 C 147.244 59.071,146.962 59.142,146.064 58.848 C 145.180 58.559,144.258 58.782,143.893 59.373 C 143.452 60.086,141.051 60.400,136.029 60.400 C 132.053 60.400,129.160 60.520,129.600 60.667 C 131.556 61.319,130.371 63.366,128.333 62.855 C 126.760 62.460,126.423 62.583,126.921 63.368 C 128.988 66.627,127.251 68.648,122.298 68.744 C 118.381 68.820,117.361 70.227,116.855 76.257 C 116.825 76.618,114.703 76.828,112.140 76.723 C 109.577 76.618,107.001 76.829,106.416 77.190 C 105.707 77.628,105.543 77.539,105.924 76.924 C 106.265 76.371,105.975 76.000,105.200 76.000 C 104.488 76.000,104.113 76.335,104.366 76.745 C 104.619 77.154,104.454 77.719,104.000 78.000 C 103.546 78.281,103.415 78.901,103.711 79.379 C 104.019 79.877,103.877 80.019,103.379 79.711 C 102.901 79.415,102.281 79.546,102.000 80.000 C 101.719 80.454,101.154 80.619,100.745 80.366 C 100.335 80.113,100.000 80.488,100.000 81.200 C 100.000 82.014,100.371 82.277,101.000 81.910 C 101.550 81.588,101.417 82.017,100.704 82.862 C 99.992 83.708,99.561 84.817,99.747 85.327 C 100.261 86.737,98.328 87.558,97.450 86.302 C 96.817 85.398,96.741 85.415,97.027 86.400 C 97.220 87.064,98.127 87.517,99.057 87.415 C 100.250 87.284,100.607 87.573,100.285 88.410 C 100.036 89.060,99.420 89.344,98.916 89.042 C 98.412 88.740,98.517 89.129,99.149 89.907 C 100.077 91.051,100.099 91.445,99.260 91.963 C 97.958 92.768,95.063 92.069,95.664 91.096 C 95.910 90.699,96.501 90.615,96.979 90.911 C 97.514 91.241,97.616 91.072,97.244 90.471 C 96.789 89.735,96.280 89.823,95.171 90.826 C 94.362 91.558,93.271 91.891,92.747 91.567 C 92.138 91.191,91.939 91.380,92.196 92.089 C 92.418 92.700,93.095 93.084,93.700 92.943 C 94.581 92.737,94.601 92.888,93.800 93.703 C 93.250 94.262,92.800 96.268,92.800 98.160 C 92.800 101.739,92.371 102.026,87.347 101.806 C 86.767 101.781,86.494 101.961,86.740 102.206 C 86.985 102.452,86.848 103.061,86.434 103.559 C 86.020 104.058,85.459 106.791,85.186 109.633 C 84.538 116.397,84.380 116.781,82.400 116.400 C 81.430 116.213,80.533 116.565,80.276 117.234 C 80.032 117.870,79.576 118.233,79.263 118.039 C 78.950 117.846,78.591 119.378,78.464 121.444 C 78.338 123.510,78.181 125.920,78.117 126.800 C 78.042 127.828,77.428 128.400,76.400 128.400 C 75.520 128.400,74.312 128.862,73.715 129.428 C 72.832 130.264,72.399 130.264,71.384 129.428 C 69.871 128.181,70.373 134.910,72.071 138.637 C 73.732 142.281,76.543 141.583,77.055 137.400 C 77.851 130.887,78.413 128.468,79.321 127.637 C 79.966 127.046,80.083 127.071,79.720 127.720 C 79.375 128.336,80.128 128.640,82.002 128.640 C 83.541 128.640,84.800 128.321,84.800 127.931 C 84.800 126.357,89.293 120.859,90.602 120.830 C 91.373 120.814,93.253 119.417,94.780 117.727 C 97.371 114.859,106.170 108.800,107.744 108.800 C 108.131 108.800,108.976 108.062,109.623 107.159 C 110.271 106.257,112.600 104.372,114.800 102.972 C 117.000 101.571,119.160 100.116,119.600 99.739 C 121.801 97.852,132.575 91.654,140.400 87.773 C 149.162 83.428,151.434 82.805,165.600 80.860 C 168.900 80.407,173.580 79.600,176.000 79.066 C 181.575 77.837,188.548 77.869,195.200 79.154 C 205.448 81.134,211.244 81.107,216.046 79.058 C 221.642 76.670,249.649 77.364,253.200 79.979 C 254.142 80.672,263.077 83.693,273.200 86.740 C 283.044 89.704,287.316 91.249,289.178 92.522 C 290.046 93.115,291.215 93.600,291.776 93.600 C 293.262 93.600,302.997 98.312,304.391 99.705 C 305.044 100.358,307.386 101.179,309.595 101.528 C 311.805 101.877,314.268 102.756,315.069 103.481 C 316.606 104.872,317.986 105.272,317.275 104.121 C 317.044 103.747,317.742 102.966,318.827 102.385 C 321.764 100.814,321.416 98.075,318.078 96.491 C 315.516 95.275,313.061 91.206,314.202 90.065 C 314.970 89.297,310.987 85.536,309.639 85.757 C 307.626 86.087,306.400 84.856,306.400 82.506 C 306.400 79.382,304.818 77.664,301.739 77.442 C 298.428 77.204,298.025 76.678,297.722 72.200 C 297.655 71.210,297.219 70.400,296.753 70.400 C 296.287 70.400,296.169 70.850,296.490 71.400 C 296.812 71.950,296.316 71.735,295.388 70.922 C 294.460 70.109,293.318 69.680,292.850 69.969 C 292.383 70.258,292.000 70.113,292.000 69.647 C 292.000 69.155,290.176 68.800,287.644 68.800 L 283.288 68.800 283.044 65.000 C 282.882 62.484,282.462 61.268,281.800 61.400 C 281.250 61.510,280.800 61.302,280.800 60.939 C 280.800 60.575,279.710 60.437,278.379 60.632 C 276.518 60.906,275.508 60.503,274.017 58.894 C 272.950 57.742,271.659 56.800,271.150 56.800 C 270.640 56.800,271.071 56.113,272.108 55.273 L 273.993 53.747 271.797 54.167 C 270.409 54.432,269.600 54.240,269.600 53.646 C 269.600 53.129,270.016 52.962,270.524 53.276 C 271.080 53.620,271.231 53.497,270.902 52.966 C 270.527 52.358,266.397 52.195,257.635 52.441 C 243.713 52.832,241.847 52.317,242.615 48.298 C 242.810 47.281,242.709 46.609,242.391 46.805 C 242.074 47.002,241.158 46.438,240.358 45.553 C 238.677 43.696,185.630 43.309,181.800 45.126 M240.800 44.729 C 240.800 45.543,242.846 45.421,243.710 44.556 C 244.016 44.250,243.487 44.000,242.533 44.000 C 241.580 44.000,240.800 44.328,240.800 44.729 M220.400 54.371 C 222.160 54.773,228.605 55.679,234.723 56.384 C 242.628 57.295,246.446 58.090,247.923 59.133 C 249.984 60.590,252.448 61.300,264.000 63.765 C 269.481 64.935,270.210 65.328,272.423 68.309 C 273.894 70.288,276.096 72.053,278.023 72.794 C 282.572 74.545,284.800 76.179,284.800 77.766 C 284.800 78.525,286.072 80.419,287.627 81.973 L 290.453 84.800 287.827 84.944 C 282.814 85.218,279.686 84.685,277.602 83.202 C 275.313 81.571,271.188 79.928,265.600 78.420 C 263.620 77.886,259.660 76.588,256.800 75.535 C 247.968 72.284,217.350 70.021,209.853 72.066 C 208.012 72.568,205.132 72.787,203.453 72.553 C 191.346 70.866,188.353 70.666,183.850 71.237 C 178.705 71.890,170.960 73.535,165.200 75.199 C 163.440 75.707,159.120 76.601,155.600 77.185 C 146.933 78.622,139.997 80.997,137.462 83.395 C 136.122 84.663,130.685 87.200,129.306 87.200 C 128.734 87.200,127.037 88.412,125.533 89.893 C 124.030 91.373,121.450 93.214,119.800 93.984 C 118.150 94.753,116.800 95.701,116.800 96.091 C 116.800 96.481,115.914 96.800,114.832 96.800 C 113.749 96.800,112.399 97.352,111.832 98.028 C 109.286 101.058,108.603 101.599,107.343 101.588 C 102.582 101.544,104.850 92.932,110.521 89.520 C 112.276 88.464,114.201 87.150,114.799 86.600 C 115.397 86.050,116.230 85.600,116.651 85.600 C 117.072 85.600,117.995 84.717,118.702 83.637 C 119.489 82.437,121.093 81.467,122.835 81.141 C 124.843 80.764,126.523 79.601,128.536 77.192 C 130.662 74.649,132.793 73.228,136.891 71.620 C 139.917 70.433,143.029 68.653,143.806 67.665 C 144.583 66.677,147.195 65.285,149.609 64.571 C 155.608 62.798,164.212 60.800,165.851 60.800 C 166.593 60.800,167.200 60.484,167.200 60.097 C 167.200 58.627,171.946 57.549,181.600 56.827 C 187.100 56.415,194.120 55.569,197.200 54.947 C 203.750 53.624,215.822 53.324,220.400 54.371 M191.521 135.172 C 188.795 136.385,185.488 136.688,171.921 136.965 C 155.581 137.299,152.944 137.727,149.475 140.611 C 148.746 141.217,145.550 143.037,142.373 144.656 C 139.196 146.275,136.642 147.870,136.698 148.200 C 136.754 148.530,136.800 150.565,136.800 152.722 C 136.800 158.739,140.775 159.673,170.800 160.709 C 181.817 161.089,190.545 161.762,192.552 162.384 C 196.647 163.655,208.697 161.524,210.847 159.148 C 212.047 157.822,212.349 157.968,216.071 161.670 C 220.466 166.042,225.673 167.013,230.691 164.395 C 232.079 163.672,235.163 163.200,238.507 163.200 C 243.961 163.200,248.189 161.525,251.768 157.946 C 252.320 157.394,253.111 156.821,253.526 156.671 C 255.431 155.986,257.525 148.299,256.398 146.127 C 255.799 144.972,255.194 143.031,255.054 141.813 C 254.872 140.225,254.292 139.528,253.000 139.344 C 252.010 139.204,251.200 138.754,251.200 138.344 C 251.200 137.935,250.750 137.598,250.200 137.595 C 249.650 137.592,248.160 137.048,246.888 136.385 C 243.777 134.762,221.800 134.423,217.343 135.929 C 214.017 137.053,211.541 136.848,204.800 134.894 C 199.189 133.268,195.633 133.342,191.521 135.172 M274.640 147.415 L 272.880 148.209 274.614 149.612 C 276.623 151.239,278.400 150.858,278.400 148.800 C 278.400 146.967,276.876 146.406,274.640 147.415 M198.400 205.650 C 192.460 205.946,184.900 206.796,181.600 207.538 C 177.186 208.531,170.314 208.987,155.600 209.262 C 103.610 210.236,105.433 209.766,103.118 222.796 C 102.804 224.558,102.157 228.160,101.679 230.800 C 101.200 233.440,100.807 238.047,100.805 241.038 C 100.801 245.883,100.494 246.955,98.000 250.854 C 96.460 253.261,95.200 255.538,95.200 255.914 C 95.200 256.289,94.510 258.172,93.667 260.098 C 91.596 264.831,91.450 267.660,93.033 272.400 C 95.335 279.293,95.468 295.482,93.207 293.606 C 92.561 293.069,92.267 293.186,92.267 293.978 C 92.267 294.611,92.567 294.944,92.933 294.718 C 93.300 294.491,93.600 294.687,93.600 295.153 C 93.600 295.619,94.230 296.006,95.000 296.012 C 96.196 296.023,96.226 296.137,95.200 296.800 C 94.302 297.380,94.721 297.579,96.867 297.588 C 99.840 297.600,100.039 297.899,100.012 302.306 C 100.002 303.940,102.433 307.032,103.922 307.279 C 105.392 307.524,109.636 307.912,112.600 308.074 C 115.866 308.252,116.000 308.362,116.000 310.864 C 116.000 314.609,116.733 316.003,118.686 315.976 C 120.235 315.954,120.265 315.873,119.000 315.136 C 118.038 314.576,117.600 313.325,117.600 311.140 C 117.600 308.394,117.300 307.854,115.400 307.181 C 111.596 305.832,110.807 305.104,110.568 302.719 C 110.291 299.960,108.771 295.793,107.797 295.123 C 103.716 292.316,104.696 267.909,109.243 259.116 C 109.934 257.780,111.017 252.482,111.649 247.343 C 114.834 221.440,116.422 219.606,136.601 218.548 C 147.595 217.971,150.121 218.160,156.400 220.025 C 167.575 223.344,194.317 222.832,198.190 219.224 C 201.905 215.763,212.362 215.088,218.620 217.905 C 223.524 220.114,226.850 220.707,239.200 221.578 C 253.771 222.605,261.288 223.468,269.848 225.095 C 275.968 226.259,279.449 225.922,282.046 223.914 C 292.082 216.155,312.654 224.769,314.796 237.626 C 315.123 239.592,316.039 243.000,316.831 245.200 C 317.623 247.400,318.506 250.355,318.792 251.766 C 319.536 255.437,322.243 260.847,324.584 263.346 C 328.547 267.574,328.567 277.281,324.620 281.009 C 320.921 284.503,321.612 291.579,325.659 291.643 C 330.451 291.718,331.627 289.865,331.888 281.828 C 332.151 273.740,331.926 274.222,335.501 274.097 C 337.020 274.044,338.117 273.853,337.938 273.674 C 337.760 273.494,338.006 272.875,338.485 272.297 C 339.046 271.622,339.147 269.741,338.770 267.024 C 338.447 264.701,338.119 259.920,338.040 256.400 C 337.762 243.956,336.339 236.812,333.673 234.476 C 331.677 232.725,331.090 231.276,329.933 225.232 C 329.179 221.290,327.799 216.610,326.867 214.832 L 325.172 211.600 315.986 211.881 C 310.934 212.036,301.580 212.242,295.200 212.340 C 283.615 212.517,278.400 213.150,278.400 214.378 C 278.400 215.865,275.749 215.868,272.983 214.386 C 271.355 213.514,269.214 212.800,268.223 212.800 C 265.945 212.800,259.538 211.267,256.400 209.971 C 255.080 209.426,250.220 208.732,245.600 208.427 C 240.980 208.123,231.630 207.183,224.823 206.337 C 218.015 205.492,211.715 204.870,210.823 204.956 C 209.930 205.041,204.340 205.354,198.400 205.650 M122.200 315.725 C 123.631 316.032,124.000 316.660,124.000 318.790 C 124.000 322.364,124.703 324.000,126.238 324.000 C 127.371 324.000,127.366 323.894,126.194 323.000 C 125.461 322.442,124.775 320.586,124.641 318.800 C 124.432 316.027,124.133 315.583,122.400 315.469 C 120.638 315.353,120.614 315.384,122.200 315.725 M297.200 320.800 C 296.928 321.240,295.827 321.600,294.753 321.600 C 293.679 321.600,292.800 321.960,292.800 322.400 C 292.800 322.840,293.143 323.200,293.562 323.200 C 294.897 323.200,298.400 321.369,298.400 320.672 C 298.400 319.761,297.803 319.825,297.200 320.800 M132.000 325.553 C 132.000 325.967,132.366 326.532,132.813 326.808 C 133.260 327.084,133.472 327.560,133.284 327.864 C 132.830 328.599,135.056 331.610,135.630 331.037 C 135.875 330.791,135.522 330.037,134.845 329.360 C 134.168 328.683,133.896 328.010,134.240 327.864 C 134.585 327.719,134.222 326.970,133.433 326.200 C 132.645 325.430,132.000 325.139,132.000 325.553 M265.968 335.000 C 266.093 335.770,265.791 336.940,265.297 337.600 C 264.517 338.643,264.583 338.656,265.800 337.702 C 267.258 336.559,267.742 333.600,266.471 333.600 C 266.070 333.600,265.843 334.230,265.968 335.000 " stroke="none" fill="#80b333" fill-rule="evenodd"></path><path id="path4" d="M197.200 54.947 C 194.120 55.569,187.100 56.415,181.600 56.827 C 171.946 57.549,167.200 58.627,167.200 60.097 C 167.200 60.484,166.593 60.800,165.851 60.800 C 164.212 60.800,155.608 62.798,149.609 64.571 C 147.195 65.285,144.583 66.677,143.806 67.665 C 143.029 68.653,139.917 70.433,136.891 71.620 C 132.793 73.228,130.662 74.649,128.536 77.192 C 126.523 79.601,124.843 80.764,122.835 81.141 C 121.093 81.467,119.489 82.437,118.702 83.637 C 117.995 84.717,117.072 85.600,116.651 85.600 C 116.230 85.600,115.397 86.050,114.799 86.600 C 114.201 87.150,112.276 88.464,110.521 89.520 C 104.850 92.932,102.582 101.544,107.343 101.588 C 108.603 101.599,109.286 101.058,111.832 98.028 C 112.399 97.352,113.749 96.800,114.832 96.800 C 115.914 96.800,116.800 96.481,116.800 96.091 C 116.800 95.701,118.150 94.753,119.800 93.984 C 121.450 93.214,124.030 91.373,125.533 89.893 C 127.037 88.412,128.734 87.200,129.306 87.200 C 130.685 87.200,136.122 84.663,137.462 83.395 C 139.997 80.997,146.933 78.622,155.600 77.185 C 159.120 76.601,163.440 75.707,165.200 75.199 C 170.960 73.535,178.705 71.890,183.850 71.237 C 188.353 70.666,191.346 70.866,203.453 72.553 C 205.132 72.787,208.012 72.568,209.853 72.066 C 217.350 70.021,247.968 72.284,256.800 75.535 C 259.660 76.588,263.620 77.886,265.600 78.420 C 271.188 79.928,275.313 81.571,277.602 83.202 C 279.686 84.685,282.814 85.218,287.827 84.944 L 290.453 84.800 287.627 81.973 C 286.072 80.419,284.800 78.525,284.800 77.766 C 284.800 76.179,282.572 74.545,278.023 72.794 C 276.096 72.053,273.894 70.288,272.423 68.309 C 270.210 65.328,269.481 64.935,264.000 63.765 C 252.448 61.300,249.984 60.590,247.923 59.133 C 246.446 58.090,242.628 57.295,234.723 56.384 C 228.605 55.679,222.160 54.773,220.400 54.371 C 215.822 53.324,203.750 53.624,197.200 54.947 M215.598 59.936 C 217.969 60.861,213.189 61.437,207.381 60.925 C 203.784 60.608,203.230 60.397,204.800 59.941 C 207.474 59.164,213.613 59.161,215.598 59.936 M254.000 68.000 C 255.207 68.519,254.715 68.688,252.000 68.688 C 249.285 68.688,248.793 68.519,250.000 68.000 C 250.880 67.622,251.780 67.312,252.000 67.312 C 252.220 67.312,253.120 67.622,254.000 68.000 M167.014 68.572 C 165.812 68.754,163.652 68.758,162.214 68.580 C 160.776 68.402,161.760 68.252,164.400 68.248 C 167.040 68.243,168.216 68.389,167.014 68.572 M202.036 216.932 C 200.737 217.433,199.002 218.468,198.181 219.232 C 194.317 222.832,167.560 223.340,156.400 220.025 C 150.121 218.160,147.595 217.971,136.601 218.548 C 116.422 219.606,114.834 221.440,111.649 247.343 C 111.017 252.482,109.934 257.780,109.243 259.116 C 104.696 267.909,103.716 292.316,107.797 295.123 C 108.771 295.793,110.291 299.960,110.568 302.719 C 110.807 305.104,111.596 305.832,115.400 307.181 C 117.299 307.854,117.600 308.394,117.600 311.133 C 117.600 314.679,118.313 315.404,121.918 315.520 C 124.224 315.594,124.417 315.826,124.641 318.800 C 124.913 322.416,126.462 324.000,129.725 324.000 C 132.059 324.000,133.554 325.796,133.175 328.145 C 133.044 328.957,133.361 329.335,133.976 329.099 C 134.536 328.884,135.197 329.240,135.447 329.889 C 135.720 330.600,136.716 330.981,137.950 330.845 C 139.077 330.721,140.000 330.931,140.000 331.310 C 140.000 331.690,140.506 332.000,141.124 332.000 C 141.974 332.000,142.153 331.171,141.858 328.600 C 141.304 323.767,140.989 323.079,139.405 323.241 C 133.615 323.831,131.231 323.222,131.949 321.333 C 132.340 320.305,132.355 318.974,131.982 318.371 C 131.610 317.769,131.483 316.989,131.700 316.638 C 131.917 316.287,131.336 316.000,130.409 316.000 C 128.138 316.000,124.804 312.258,124.782 309.683 C 124.768 308.141,124.093 307.270,122.182 306.328 C 120.330 305.416,119.150 303.946,118.007 301.128 C 117.131 298.968,116.051 296.942,115.607 296.628 C 114.757 296.025,114.812 280.428,115.683 274.910 C 116.050 272.587,117.440 270.438,121.282 266.251 C 125.891 261.229,126.300 260.511,125.445 258.941 C 123.189 254.801,124.236 247.203,127.846 241.514 C 129.691 238.606,131.200 235.881,131.200 235.458 C 131.200 235.035,132.010 233.944,133.000 233.035 C 133.990 232.125,135.402 230.581,136.138 229.604 C 137.927 227.228,146.308 226.300,156.693 227.328 C 173.819 229.022,196.064 228.444,199.663 226.210 C 202.689 224.333,211.435 223.979,215.875 225.556 C 219.402 226.808,223.895 227.338,236.134 227.947 C 253.452 228.808,253.237 228.750,265.200 235.755 C 273.081 240.370,276.086 241.208,280.413 239.996 C 289.475 237.459,296.800 242.857,296.800 252.072 C 296.800 253.741,297.114 255.299,297.497 255.536 C 297.880 255.773,298.395 256.975,298.641 258.207 C 299.141 260.703,302.635 264.702,306.117 266.762 C 313.759 271.284,314.737 290.086,307.688 296.972 C 306.209 298.417,304.747 300.763,304.439 302.185 C 304.072 303.880,303.142 305.122,301.740 305.791 C 300.038 306.603,299.547 307.463,299.340 309.996 C 298.998 314.198,298.028 315.200,294.302 315.200 C 292.596 315.200,291.165 315.470,291.122 315.800 C 290.450 320.959,290.659 323.850,291.675 323.461 C 292.294 323.223,292.800 322.707,292.800 322.314 C 292.800 321.921,293.679 321.600,294.753 321.600 C 295.827 321.600,296.932 321.234,297.208 320.787 C 297.484 320.340,298.046 320.181,298.455 320.434 C 298.865 320.687,299.200 320.534,299.200 320.094 C 299.200 319.654,298.840 319.072,298.400 318.800 C 297.077 317.983,297.491 316.945,299.400 316.293 C 301.818 315.468,302.083 315.415,304.447 315.300 C 305.590 315.244,306.276 314.846,306.000 314.400 C 305.728 313.960,305.887 313.600,306.353 313.600 C 306.819 313.600,307.200 312.541,307.200 311.247 C 307.200 308.513,307.995 307.868,311.895 307.438 C 315.324 307.061,314.946 307.448,315.534 303.707 C 316.166 299.693,316.624 299.036,318.400 299.600 C 319.206 299.856,320.087 299.706,320.358 299.267 C 320.629 298.829,321.442 298.697,322.165 298.974 C 323.145 299.350,323.350 299.145,322.974 298.165 C 322.697 297.442,322.823 296.633,323.254 296.366 C 323.862 295.991,323.806 291.600,323.194 291.600 C 321.475 291.600,322.650 282.870,324.620 281.009 C 328.567 277.281,328.547 267.574,324.584 263.346 C 322.243 260.847,319.536 255.437,318.792 251.766 C 318.506 250.355,317.623 247.400,316.831 245.200 C 316.039 243.000,315.123 239.592,314.796 237.626 C 312.654 224.769,292.082 216.155,282.046 223.914 C 279.449 225.922,275.968 226.259,269.848 225.095 C 261.288 223.468,253.771 222.605,239.200 221.578 C 226.797 220.704,223.525 220.116,218.539 217.867 C 215.107 216.319,205.099 215.752,202.036 216.932 M275.606 324.200 C 275.418 324.750,275.137 326.449,274.982 327.976 C 274.767 330.098,274.242 330.890,272.750 331.340 C 271.643 331.673,273.168 331.805,276.279 331.645 C 282.512 331.323,283.157 330.917,283.642 327.013 C 284.057 323.664,276.677 321.081,275.606 324.200 M151.647 333.160 C 153.128 334.267,153.109 334.297,151.243 333.826 C 149.500 333.385,149.412 333.468,150.443 334.582 C 151.079 335.269,151.829 335.694,152.109 335.525 C 152.389 335.356,152.790 335.874,152.999 336.676 C 153.209 337.477,153.908 338.133,154.554 338.133 C 156.263 338.133,155.393 334.626,153.324 333.177 C 151.147 331.652,149.607 331.636,151.647 333.160 M260.000 334.453 C 260.000 335.802,259.621 337.613,259.158 338.478 C 258.391 339.912,258.513 340.002,260.544 339.492 C 261.769 339.185,263.228 338.933,263.786 338.933 C 264.344 338.933,264.800 338.612,264.800 338.219 C 264.800 337.827,265.115 337.701,265.501 337.939 C 265.886 338.177,266.110 337.298,265.999 335.986 C 265.887 334.674,266.112 333.600,266.498 333.600 C 266.884 333.600,267.200 333.240,267.200 332.800 C 267.200 332.360,265.580 332.000,263.600 332.000 C 260.116 332.000,260.000 332.079,260.000 334.453 " stroke="none" fill="#a5d85d" fill-rule="evenodd"></path><path id="path5" d="M204.800 59.941 C 203.230 60.397,203.784 60.608,207.381 60.925 C 213.189 61.437,217.969 60.861,215.598 59.936 C 213.613 59.161,207.474 59.164,204.800 59.941 M250.000 68.000 C 248.793 68.519,249.285 68.688,252.000 68.688 C 254.715 68.688,255.207 68.519,254.000 68.000 C 253.120 67.622,252.220 67.312,252.000 67.312 C 251.780 67.312,250.880 67.622,250.000 68.000 M162.214 68.580 C 163.652 68.758,165.812 68.754,167.014 68.572 C 168.216 68.389,167.040 68.243,164.400 68.248 C 161.760 68.252,160.776 68.402,162.214 68.580 M205.320 224.839 C 203.186 225.197,200.846 225.748,200.120 226.062 C 194.578 228.462,174.170 229.057,156.693 227.328 C 146.308 226.300,137.927 227.228,136.138 229.604 C 135.402 230.581,133.990 232.125,133.000 233.035 C 132.010 233.944,131.200 235.035,131.200 235.458 C 131.200 235.881,129.691 238.606,127.846 241.514 C 124.236 247.203,123.189 254.801,125.445 258.941 C 126.300 260.511,125.891 261.229,121.282 266.251 C 117.440 270.438,116.050 272.587,115.683 274.910 C 114.812 280.428,114.757 296.025,115.607 296.628 C 116.051 296.942,117.131 298.968,118.007 301.128 C 119.150 303.946,120.330 305.416,122.182 306.328 C 124.093 307.270,124.768 308.141,124.782 309.683 C 124.804 312.258,128.138 316.000,130.409 316.000 C 131.336 316.000,131.917 316.287,131.700 316.638 C 131.483 316.989,131.610 317.769,131.982 318.371 C 132.355 318.974,132.340 320.305,131.949 321.333 C 131.278 323.100,131.421 323.205,134.620 323.285 C 141.183 323.450,141.186 323.452,141.419 326.000 C 141.932 331.605,142.210 332.000,145.643 332.000 C 147.410 332.000,149.834 332.578,151.028 333.284 C 153.022 334.464,153.073 334.464,151.647 333.284 C 149.704 331.678,151.053 331.586,153.316 333.171 C 154.236 333.816,155.212 335.459,155.485 336.824 C 155.776 338.278,156.331 339.090,156.826 338.784 C 157.290 338.497,158.104 338.604,158.635 339.022 C 160.317 340.346,177.600 340.012,177.600 338.655 C 177.600 337.948,177.215 337.737,176.600 338.106 C 175.921 338.515,175.952 338.273,176.698 337.354 C 177.643 336.189,177.618 336.000,176.518 336.000 C 175.495 336.000,175.387 335.612,175.979 334.056 C 176.673 332.229,176.491 332.055,172.959 331.170 C 168.116 329.956,158.400 329.477,158.400 330.452 C 158.400 334.008,154.520 330.634,154.265 326.857 C 154.062 323.843,149.101 317.602,146.906 317.599 C 146.408 317.598,143.618 315.348,140.706 312.599 C 128.120 300.713,132.089 279.200,146.869 279.200 C 147.494 279.200,149.874 277.399,152.159 275.197 C 155.748 271.737,157.081 271.015,161.984 269.874 C 167.436 268.606,167.796 268.372,171.228 263.872 C 173.193 261.297,175.203 258.725,175.694 258.158 C 176.186 257.590,176.844 256.323,177.155 255.341 C 178.962 249.647,191.084 248.506,222.538 251.068 C 230.737 251.736,237.782 253.719,241.978 256.539 C 242.846 257.123,245.564 257.600,248.018 257.600 L 252.480 257.600 253.492 262.500 C 255.521 272.323,258.960 276.832,264.289 276.656 C 277.915 276.206,292.456 286.357,289.495 294.252 C 289.113 295.271,288.800 297.139,288.800 298.405 C 288.800 299.670,288.489 300.898,288.110 301.132 C 287.730 301.367,286.966 303.178,286.412 305.156 C 285.746 307.537,284.851 308.930,283.766 309.274 C 282.865 309.560,280.226 311.011,277.902 312.497 C 275.578 313.984,273.141 315.200,272.486 315.200 C 271.830 315.200,271.088 315.535,270.835 315.944 C 270.582 316.353,268.310 316.945,265.787 317.260 C 261.094 317.845,256.054 321.650,254.819 325.541 C 254.264 327.289,251.693 328.508,247.104 329.198 C 242.005 329.964,240.626 331.264,240.570 335.355 C 240.545 337.250,240.136 339.064,239.662 339.388 C 239.188 339.711,243.197 339.981,248.572 339.988 C 259.394 340.001,260.000 339.708,260.000 334.453 L 260.000 332.000 265.400 331.920 C 273.382 331.802,274.647 331.282,274.982 327.976 C 275.461 323.247,275.329 323.318,283.148 323.603 C 289.458 323.834,290.414 323.695,290.510 322.534 C 290.691 320.328,290.971 317.264,291.089 316.200 C 291.157 315.591,292.413 315.200,294.302 315.200 C 298.028 315.200,298.998 314.198,299.340 309.996 C 299.547 307.463,300.038 306.603,301.740 305.791 C 303.142 305.122,304.072 303.880,304.439 302.185 C 304.747 300.763,306.209 298.417,307.688 296.972 C 314.737 290.086,313.759 271.284,306.117 266.762 C 302.635 264.702,299.141 260.703,298.641 258.207 C 298.395 256.975,297.880 255.773,297.497 255.536 C 297.114 255.299,296.800 253.741,296.800 252.072 C 296.800 242.857,289.475 237.459,280.413 239.996 C 276.086 241.208,273.081 240.370,265.200 235.755 C 253.226 228.744,253.457 228.805,236.066 227.945 C 223.781 227.337,219.316 226.812,215.950 225.582 C 211.284 223.876,211.126 223.865,205.320 224.839 " stroke="none" fill="#dbf694" fill-rule="evenodd"></path><path id="path6" d="" stroke="none" fill="#ffff00" fill-rule="evenodd"></path><path id="path7" d="M183.739 250.807 C 179.296 252.071,177.878 253.064,177.125 255.435 C 176.830 256.365,176.186 257.590,175.694 258.158 C 175.203 258.725,173.193 261.297,171.228 263.872 C 167.796 268.372,167.436 268.606,161.984 269.874 C 157.081 271.015,155.748 271.737,152.159 275.197 C 149.874 277.399,147.494 279.200,146.869 279.200 C 132.089 279.200,128.120 300.713,140.706 312.599 C 143.618 315.348,146.408 317.598,146.906 317.599 C 149.101 317.602,154.062 323.843,154.265 326.857 C 154.520 330.634,158.400 334.008,158.400 330.452 C 158.400 329.477,168.116 329.956,172.959 331.170 C 176.491 332.055,176.673 332.229,175.979 334.056 C 175.387 335.612,175.495 336.000,176.518 336.000 C 177.618 336.000,177.643 336.189,176.698 337.354 C 175.952 338.273,175.921 338.515,176.600 338.106 C 177.225 337.731,177.600 337.961,177.600 338.719 C 177.600 340.025,237.748 340.664,239.662 339.379 C 240.136 339.061,240.545 337.250,240.570 335.355 C 240.626 331.264,242.005 329.964,247.104 329.198 C 251.693 328.508,254.264 327.289,254.819 325.541 C 256.054 321.650,261.094 317.845,265.787 317.260 C 268.310 316.945,270.582 316.353,270.835 315.944 C 271.088 315.535,271.830 315.200,272.486 315.200 C 273.141 315.200,275.578 313.984,277.902 312.497 C 280.226 311.011,282.865 309.560,283.766 309.274 C 284.851 308.930,285.746 307.537,286.412 305.156 C 286.966 303.178,287.730 301.367,288.110 301.132 C 288.489 300.898,288.800 299.670,288.800 298.405 C 288.800 297.139,289.113 295.271,289.495 294.252 C 292.456 286.357,277.915 276.206,264.289 276.656 C 258.960 276.832,255.521 272.323,253.492 262.500 L 252.480 257.600 248.018 257.600 C 245.564 257.600,242.846 257.123,241.978 256.539 C 237.794 253.727,230.730 251.735,222.538 251.057 C 206.530 249.733,187.934 249.613,183.739 250.807 " stroke="none" fill="#fdfdf9" fill-rule="evenodd"></path><path id="path8" d="M157.584 46.019 C 157.027 46.690,156.733 47.399,156.929 47.595 C 157.125 47.792,157.893 47.243,158.635 46.376 C 159.377 45.509,159.672 44.800,159.290 44.800 C 158.908 44.800,158.141 45.349,157.584 46.019 M256.950 45.650 C 257.143 46.227,257.772 46.858,258.350 47.050 C 258.950 47.250,259.250 46.950,259.050 46.350 C 258.858 45.773,258.228 45.143,257.650 44.950 C 257.050 44.750,256.750 45.050,256.950 45.650 M122.684 61.354 C 120.646 61.752,118.807 63.688,118.022 66.257 L 117.456 68.115 119.501 66.337 C 120.625 65.359,121.356 64.253,121.126 63.879 C 120.895 63.506,121.018 63.200,121.400 63.200 C 121.782 63.200,122.793 62.671,123.647 62.025 C 124.501 61.379,125.020 60.888,124.800 60.934 C 124.580 60.980,123.628 61.169,122.684 61.354 M294.667 62.724 C 294.667 63.396,295.151 63.662,295.872 63.385 C 296.758 63.045,296.937 63.289,296.548 64.303 C 296.230 65.130,296.338 65.486,296.816 65.190 C 297.255 64.919,297.979 65.530,298.425 66.549 C 299.167 68.241,299.197 68.203,298.779 66.103 C 298.092 62.656,294.667 59.841,294.667 62.724 M222.636 88.803 C 219.025 89.118,214.964 89.835,213.610 90.396 C 211.849 91.125,209.621 91.230,205.775 90.763 C 193.513 89.276,161.919 90.051,156.000 91.985 C 154.900 92.344,149.140 94.187,143.200 96.079 C 136.808 98.115,130.931 100.541,128.800 102.021 C 126.820 103.397,123.104 105.557,120.543 106.821 C 117.981 108.085,115.540 109.764,115.119 110.552 C 114.697 111.339,113.287 112.534,111.985 113.208 C 107.772 115.386,100.382 121.932,93.813 129.302 C 85.640 138.473,83.200 141.386,83.200 141.975 C 83.200 143.073,78.169 153.172,76.412 155.600 C 75.457 156.920,73.689 160.340,72.482 163.200 C 69.491 170.289,68.505 172.323,67.811 172.841 C 66.833 173.570,64.956 193.062,64.424 208.000 C 63.580 231.739,62.797 237.634,60.666 236.317 C 57.284 234.227,54.950 235.608,57.694 238.076 C 58.626 238.914,59.684 240.320,60.044 241.200 C 60.583 242.517,60.708 242.341,60.749 240.200 C 60.799 237.653,60.875 237.600,64.457 237.600 C 69.550 237.600,70.402 238.759,71.052 246.567 C 71.558 252.637,71.768 253.237,73.783 254.366 C 78.312 256.904,79.310 254.298,79.628 239.101 C 80.153 214.029,81.314 209.788,88.134 208.048 C 90.480 207.450,94.740 205.785,97.600 204.349 C 106.884 199.688,114.549 196.800,117.639 196.800 C 129.407 196.800,130.684 179.738,119.411 173.131 C 114.906 170.491,113.497 168.914,110.898 163.600 C 107.695 157.051,107.696 156.959,111.082 150.042 C 112.816 146.499,114.584 142.700,115.011 141.600 C 115.584 140.123,116.809 139.315,119.694 138.511 C 121.842 137.912,125.346 136.539,127.481 135.461 C 134.739 131.793,145.598 128.734,152.399 128.441 C 158.891 128.161,168.015 127.353,190.400 125.077 C 197.220 124.383,203.520 123.836,204.400 123.860 C 205.280 123.884,209.600 124.084,214.000 124.304 C 218.400 124.525,227.220 124.929,233.600 125.202 C 245.133 125.697,252.160 127.272,259.183 130.937 C 260.382 131.563,263.931 131.992,267.934 131.995 C 274.904 132.000,284.009 133.171,286.800 134.422 C 287.680 134.816,290.380 135.731,292.800 136.455 C 305.413 140.228,308.360 141.610,312.491 145.689 L 316.588 149.736 320.322 148.468 C 322.376 147.771,324.223 147.200,324.428 147.200 C 325.163 147.200,324.782 151.117,324.000 151.600 C 323.560 151.872,323.201 152.703,323.201 153.447 C 323.204 156.682,316.435 168.859,314.400 169.282 C 313.300 169.510,311.775 170.035,311.011 170.448 C 310.247 170.862,308.807 171.205,307.811 171.211 C 302.405 171.244,302.256 171.646,305.406 177.677 L 308.291 183.200 312.351 183.200 C 316.967 183.200,318.400 185.551,318.400 193.124 C 318.400 196.409,318.576 196.712,320.778 197.195 C 322.086 197.482,325.236 198.731,327.778 199.970 C 332.193 202.123,332.525 202.169,335.200 201.007 C 341.900 198.096,345.450 203.420,346.815 218.426 C 347.076 221.300,347.572 224.107,347.916 224.663 C 352.489 232.064,352.763 181.192,348.204 171.200 C 344.879 163.914,344.938 164.085,341.397 151.600 C 340.897 149.840,339.898 147.616,339.176 146.659 C 338.453 145.701,337.245 143.300,336.490 141.324 C 335.735 139.347,334.246 137.159,333.181 136.461 C 332.116 135.763,329.787 133.218,328.004 130.805 C 324.678 126.304,314.650 115.879,312.694 114.890 C 310.180 113.619,293.294 103.086,292.800 102.481 C 291.949 101.437,282.100 96.800,280.735 96.800 C 279.943 96.800,279.072 96.440,278.800 96.000 C 278.528 95.560,277.780 95.200,277.137 95.200 C 276.494 95.200,274.625 94.365,272.984 93.345 C 266.636 89.398,241.641 87.143,222.636 88.803 M260.400 92.926 C 264.360 93.785,268.659 95.015,269.953 95.659 C 271.247 96.303,273.685 97.051,275.371 97.320 C 277.056 97.590,278.629 98.123,278.865 98.505 C 279.101 98.887,279.903 99.202,280.647 99.205 C 281.997 99.210,283.152 99.743,289.200 103.154 C 295.355 106.624,297.756 108.233,300.268 110.569 C 301.661 111.864,304.136 113.515,305.768 114.237 C 307.509 115.007,309.322 116.638,310.153 118.180 C 310.932 119.626,312.206 121.011,312.984 121.259 C 313.763 121.506,314.400 122.044,314.400 122.454 C 314.400 122.864,314.852 123.200,315.405 123.200 C 315.957 123.200,316.907 124.325,317.516 125.699 C 318.124 127.073,319.652 129.182,320.911 130.386 C 327.321 136.511,320.687 139.674,309.723 135.720 C 306.491 134.554,302.862 133.600,301.659 133.600 C 300.456 133.600,297.710 132.708,295.556 131.618 C 288.188 127.888,275.063 124.865,260.963 123.651 C 258.193 123.412,255.227 122.843,254.373 122.386 C 253.519 121.928,248.765 121.212,243.810 120.794 C 238.854 120.376,232.100 119.683,228.800 119.252 C 221.381 118.285,207.553 118.278,198.000 119.236 C 194.040 119.633,184.246 120.308,176.236 120.736 C 163.019 121.442,156.196 122.463,154.000 124.063 C 153.560 124.384,151.040 124.901,148.400 125.213 C 144.069 125.725,141.339 126.343,131.864 128.953 C 130.249 129.398,128.194 130.446,127.297 131.281 C 126.401 132.117,125.315 132.800,124.885 132.800 C 121.426 132.800,110.863 138.199,108.561 141.143 C 107.160 142.934,105.423 145.053,104.701 145.850 C 101.288 149.618,100.447 155.658,102.354 162.695 C 104.755 171.555,105.605 177.961,105.075 183.200 C 104.608 187.819,100.984 196.800,99.587 196.800 C 99.138 196.800,97.409 197.726,95.744 198.857 C 94.079 199.988,91.467 201.117,89.939 201.365 C 88.411 201.613,86.969 202.127,86.733 202.508 C 86.498 202.889,85.780 203.200,85.139 203.200 C 83.561 203.200,78.786 208.218,77.467 211.263 C 76.190 214.211,71.857 214.142,69.400 211.136 C 67.837 209.223,67.469 198.372,68.764 192.400 C 69.145 190.640,70.053 186.500,70.781 183.200 C 71.508 179.900,72.411 175.760,72.787 174.000 C 74.142 167.657,75.624 163.219,76.872 161.764 C 78.001 160.447,79.907 157.156,81.613 153.574 C 81.934 152.899,82.445 151.214,82.750 149.830 C 83.082 148.317,84.401 146.474,86.051 145.215 C 87.563 144.062,88.800 142.582,88.800 141.927 C 88.800 140.593,108.051 120.800,109.348 120.800 C 109.804 120.800,111.454 119.595,113.015 118.122 C 114.577 116.650,117.462 114.689,119.427 113.765 C 121.392 112.842,123.495 111.617,124.100 111.043 C 125.765 109.464,135.238 104.800,136.779 104.800 C 137.524 104.800,138.339 104.594,138.591 104.342 C 139.996 102.937,155.842 98.080,162.000 97.167 C 191.011 92.865,198.799 92.668,202.760 96.135 C 204.446 97.611,214.400 96.170,214.400 94.450 C 214.400 90.523,244.702 89.519,260.400 92.926 M336.950 101.650 C 337.143 102.228,337.773 102.858,338.350 103.050 C 338.950 103.250,339.250 102.950,339.050 102.350 C 338.858 101.773,338.228 101.142,337.650 100.950 C 337.050 100.750,336.750 101.050,336.950 101.650 M74.210 110.852 C 73.006 111.506,71.454 113.201,70.762 114.620 L 69.504 117.200 71.104 115.203 C 71.984 114.104,73.716 112.396,74.952 111.407 C 77.543 109.333,77.319 109.166,74.210 110.852 M340.406 110.391 C 340.115 110.861,340.474 110.968,341.290 110.655 C 342.140 110.329,342.467 110.444,342.150 110.957 C 341.626 111.806,344.577 115.009,345.453 114.541 C 345.719 114.398,346.227 114.938,346.581 115.741 C 347.002 116.695,347.070 116.369,346.778 114.800 C 346.094 111.123,341.793 108.147,340.406 110.391 M348.406 126.391 C 348.115 126.861,348.474 126.968,349.290 126.655 C 350.140 126.329,350.467 126.444,350.150 126.957 C 349.626 127.806,352.577 131.009,353.453 130.541 C 353.719 130.398,354.227 130.938,354.581 131.741 C 355.002 132.695,355.070 132.369,354.778 130.800 C 354.094 127.123,349.793 124.147,348.406 126.391 M65.400 127.264 C 64.630 127.713,63.433 129.232,62.741 130.640 L 61.482 133.200 63.589 130.613 C 64.747 129.190,66.304 127.671,67.048 127.237 C 67.792 126.804,68.040 126.449,67.600 126.449 C 67.160 126.449,66.170 126.816,65.400 127.264 M53.770 151.226 C 53.236 152.080,52.814 153.233,52.832 153.789 C 52.850 154.345,53.418 153.778,54.095 152.529 C 55.500 149.935,55.237 148.877,53.770 151.226 M332.800 163.760 C 332.800 165.246,332.542 165.662,331.974 165.094 C 331.519 164.639,331.378 163.667,331.659 162.934 C 332.400 161.003,332.800 161.292,332.800 163.760 M341.416 177.600 C 341.262 180.171,340.857 181.200,340.000 181.200 C 338.365 181.200,338.005 174.882,339.302 168.948 L 340.296 164.400 340.964 169.200 C 341.332 171.840,341.535 175.620,341.416 177.600 M354.022 255.020 C 354.371 256.294,354.202 256.774,353.460 256.620 C 352.877 256.499,352.499 256.877,352.620 257.460 C 352.774 258.202,352.294 258.371,351.020 258.022 C 349.374 257.571,349.342 257.612,350.688 258.451 C 351.901 259.206,352.474 259.082,353.778 257.778 C 355.082 256.474,355.206 255.901,354.451 254.688 C 353.612 253.342,353.571 253.374,354.022 255.020 M68.831 269.453 C 68.762 271.796,71.359 275.191,73.200 275.163 C 73.640 275.157,73.337 274.766,72.528 274.295 C 71.718 273.825,70.562 272.306,69.959 270.920 C 69.356 269.534,68.849 268.874,68.831 269.453 M345.284 270.959 C 344.717 272.722,342.205 274.068,340.940 273.287 C 340.570 273.058,340.267 273.355,340.267 273.947 C 340.267 274.777,340.776 274.846,342.487 274.250 C 345.131 273.328,346.685 271.645,346.201 270.227 C 345.991 269.612,345.624 269.905,345.284 270.959 " stroke="none" fill="#005500" fill-rule="evenodd"></path><path id="path9" d="" stroke="none" fill="#00ff00" fill-rule="evenodd"></path></g></svg>